# Blender 4.2.1 LTS
# www.blender.org
mtllib Glass.mtl
o Porsche_911_GT2.004
v 0.149448 0.430993 -0.519235
v -0.000161 0.594872 -0.227673
v -0.000398 0.433129 -0.524304
v 0.153957 0.594262 -0.221692
v 0.350581 0.430382 -0.491930
v 0.329140 0.588158 -0.206573
v 0.583200 0.420922 -0.396900
v 0.520518 0.564660 -0.166137
v 0.556211 0.542687 -0.181729
v 0.541270 0.556115 -0.166459
v 0.613435 0.423363 -0.368543
v 0.144612 0.245141 -0.843633
v -0.000655 0.248498 -0.848095
v 0.304536 0.240868 -0.828807
v 0.448603 0.237816 -0.798709
v 0.667811 0.226525 -0.683528
v 0.687372 0.237511 -0.646312
v 0.683694 0.228356 -0.666145
v -0.154270 0.594262 -0.221447
v -0.150235 0.430993 -0.518996
v -0.329429 0.588158 -0.206048
v -0.351324 0.430382 -0.491370
v -0.520742 0.564660 -0.165308
v -0.583792 0.420922 -0.395970
v -0.556460 0.542687 -0.180843
v -0.541494 0.556115 -0.165596
v -0.613981 0.423363 -0.367565
v -0.145915 0.245141 -0.843402
v -0.305816 0.240868 -0.828321
v -0.449834 0.237816 -0.797994
v -0.668859 0.226525 -0.682463
v -0.688360 0.237511 -0.645216
v -0.684714 0.228356 -0.665055
v 0.641751 0.286034 1.081326
v 0.616297 0.378808 0.925401
v 0.663591 0.272301 0.914988
v 0.596904 0.373620 1.099367
v 0.624406 0.307091 1.144511
v 0.632023 0.295189 1.128026
v 0.613424 0.327233 1.149097
v 0.602428 0.352257 1.137510
v 0.583193 0.487145 0.743237
v 0.588226 0.434960 0.931832
v 0.639862 0.386742 0.624784
v 0.691712 0.261010 0.587816
v 0.581908 0.503319 0.662367
v -0.614171 0.378808 0.926381
v -0.639377 0.286034 1.082347
v -0.661482 0.272301 0.916043
v -0.594502 0.373620 1.100316
v -0.610941 0.327233 1.150073
v -0.599964 0.352257 1.138468
v -0.621931 0.307091 1.145504
v -0.629574 0.295189 1.129030
v -0.581358 0.487145 0.744165
v -0.586090 0.434960 0.932768
v -0.638215 0.386742 0.625802
v -0.690124 0.261010 0.588917
v -0.580201 0.503319 0.663293
v -0.145532 0.345849 1.553450
v 0.001346 0.444420 1.281726
v 0.001565 0.347069 1.555774
v -0.147885 0.443505 1.281235
v -0.306061 0.338524 1.545338
v -0.310853 0.436791 1.275566
v -0.408916 0.329980 1.531687
v -0.418892 0.424584 1.267108
v 0.001068 0.555504 0.931689
v -0.152131 0.553368 0.931812
v -0.317841 0.543908 0.931943
v -0.431672 0.528344 0.932034
v -0.438224 0.330285 1.517368
v -0.453198 0.337304 1.491439
v -0.466505 0.412987 1.260736
v -0.472245 0.510949 0.950682
v -0.479546 0.499657 0.980290
v -0.456998 0.519799 0.935717
v 0.150577 0.443505 1.280997
v 0.148658 0.345849 1.553215
v 0.313536 0.436791 1.275069
v 0.309173 0.338524 1.544847
v 0.421561 0.424584 1.266438
v 0.412007 0.329980 1.531033
v 0.154266 0.553368 0.931567
v 0.319976 0.543908 0.931436
v 0.433807 0.528344 0.931345
v 0.441292 0.330285 1.516666
v 0.456225 0.337304 1.490714
v 0.469164 0.412987 1.259991
v 0.474410 0.510949 0.949928
v 0.481758 0.499657 0.979525
v 0.459139 0.519799 0.934987
vn 0.2577 0.9201 0.2948
vn 0.2450 0.9242 0.2931
vn 0.1983 0.9282 0.3149
vn 0.2507 0.9225 0.2934
vn 0.2642 0.9151 0.3046
vn 0.2082 0.9219 0.3266
vn 0.1535 0.9286 0.3378
vn 0.1394 0.9308 0.3378
vn 0.1101 0.9337 0.3406
vn 0.0923 0.9431 0.3194
vn 0.0504 0.9397 0.3384
vn 0.1569 0.9417 0.2976
vn 0.0701 0.9517 0.2988
vn 0.0305 0.9475 0.3182
vn 0.0033 0.9418 0.3360
vn 0.0002 0.9478 0.3187
vn -0.0266 0.9413 0.3364
vn -0.0312 0.9469 0.3201
vn -0.0021 0.9534 0.3017
vn -0.0427 0.9531 0.2995
vn 0.0183 0.9535 0.3008
vn -0.0663 0.9377 0.3410
vn -0.0903 0.9431 0.3201
vn -0.1355 0.9319 0.3366
vn -0.1139 0.9476 0.2984
vn -0.1984 0.9295 0.3108
vn -0.1515 0.9288 0.3383
vn -0.1984 0.9341 0.2968
vn -0.2502 0.9225 0.2938
vn -0.2077 0.9219 0.3269
vn -0.2637 0.9152 0.3046
vn -0.2573 0.9201 0.2952
vn -0.2447 0.9241 0.2935
vn -0.8958 0.4322 0.1034
vn -0.8894 0.4468 0.0967
vn -0.8961 0.4321 0.1014
vn -0.8878 0.4475 0.1078
vn -0.8919 0.4373 0.1152
vn -0.8867 0.4458 0.1227
vn -0.9020 0.4256 0.0722
vn -0.9067 0.4141 0.0801
vn -0.9010 0.4255 0.0846
vn -0.9029 0.4188 0.0970
vn -0.8941 0.4351 0.1058
vn -0.9189 0.3862 0.0803
vn -0.9291 0.3634 0.0688
vn 0.0093 0.8775 -0.4796
vn 0.0018 0.8729 -0.4879
vn -0.0418 0.8762 -0.4802
vn -0.0591 0.8719 -0.4862
vn -0.1154 0.8727 -0.4744
vn -0.1216 0.8549 -0.5044
vn -0.2762 0.8523 -0.4443
vn -0.0589 0.8659 -0.4967
vn -0.0967 0.8619 -0.4978
vn -0.2535 0.8458 -0.4694
vn -0.2953 0.8402 -0.4547
vn -0.3361 0.8408 -0.4244
vn -0.3596 0.8226 -0.4404
vn -0.3644 0.8152 -0.4501
vn -0.3891 0.8082 -0.4421
vn -0.3427 0.8459 -0.4087
vn -0.3943 0.8047 -0.4438
vn 0.3936 0.8047 -0.4444
vn 0.3612 0.8105 -0.4611
vn 0.3771 0.8121 -0.4453
vn 0.3105 0.8469 -0.4316
vn 0.3351 0.8327 -0.4408
vn 0.3098 0.8449 -0.4360
vn 0.3340 0.8425 -0.4227
vn 0.3420 0.8459 -0.4093
vn 0.1670 0.8654 -0.4724
vn 0.1858 0.8585 -0.4779
vn 0.0540 0.8755 -0.4803
vn 0.2010 0.8573 -0.4739
vn 0.0873 0.8630 -0.4976
vn 0.0485 0.8711 -0.4888
vn 0.0446 0.8669 -0.4964
vn -0.0102 0.8683 -0.4960
vn 0.9011 0.4256 0.0832
vn 0.9069 0.4140 0.0787
vn 0.9021 0.4256 0.0708
vn 0.9029 0.4191 0.0956
vn 0.8943 0.4351 0.1046
vn 0.8921 0.4373 0.1138
vn 0.8963 0.4321 0.0999
vn 0.9191 0.3861 0.0789
vn 0.8879 0.4475 0.1063
vn 0.8869 0.4459 0.1213
vn 0.8896 0.4468 0.0953
vn 0.8960 0.4323 0.1019
vn 0.9292 0.3634 0.0673
vt 0.704993 0.539611
vt 0.703057 0.533840
vt 0.704606 0.534010
vt 0.704163 0.529370
vt 0.702725 0.528521
vt 0.699406 0.528295
vt 0.699572 0.533670
vt 0.694207 0.528125
vt 0.703444 0.540573
vt 0.699793 0.540573
vt 0.694262 0.533557
vt 0.689453 0.528068
vt 0.689453 0.533557
vt 0.684696 0.528125
vt 0.684641 0.533557
vt 0.689453 0.540573
vt 0.684475 0.540573
vt 0.694428 0.540573
vt 0.679497 0.528295
vt 0.679331 0.533670
vt 0.676178 0.528521
vt 0.679110 0.540573
vt 0.675846 0.533840
vt 0.675459 0.540573
vt 0.674740 0.529370
vt 0.674297 0.534010
vt 0.673910 0.539611
vt 0.661686 0.536612
vt 0.662737 0.536216
vt 0.664230 0.537235
vt 0.668434 0.546006
vt 0.664673 0.546741
vt 0.667881 0.544365
vt 0.664396 0.540687
vt 0.666222 0.540573
vt 0.660967 0.540913
vt 0.660580 0.547477
vt 0.689453 0.563883
vt 0.689453 0.569824
vt 0.684475 0.563770
vt 0.684586 0.569711
vt 0.678778 0.563430
vt 0.678114 0.569145
vt 0.672583 0.562638
vt 0.684752 0.576218
vt 0.679552 0.575935
vt 0.674906 0.575313
vt 0.670536 0.567278
vt 0.671421 0.562921
vt 0.667826 0.572993
vt 0.711630 0.572653
vt 0.708367 0.567278
vt 0.706320 0.562638
vt 0.707482 0.562921
vt 0.700125 0.563430
vt 0.700789 0.569145
vt 0.694428 0.563770
vt 0.703997 0.575313
vt 0.699351 0.575935
vt 0.694317 0.569711
vt 0.694151 0.576218
vt 0.689453 0.576331
vt 0.711022 0.544365
vt 0.714230 0.546741
vt 0.710469 0.546006
vt 0.714507 0.540687
vt 0.712681 0.540573
vt 0.714672 0.537235
vt 0.717493 0.537574
vt 0.717936 0.540913
vt 0.716166 0.536216
vt 0.718323 0.547477
s 1
usemtl Glass.001
f 91/1/1 90/1/2 82/2/3
f 92/1/4 82/2/3 90/1/2
f 82/2/3 89/3/5 91/1/1
f 89/3/5 82/2/3 88/4/6
f 88/4/6 82/2/3 87/4/7
f 87/4/7 82/2/3 83/5/8
f 81/6/9 83/5/8 82/2/3
f 81/6/9 80/7/10 79/8/11
f 82/2/3 80/7/10 81/6/9
f 80/7/10 82/2/3 86/9/12
f 92/1/4 86/9/12 82/2/3
f 86/9/12 85/10/13 80/7/10
f 78/11/14 80/7/10 85/10/13
f 80/7/10 78/11/14 79/8/11
f 79/8/11 78/11/14 62/12/15
f 61/13/16 62/12/15 78/11/14
f 62/12/15 61/13/16 60/14/17
f 60/14/17 61/13/16 63/15/18
f 68/16/19 63/15/18 61/13/16
f 63/15/18 68/16/19 69/17/20
f 78/11/14 84/18/21 61/13/16
f 60/14/17 63/15/18 64/19/22
f 68/16/19 61/13/16 84/18/21
f 64/19/22 63/15/18 65/20/23
f 69/17/20 65/20/23 63/15/18
f 64/19/22 65/20/23 66/21/24
f 70/22/25 65/20/23 69/17/20
f 66/21/24 65/20/23 67/23/26
f 70/22/25 67/23/26 65/20/23
f 66/21/24 67/23/26 72/21/27
f 71/24/28 67/23/26 70/22/25
f 67/23/26 71/24/28 77/24/29
f 67/23/26 73/25/30 72/21/27
f 73/25/30 67/23/26 74/26/31
f 74/26/31 67/23/26 76/27/32
f 76/27/32 67/23/26 75/27/33
f 77/24/29 75/27/33 67/23/26
f 84/18/21 78/11/14 85/10/13
f 54/28/34 53/28/35 48/28/36
f 51/29/37 48/28/36 53/28/35
f 48/28/36 51/29/37 50/30/38
f 52/29/39 50/30/38 51/29/37
f 59/31/40 57/32/41 55/33/42
f 47/34/43 55/33/42 57/32/41
f 55/33/42 47/34/43 56/35/44
f 56/35/44 47/34/43 50/30/38
f 50/30/38 47/34/43 48/28/36
f 49/36/45 48/28/36 47/34/43
f 47/34/43 57/32/41 49/36/45
f 58/37/46 49/36/45 57/32/41
f 2/38/47 3/39/48 19/40/49
f 20/41/50 19/40/49 3/39/48
f 19/40/49 20/41/50 21/42/51
f 22/43/52 21/42/51 20/41/50
f 21/42/51 22/43/52 23/44/53
f 20/41/50 28/45/54 22/43/52
f 29/46/55 22/43/52 28/45/54
f 30/47/56 22/43/52 29/46/55
f 22/43/52 30/47/56 24/48/57
f 24/48/57 23/44/53 22/43/52
f 23/44/53 24/48/57 25/49/58
f 25/49/58 24/48/57 27/48/59
f 31/50/60 27/48/59 24/48/57
f 27/48/59 31/50/60 32/50/61
f 26/44/62 23/44/53 25/49/58
f 31/50/60 24/48/57 30/47/56
f 33/50/63 32/50/61 31/50/60
f 18/51/64 16/51/65 17/51/66
f 7/52/67 17/51/66 16/51/65
f 17/51/66 7/52/67 11/52/68
f 11/52/68 7/52/67 8/53/69
f 9/54/70 11/52/68 8/53/69
f 10/53/71 9/54/70 8/53/69
f 6/55/72 7/52/67 5/56/73
f 16/51/65 5/56/73 7/52/67
f 8/53/69 7/52/67 6/55/72
f 6/55/72 5/56/73 4/57/74
f 16/51/65 15/58/75 5/56/73
f 14/59/76 5/56/73 15/58/75
f 1/60/77 5/56/73 14/59/76
f 5/56/73 1/60/77 4/57/74
f 4/57/74 1/60/77 2/38/47
f 2/38/47 1/60/77 3/39/48
f 12/61/78 3/39/48 1/60/77
f 13/62/79 3/39/48 12/61/78
f 3/39/48 13/62/79 20/41/50
f 28/45/54 20/41/50 13/62/79
f 12/61/78 1/60/77 14/59/76
f 42/63/80 44/64/81 46/65/82
f 44/64/81 42/63/80 35/66/83
f 43/67/84 35/66/83 42/63/80
f 37/68/85 35/66/83 43/67/84
f 34/69/86 35/66/83 37/68/85
f 35/66/83 34/69/86 36/70/87
f 35/66/83 36/70/87 44/64/81
f 40/71/88 37/68/85 41/68/89
f 37/68/85 40/71/88 34/69/86
f 38/71/90 34/69/86 40/71/88
f 34/69/86 38/71/90 39/69/91
f 45/72/92 44/64/81 36/70/87
