<?xml version="1.0" encoding="UTF-8"?>
<svg version="1.1" xmlns="http://www.w3.org/2000/svg" width="512" height="512">
<path d="M0 0 C1.15048828 -0.03867187 1.15048828 -0.03867187 2.32421875 -0.078125 C11.82477963 0.96507384 19.58027832 5.30217059 27.75 10 C28.93429657 10.6709807 30.1192064 11.34087997 31.3046875 12.00976562 C33.76003032 13.39624245 36.21270573 14.78727095 38.66357422 16.18164062 C44.35552667 19.41476477 50.08615927 22.57833355 55.8125 25.75 C58.06267679 26.99968173 60.31267637 28.24968258 62.5625 29.5 C63.67625 30.11875 64.79 30.7375 65.9375 31.375 C69.3125 33.25 72.6875 35.125 76.0625 37 C77.7345752 37.9288501 77.7345752 37.9288501 79.44042969 38.87646484 C81.68084851 40.12125011 83.9210842 41.36636505 86.16113281 42.61181641 C91.93123507 45.81938853 97.70477453 49.02052482 103.484375 52.2109375 C110.1066188 55.86769666 116.71466788 59.54934631 123.3125 63.25 C124.1492627 63.71696289 124.98602539 64.18392578 125.84814453 64.66503906 C136.67123506 70.74042835 144.12873345 76.1063494 148.3125 88.25 C149.19873057 91.97225026 149.44205417 95.42844996 149.45294189 99.2507782 C149.45865204 100.4548381 149.46436218 101.65889801 149.47024536 102.89944458 C149.47136322 104.2122641 149.47248108 105.52508362 149.47363281 106.87768555 C149.47826465 108.28090037 149.4832898 109.68411393 149.48867798 111.08732605 C149.50177035 114.89336469 149.50824095 118.69938571 149.51268864 122.50544333 C149.51562498 124.88670127 149.51973088 127.26795445 149.52419281 129.64920998 C149.53786052 137.10936672 149.54753026 144.56951252 149.5513947 152.02968091 C149.5558713 160.62296708 149.57340371 169.21609387 149.6023953 177.8093316 C149.62406047 184.46346473 149.63410158 191.11755318 149.63543582 197.77172118 C149.63648055 201.74031418 149.64231716 205.70875719 149.66025543 209.67731285 C149.67681963 213.41448184 149.67885152 217.15138946 149.67011642 220.88858223 C149.66898757 222.90004514 149.68264094 224.9114997 149.6968689 226.9229126 C149.64441693 238.39590276 147.81172143 246.96517551 140.125 255.75 C133.28763591 261.82765697 125.22890435 266.0510115 117.1875 270.3125 C109.1126669 274.63814832 101.08626959 279.03116507 93.125 283.5625 C83.25510808 289.1737701 73.32935828 294.6786646 63.38134766 300.1496582 C57.25262678 303.52097194 51.13059544 306.90306168 45.02734375 310.3203125 C24.78640175 321.64868167 24.78640175 321.64868167 15.9375 326.125 C15.31963623 326.44082031 14.70177246 326.75664062 14.06518555 327.08203125 C5.6689852 331.23527353 -2.10625824 331.03162792 -10.85717773 328.30273438 C-16.12833112 326.34213631 -20.96668893 323.59899967 -25.875 320.875 C-27.01283936 320.25286621 -28.15067871 319.63073242 -29.32299805 318.98974609 C-37.5247048 314.49841173 -45.67056316 309.90631189 -53.79858398 305.28320312 C-61.47723475 300.91748956 -69.19976514 296.63467439 -76.9375 292.375 C-78.16546265 291.698598 -79.39340861 291.0221657 -80.62133789 290.34570312 C-82.46781004 289.32858187 -84.31430661 288.31150506 -86.16087341 287.29455566 C-116.73974895 270.45307089 -116.73974895 270.45307089 -128.5625 263.625 C-129.22797852 263.24746582 -129.89345703 262.86993164 -130.57910156 262.48095703 C-138.79130068 257.67714557 -144.35925037 251.12533235 -147.6875 242.25 C-148.59680045 238.53239824 -148.81705442 235.07146319 -148.82794189 231.2492218 C-148.83365204 230.0451619 -148.83936218 228.84110199 -148.84524536 227.60055542 C-148.84636322 226.2877359 -148.84748108 224.97491638 -148.84863281 223.62231445 C-148.85326465 222.21909963 -148.8582898 220.81588607 -148.86367798 219.41267395 C-148.87677035 215.60663531 -148.88324095 211.80061429 -148.88768864 207.99455667 C-148.89062498 205.61329873 -148.89473088 203.23204555 -148.89919281 200.85079002 C-148.91286052 193.39063328 -148.92253026 185.93048748 -148.9263947 178.47031909 C-148.9308713 169.87703292 -148.94840371 161.28390613 -148.9773953 152.6906684 C-148.99906047 146.03653527 -149.00910158 139.38244682 -149.01043582 132.72827882 C-149.01148055 128.75968582 -149.01731716 124.79124281 -149.03525543 120.82268715 C-149.05181963 117.08551816 -149.05385152 113.34861054 -149.04511642 109.61141777 C-149.04398757 107.59995486 -149.05764094 105.5885003 -149.0718689 103.5770874 C-149.02044985 92.33003125 -147.1142519 82.95140082 -139.6875 74.25 C-132.57000084 68.38907837 -124.32502325 64.11843098 -116.25 59.75 C-114.96984612 59.05153801 -113.69006818 58.3523866 -112.41064453 57.65258789 C-109.78573469 56.2171095 -107.15960627 54.78389923 -104.53271484 53.35205078 C-98.69101934 50.16349145 -92.87720708 46.92496754 -87.0625 43.6875 C-84.8307676 42.44654545 -82.59899676 41.20566004 -80.3671875 39.96484375 C-79.26600586 39.35237793 -78.16482422 38.73991211 -77.03027344 38.10888672 C-73.66906885 36.2397506 -70.30730454 34.37162558 -66.9453125 32.50390625 C-65.82906494 31.88378662 -64.71281738 31.26366699 -63.56274414 30.62475586 C-61.32507458 29.38185788 -59.08728297 28.13917959 -56.84936523 26.89672852 C-51.62671284 23.9966948 -46.40550155 21.09417079 -41.18991089 18.18145752 C-38.75450488 16.82160246 -36.31820295 15.46335696 -33.88183594 14.10522461 C-32.18467655 13.15829646 -30.48879871 12.20907255 -28.79296875 11.25976562 C-8.90453755 0.17661893 -8.90453755 0.17661893 0 0 Z M-12.25 20.4375 C-13.47710693 21.10918213 -13.47710693 21.10918213 -14.72900391 21.79443359 C-17.39299026 23.26050322 -20.041201 24.75226661 -22.6875 26.25 C-23.5635791 26.74226074 -24.4396582 27.23452148 -25.34228516 27.74169922 C-30.04071251 30.38183321 -34.72949468 33.03849079 -39.4140625 35.703125 C-46.22425737 39.56678857 -53.07815712 43.3496428 -59.9375 47.125 C-61.16782369 47.80253947 -62.39812965 48.48011114 -63.62841797 49.15771484 C-65.4786227 50.17671198 -67.32883155 51.19570157 -69.17910767 52.21456909 C-87.09711092 62.08325761 -104.96113081 72.04023484 -122.6875 82.25 C-122.6875 82.91 -122.6875 83.57 -122.6875 84.25 C-121.77762329 84.73859497 -121.77762329 84.73859497 -120.84936523 85.23706055 C-109.67533034 91.24482028 -98.52947547 97.29256713 -87.5 103.5625 C-78.8474335 108.48102966 -70.1564016 113.32542066 -61.4375 118.125 C-60.82962646 118.45966278 -60.22175293 118.79432556 -59.59545898 119.13912964 C-58.68292358 119.64151657 -58.68292358 119.64151657 -57.75195312 120.15405273 C-56.52082527 120.83185384 -55.28970548 121.5096696 -54.05859375 122.1875 C-53.448414 122.52342667 -52.83823425 122.85935333 -52.20956421 123.20545959 C-46.78336796 126.19419396 -41.36534842 129.19751249 -35.95092773 132.20751953 C-33.67689569 133.4710673 -31.401694 134.73251267 -29.12524414 135.99169922 C-24.12408261 138.7613782 -19.14212497 141.55261518 -14.2109375 144.4453125 C-13.38489014 144.92371582 -12.55884277 145.40211914 -11.70776367 145.89501953 C-10.21017265 146.76489187 -8.71995425 147.64765553 -7.23950195 148.54638672 C-2.82913201 151.09101937 -0.57314105 151.47443918 4.3125 150.25 C7.29360215 148.9226632 7.29360215 148.9226632 10.29296875 147.1796875 C11.44297363 146.53829834 12.59297852 145.89690918 13.77783203 145.23608398 C15.01862299 144.53250976 16.25934379 143.82881181 17.5 143.125 C18.79752355 142.3976427 20.09554629 141.67117526 21.39404297 140.94555664 C24.06608914 139.45092936 26.73548784 137.95173233 29.40283203 136.44873047 C34.13164073 133.78598384 38.87759473 131.15469537 43.62426758 128.52392578 C46.96210476 126.67386232 50.29777068 124.81994101 53.6328125 122.96484375 C60.35811803 119.22429849 67.08517686 115.4869151 73.8125 111.75 C76.03907019 110.51303467 78.26563267 109.27605547 80.4921875 108.0390625 C94.765625 100.109375 109.0390625 92.1796875 123.3125 84.25 C122.07067012 80.52451037 121.17101468 80.3457213 117.7734375 78.5703125 C116.81284424 78.06072998 115.85225098 77.55114746 114.86254883 77.02612305 C113.29089966 76.20881714 113.29089966 76.20881714 111.6875 75.375 C109.46907084 74.19846291 107.25164548 73.02003142 105.03515625 71.83984375 C103.90609863 71.24026855 102.77704102 70.64069336 101.61376953 70.02294922 C96.73958476 67.40526472 91.93052245 64.67863623 87.125 61.9375 C77.25622395 56.32554146 67.32948845 50.82373684 57.38354492 45.3503418 C56.15411552 44.67369914 54.92470473 43.99702268 53.6953125 43.3203125 C53.08575211 42.98479874 52.47619171 42.64928497 51.84815979 42.30360413 C46.36411411 39.28286472 40.89305288 36.23906785 35.42407227 33.19116211 C32.0421697 31.30827525 28.65632636 29.43266258 25.26953125 27.55859375 C21.68881776 25.57670522 18.1224659 23.57452964 14.57421875 21.53515625 C13.25796198 20.7940053 11.94157102 20.05309259 10.625 19.3125 C9.56925781 18.70535156 8.51351562 18.09820312 7.42578125 17.47265625 C-0.30058842 14.43833541 -5.4534979 16.57190741 -12.25 20.4375 Z M-132.6875 97.25 C-132.75762714 115.12204659 -132.81050631 132.99405739 -132.84293652 150.86621189 C-132.85839565 159.16484239 -132.87946689 167.46338732 -132.91381836 175.76196289 C-132.94374997 182.99625343 -132.96308194 190.23048198 -132.96976548 197.46483272 C-132.97367139 201.29425063 -132.98283079 205.12349125 -133.00469017 208.95285225 C-133.02511486 212.56024961 -133.0313218 216.16739733 -133.02682304 219.77484703 C-133.02803656 221.72373012 -133.04414733 223.67258627 -133.0607605 225.62139893 C-133.03303947 233.49122611 -132.61379949 238.81740328 -127.36767578 244.97119141 C-124.6224096 247.30534285 -121.97355121 249.00122732 -118.8046875 250.7109375 C-117.65145996 251.33943604 -116.49823242 251.96793457 -115.31005859 252.61547852 C-114.06089511 253.28536136 -112.81170829 253.95520071 -111.5625 254.625 C-110.25939901 255.3322775 -108.95683554 256.04054613 -107.65478516 256.74975586 C-104.97600226 258.20827277 -102.2952964 259.6631589 -99.61328125 261.11572266 C-93.73817182 264.30323225 -87.90110501 267.5586896 -82.0625 270.8125 C-79.83082157 272.05355159 -77.59905065 273.29443688 -75.3671875 274.53515625 C-74.26600586 275.14762207 -73.16482422 275.76008789 -72.03027344 276.39111328 C-68.66906885 278.2602494 -65.30730454 280.12837442 -61.9453125 281.99609375 C-60.82922607 282.61613281 -59.71313965 283.23617187 -58.56323242 283.875 C-56.32396593 285.11876703 -54.08454687 286.36225942 -51.8449707 287.60546875 C-46.64040362 290.49516642 -41.4375224 293.38774902 -36.2414856 296.29275513 C-33.82564069 297.64313067 -31.40870825 298.99155323 -28.99169922 300.33984375 C-27.31632865 301.2754586 -25.64250653 302.21384455 -23.96875 303.15234375 C-21.89772013 304.30719312 -19.82117627 305.45221948 -17.73876953 306.58642578 C-15.6642236 307.71748323 -13.60294632 308.87314936 -11.55419922 310.05029297 C-4.15543593 314.11475624 -4.15543593 314.11475624 4.04199219 314.03710938 C8.79709881 312.38867241 13.08143998 309.99454485 17.4375 307.5 C18.48591064 306.91581299 19.53432129 306.33162598 20.61450195 305.72973633 C23.85610472 303.91853118 27.08515283 302.08646336 30.3125 300.25 C32.19880493 299.18546431 34.08550674 298.12163148 35.97265625 297.05859375 C38.7577483 295.48745302 41.54141598 293.91397194 44.32177734 292.33447266 C52.03539279 287.95365983 59.7917177 283.65317888 67.5625 279.375 C68.79175775 278.69793428 70.02100579 278.02085093 71.25024414 277.34375 C73.09845439 276.32578001 74.94668114 275.30784006 76.79496765 274.29000854 C86.62812323 268.87426126 96.4506273 263.44008026 106.24755859 257.95898438 C109.18614766 256.32045296 112.13354049 254.69874754 115.08203125 253.078125 C116.80521293 252.11552332 118.52790364 251.15204197 120.25 250.1875 C121.01908691 249.77072998 121.78817383 249.35395996 122.58056641 248.92456055 C127.57072221 246.0961206 131.06229843 243.12066067 132.9023962 237.42366409 C133.40595925 234.75463998 133.43522481 232.24729117 133.43275452 229.52996826 C133.43412918 228.36331635 133.43550385 227.19666443 133.43692017 225.99465942 C133.43332489 224.71863861 133.42972961 223.4426178 133.42602539 222.12792969 C133.42574325 220.76775108 133.42590177 219.40757232 133.4264679 218.0473938 C133.42675483 214.35765235 133.42087487 210.6679434 133.41389394 206.9782095 C133.40764313 203.12115582 133.40705523 199.26410141 133.40586853 195.40704346 C133.40276032 188.10439702 133.39455379 180.80176556 133.38451904 173.49912572 C133.37334209 165.18480386 133.36784346 156.87048128 133.36282361 148.55615377 C133.35237076 131.45409386 133.33478117 114.35204851 133.3125 97.25 C129.53738549 98.47620838 126.15318557 99.73818636 122.71484375 101.7265625 C121.41208496 102.47268799 121.41208496 102.47268799 120.08300781 103.23388672 C119.14811523 103.7754541 118.21322266 104.31702148 117.25 104.875 C115.18179143 106.0586938 113.11274085 107.24091728 111.04296875 108.421875 C109.94903809 109.04642578 108.85510742 109.67097656 107.72802734 110.31445312 C101.86759469 113.63550459 95.96488647 116.87936212 90.0625 120.125 C87.59096783 121.48535386 85.11968413 122.84615875 82.6484375 124.20703125 C82.03630905 124.54404556 81.4241806 124.88105988 80.79350281 125.22828674 C71.08644672 130.57478917 61.40581957 135.96898026 51.72119141 141.35595703 C48.7738529 142.99364878 45.82520057 144.62891655 42.87554932 146.26243591 C40.4562455 147.602279 38.0374734 148.94308054 35.61871338 150.28390503 C33.94406169 151.21173675 32.26867726 152.13824557 30.59326172 153.06469727 C18.78482224 158.75802918 18.78482224 158.75802918 8.3125 166.25 C8.21094013 167.8246188 8.17897613 169.40377477 8.17446899 170.98165894 C8.16901566 172.00522491 8.16356232 173.02879089 8.15794373 174.08337402 C8.1569014 175.21585571 8.15585907 176.3483374 8.15478516 177.51513672 C8.14970444 178.70039948 8.14462372 179.88566223 8.13938904 181.10684204 C8.12584738 184.36721006 8.11648096 187.6275646 8.10797167 190.88794851 C8.09727603 194.29520977 8.07869009 197.70242349 8.06015015 201.10964966 C7.99815391 212.72459085 7.94419783 224.33952765 7.91113281 235.95458984 C7.89280286 242.36526851 7.86388716 248.77580795 7.8231281 255.18638432 C7.80202949 258.58078259 7.78659687 261.9750052 7.78432083 265.3694725 C7.77943716 269.15521553 7.75634404 272.94043646 7.72900391 276.72607422 C7.73351311 278.41872406 7.73351311 278.41872406 7.7381134 280.14556885 C7.72147392 281.68937729 7.72147392 281.68937729 7.70449829 283.26437378 C7.70118814 284.15997953 7.697878 285.05558529 7.69446754 285.97833061 C7.2316261 288.73098006 6.52695238 289.5960223 4.3125 291.25 C1.12688673 292.13112708 -0.85573848 292.54224053 -4 291.4375 C-5.6875 290.25 -5.6875 290.25 -6.6875 288.25 C-6.77515936 286.63918973 -6.79901256 285.02472275 -6.79188538 283.4115448 C-6.78922668 281.87846931 -6.78922668 281.87846931 -6.78651428 280.31442261 C-6.77629494 278.62580612 -6.77629494 278.62580612 -6.76586914 276.90307617 C-6.75975211 274.4523269 -6.75382545 272.00157715 -6.74806213 269.55082703 C-6.74338991 268.2462171 -6.73871769 266.94160717 -6.73390388 265.59746361 C-6.72073989 261.52550435 -6.72245452 257.45363992 -6.72813416 253.38166809 C-6.72905424 252.69464961 -6.72997432 252.00763112 -6.73092228 251.2997939 C-6.7338938 249.18358634 -6.73705885 247.06737913 -6.74023438 244.95117188 C-6.7530314 236.18105854 -6.75502152 227.41139223 -6.71166992 218.64135742 C-6.6801704 212.2477251 -6.67686599 205.85477359 -6.70642942 199.46112233 C-6.72098108 196.07739793 -6.72115341 192.69503479 -6.68702888 189.31142235 C-6.65571248 185.53488443 -6.67374289 181.7615893 -6.70336914 177.98510742 C-6.68238663 176.86543579 -6.66140411 175.74576416 -6.63978577 174.59216309 C-6.60074515 169.00740473 -6.60074515 169.00740473 -9.43017673 164.4774704 C-11.47227508 163.18150033 -13.46321798 162.19090025 -15.6875 161.25 C-16.66372314 160.68684082 -17.63994629 160.12368164 -18.64575195 159.54345703 C-19.56316162 159.03669434 -20.48057129 158.52993164 -21.42578125 158.0078125 C-22.47894531 157.42451172 -23.53210938 156.84121094 -24.6171875 156.24023438 C-25.73351562 155.62470703 -26.84984375 155.00917969 -28 154.375 C-29.1941381 153.71442347 -30.38814585 153.05361125 -31.58203125 152.39257812 C-34.0563024 151.02285482 -36.53112465 149.65413521 -39.00634766 148.28613281 C-44.738657 145.11689507 -50.46260054 141.93259627 -56.1875 138.75 C-58.43746156 137.49993081 -60.68746167 136.249931 -62.9375 135 C-67.4375 132.5 -71.9375 130 -76.4375 127.5 C-77.55286133 126.88036377 -78.66822266 126.26072754 -79.81738281 125.62231445 C-82.05113753 124.38132163 -84.28486185 123.1402741 -86.51855469 121.89916992 C-91.76595432 118.98364965 -97.01364986 116.06866617 -102.26245117 113.15567017 C-104.72774222 111.78743043 -107.19285712 110.41887352 -109.65795898 109.05029297 C-111.38703582 108.09051181 -113.11636569 107.13118654 -114.84570312 106.171875 C-115.90208984 105.58535156 -116.95847656 104.99882812 -118.046875 104.39453125 C-119.02849609 103.85006348 -120.01011719 103.3055957 -121.02148438 102.74462891 C-123.30680898 101.46342403 -125.56960798 100.15176622 -127.828125 98.82421875 C-130.43549195 97.08923792 -130.43549195 97.08923792 -132.6875 97.25 Z " fill="#000000" transform="translate(255.6875,47.75)"/>
<path d="M0 0 C2.59191186 1.69814915 2.96408796 2.8820033 3.875 5.875 C4.03362711 9.84067771 3.46792316 10.88726233 1 14 C-1.90794326 15.94733143 -5.00531819 17.48400629 -8.125 19.0625 C-33.52526459 32.49780638 -56.30533246 50.50199537 -66.19921875 78.37890625 C-68.78094332 90.05333884 -68.12129391 103.16894052 -63 114 C-62.34644531 115.39412109 -62.34644531 115.39412109 -61.6796875 116.81640625 C-42.95131029 153.60794508 0.48106807 172.01805863 37.60131836 184.11425781 C118.03789228 210.0321727 210.69544684 211.25027515 292.02758789 188.45556641 C294 188 294 188 297 188 C297 187.34 297 186.68 297 186 C296.36763428 186.01450195 295.73526855 186.02900391 295.08374023 186.04394531 C287.34049763 186.14151114 279.75868581 185.56721951 272.0625 184.75 C270.85787109 184.64042969 269.65324219 184.53085937 268.41210938 184.41796875 C267.25646484 184.29550781 266.10082031 184.17304688 264.91015625 184.046875 C263.86996338 183.94213867 262.82977051 183.83740234 261.75805664 183.72949219 C258.43986955 182.8518483 257.13890101 181.64248097 255 179 C254.0625 176.5625 254.0625 176.5625 254 174 C255.62155629 170.51365399 256.76453292 169.15697806 260 167 C262.86035156 166.92236328 262.86035156 166.92236328 266.640625 167.1953125 C267.3638092 167.24615997 268.08699341 167.29700745 268.83209229 167.34939575 C271.55627317 167.54952948 274.27790915 167.77317735 277 168 C278.15588623 168.09502808 279.31177246 168.19005615 280.50268555 168.28796387 C288.78942024 168.97679836 297.07116871 169.71311434 305.3515625 170.47412109 C308.30474684 170.74495436 311.25846449 171.00820903 314.21289062 171.26513672 C317.82564171 171.57931984 321.43708125 171.90578976 325.04792023 172.24121475 C326.41103413 172.36584025 327.77454159 172.48624083 329.1384201 172.60219955 C331.03571284 172.76446217 332.93149285 172.94412657 334.82714844 173.12451172 C335.90172302 173.22142303 336.97629761 173.31833435 338.08343506 173.41818237 C341.32169484 174.06417403 343.34026013 175.06056557 346 177 C348.02594651 180.03891976 348.5676588 181.41892241 347.90234375 184.9921875 C345.75934263 189.76059693 340.98913777 192.82091703 337 196 C336.21520264 196.62648438 336.21520264 196.62648438 335.41455078 197.265625 C332.54948549 199.54600061 329.66634203 201.8019594 326.7734375 204.046875 C322.80071501 207.13931378 318.89863775 210.31499207 315 213.5 C308.26209023 218.99276418 301.49233903 224.43872786 294.61083984 229.75097656 C293.03014362 230.97662704 291.4621836 232.21864696 289.89453125 233.4609375 C288.46173828 234.56308594 288.46173828 234.56308594 287 235.6875 C286.175 236.33074219 285.35 236.97398437 284.5 237.63671875 C281.4120901 239.32059461 279.47013827 239.41131067 276 239 C272.67121368 236.53959272 271.20698052 235.10389613 270.4375 231 C271.6113508 224.7394624 276.87881425 221.27981002 281.6875 217.625 C282.26177734 217.1815625 282.83605469 216.738125 283.42773438 216.28125 C284.61977603 215.36126195 285.81366136 214.44365836 287.00927734 213.52832031 C290.68750038 210.70446991 294.34192163 207.84986793 298 205 C297.0927417 205.21615967 296.1854834 205.43231934 295.25073242 205.6550293 C278.22310771 209.68591347 261.20621201 213.4070267 243.875 215.875 C243.21269379 215.97187103 242.55038757 216.06874207 241.86801147 216.16854858 C218.84650912 219.49500323 195.73504219 220.3825718 172.5 220.3125 C171.23585266 220.31067719 169.97170532 220.30885437 168.66925049 220.30697632 C148.61255184 220.25846912 128.89529716 219.6299561 109 217 C108.01622375 216.87271515 108.01622375 216.87271515 107.01257324 216.74285889 C79.1034882 213.1202795 51.58342239 207.34779384 25 198 C23.72866211 197.55817383 23.72866211 197.55817383 22.43164062 197.10742188 C1.15200996 189.62642795 -19.65624404 180.23258159 -38 167 C-38.61375488 166.55833496 -39.22750977 166.11666992 -39.85986328 165.66162109 C-59.75207458 151.1362234 -78.84476296 131.34385612 -83.68652344 106.25585938 C-85.55084592 92.83970691 -85.24816124 78.58933916 -80 66 C-79.525625 64.85789062 -79.05125 63.71578125 -78.5625 62.5390625 C-65.56597077 34.23412143 -39.02205615 15.83194891 -12.25 1.75 C-11.18265625 1.18796875 -10.1153125 0.6259375 -9.015625 0.046875 C-5.51076164 -1.16983922 -3.54562581 -0.97161339 0 0 Z " fill="#000000" transform="translate(84,225)"/>
<path d="M0 0 C3.35561414 1.39936097 6.47409573 3.12939903 9.625 4.9375 C10.50019287 5.43040527 11.37538574 5.92331055 12.27709961 6.43115234 C19.9087427 10.80188169 27.04363075 15.62940258 34 21 C34.96164062 21.73863281 35.92328125 22.47726563 36.9140625 23.23828125 C54.68420357 37.32925227 71.75258153 56.63072691 75 80 C76.95150239 103.50178413 71.99328822 123.25783181 56.78515625 141.77734375 C49.66699085 150.13654692 41.90289379 157.62752727 33.1875 164.3125 C32.58977783 164.78703613 31.99205566 165.26157227 31.3762207 165.75048828 C26.79248612 169.11640175 23.66506441 169.64402837 18 169 C15.4375 166.9375 15.4375 166.9375 14 164 C13.75 160.625 13.75 160.625 15 157 C17.37810849 154.29006242 20.1377557 152.17851214 23 150 C39.13325885 137.4606541 53.49212448 122.70513861 58 102 C58.93153429 90.95007595 58.79611629 80.15999713 54 70 C53.57589844 69.0821875 53.15179688 68.164375 52.71484375 67.21875 C49.08791079 60.02550134 44.3264006 54.00950917 39 48 C38.43152344 47.33613281 37.86304688 46.67226563 37.27734375 45.98828125 C27.15919793 34.99430504 13.49035852 26.91645063 0.453125 19.87109375 C-9.54814815 14.45185185 -9.54814815 14.45185185 -13 11 C-13.7890797 4.01100837 -13.7890797 4.01100837 -11 0.4375 C-7.06939456 -1.44591511 -4.10307765 -1.04162502 0 0 Z " fill="#000000" transform="translate(437,225)"/>
</svg>
