<?xml version="1.0" standalone="no"?>
<!DOCTYPE svg PUBLIC "-//W3C//DTD SVG 20010904//EN"
 "http://www.w3.org/TR/2001/REC-SVG-20010904/DTD/svg10.dtd">
<svg version="1.0" xmlns="http://www.w3.org/2000/svg"
 width="512.000000pt" height="512.000000pt" viewBox="0 0 512.000000 512.000000"
 preserveAspectRatio="xMidYMid meet">
<metadata>
Created by potrace 1.16, written by Peter Selinger 2001-2019
</metadata>
<g transform="translate(0.000000,512.000000) scale(0.100000,-0.100000)"
fill="#000000" stroke="none">
<path d="M2290 4775 c-334 -42 -640 -150 -923 -327 -563 -351 -946 -949 -1031
-1606 -31 -239 -17 -548 34 -787 70 -323 248 -685 465 -945 198 -237 485 -461
755 -588 320 -151 611 -216 970 -216 228 0 354 15 552 65 886 222 1547 963
1674 1874 22 160 22 461 0 610 -104 690 -492 1273 -1083 1625 -413 246 -932
354 -1413 295z m512 -330 c525 -69 989 -343 1302 -769 470 -637 494 -1508 62
-2171 -72 -110 -141 -194 -249 -304 -642 -652 -1656 -755 -2418 -244 -449 300
-755 786 -833 1320 -21 143 -21 392 0 532 61 421 246 792 545 1090 304 304
693 494 1125 550 112 14 344 12 466 -4z"/>
<path d="M2500 3559 c-14 -6 -36 -20 -48 -32 -52 -48 -52 -50 -52 -442 l0
-365 -355 0 c-389 0 -395 -1 -450 -59 -28 -30 -30 -38 -30 -104 0 -85 17 -115
81 -147 38 -19 60 -20 397 -20 l357 0 0 -356 c0 -394 1 -402 64 -447 25 -17
45 -22 98 -22 75 0 109 18 143 76 19 32 20 55 23 392 l3 357 355 0 c333 0 357
1 393 20 116 59 114 233 -3 289 -40 20 -59 21 -394 21 l-352 0 0 348 c0 197
-4 362 -10 382 -11 41 -61 94 -103 109 -35 13 -84 13 -117 0z"/>
</g>
</svg>
