<?xml version="1.0" encoding="UTF-8"?>
<svg version="1.1" xmlns="http://www.w3.org/2000/svg" width="512" height="512">
<path d="M0 0 C0.66406109 -0.00205263 1.32812218 -0.00410527 2.01230633 -0.0062201 C4.24727839 -0.01189433 6.4821889 -0.01043233 8.7171669 -0.00901413 C10.33184005 -0.01159752 11.94651255 -0.01461061 13.56118417 -0.01801753 C18.006122 -0.0260938 22.45104369 -0.02787745 26.89598799 -0.028615 C31.68684924 -0.03046445 36.4777021 -0.03801123 41.2685585 -0.04475021 C51.74786228 -0.05833837 62.22716223 -0.06435897 72.70647335 -0.06876087 C79.24814752 -0.0715224 85.78982021 -0.07575958 92.33149338 -0.08026505 C110.43883929 -0.09245819 128.54618401 -0.10275751 146.65353394 -0.10614014 C148.39225988 -0.10646949 148.39225988 -0.10646949 150.1661116 -0.10680549 C151.32805514 -0.10702377 152.48999868 -0.10724204 153.68715262 -0.10746694 C156.04174153 -0.1079104 158.39633044 -0.10835697 160.75091934 -0.10880661 C161.91887984 -0.10902804 163.08684034 -0.10924947 164.29019359 -0.10947761 C183.21854201 -0.11342626 202.14685195 -0.13088213 221.07518551 -0.15416613 C240.5025255 -0.17787134 259.92984617 -0.1903416 279.35720086 -0.19150805 C290.26741013 -0.19242527 301.17756927 -0.19818921 312.08776474 -0.21632767 C321.37744354 -0.23171741 330.66705671 -0.23685576 339.95674583 -0.22858956 C344.69693791 -0.22467912 349.43699775 -0.22563193 354.17717361 -0.23964691 C358.51736861 -0.25236201 362.85733168 -0.25120937 367.19752625 -0.2390562 C368.76685444 -0.23709506 370.33619892 -0.24019688 371.9055042 -0.24890056 C380.99035285 -0.29609305 388.28630001 -0.12792872 396.1581459 4.88142776 C401.06522814 9.78851 403.20189979 15.03773608 403.6581459 21.88142776 C403.55930662 27.77883857 401.88821519 32.37134537 398.0956459 36.88142776 C391.48479715 42.41609184 387.33026926 44.25389931 378.81629181 44.26285553 C378.15223072 44.26490816 377.48816963 44.2669608 376.80398548 44.26907563 C374.56901342 44.27474986 372.33410291 44.27328786 370.09912491 44.27186966 C368.48445176 44.27445305 366.86977926 44.27746614 365.25510764 44.28087306 C360.81016981 44.28894933 356.36524812 44.29073298 351.92030382 44.29147053 C347.12944257 44.29331998 342.33858971 44.30086676 337.54773331 44.30760574 C327.06842953 44.3211939 316.58912958 44.3272145 306.10981846 44.3316164 C299.56814429 44.33437793 293.0264716 44.33861511 286.48479843 44.34312057 C268.37745252 44.35531372 250.2701078 44.36561304 232.16275787 44.36899567 C230.42403193 44.36932502 230.42403193 44.36932502 228.65018021 44.36966102 C227.48823667 44.3698793 226.32629313 44.37009757 225.12913918 44.37032247 C222.77455028 44.37076593 220.41996137 44.3712125 218.06537247 44.37166214 C216.89741197 44.37188357 215.72945147 44.372105 214.52609822 44.37233314 C195.5977498 44.37628179 176.66943986 44.39373766 157.7411063 44.41702166 C138.31376631 44.44072687 118.88644564 44.45319713 99.45909095 44.45436358 C88.54888167 44.4552808 77.63872254 44.46104474 66.72852707 44.4791832 C57.43884827 44.49457294 48.1492351 44.49971128 38.85954598 44.49144509 C34.1193539 44.48753465 29.37929405 44.48848746 24.63911819 44.50250244 C20.2989232 44.51521754 15.95896013 44.5140649 11.61876556 44.50191173 C10.04943737 44.49995059 8.48009289 44.50305241 6.91078761 44.51175609 C-2.17406104 44.55894858 -9.4700082 44.39078425 -17.3418541 39.38142776 C-22.24893633 34.47434553 -24.38560798 29.22511945 -24.8418541 22.38142776 C-24.74269959 15.72568142 -22.31030278 9.84987645 -17.5918541 5.13142776 C-11.71599795 1.06775155 -7.0429566 0.00740879 0 0 Z " fill="#000000" transform="translate(66.59185409545898,297.8685722351074)"/>
<path d="M0 0 C0.66406109 -0.00205263 1.32812218 -0.00410527 2.01230633 -0.0062201 C4.24727839 -0.01189433 6.4821889 -0.01043233 8.7171669 -0.00901413 C10.33184005 -0.01159752 11.94651255 -0.01461061 13.56118417 -0.01801753 C18.006122 -0.0260938 22.45104369 -0.02787745 26.89598799 -0.028615 C31.68684924 -0.03046445 36.4777021 -0.03801123 41.2685585 -0.04475021 C51.74786228 -0.05833837 62.22716223 -0.06435897 72.70647335 -0.06876087 C79.24814752 -0.0715224 85.78982021 -0.07575958 92.33149338 -0.08026505 C110.43883929 -0.09245819 128.54618401 -0.10275751 146.65353394 -0.10614014 C148.39225988 -0.10646949 148.39225988 -0.10646949 150.1661116 -0.10680549 C151.32805514 -0.10702377 152.48999868 -0.10724204 153.68715262 -0.10746694 C156.04174153 -0.1079104 158.39633044 -0.10835697 160.75091934 -0.10880661 C161.91887984 -0.10902804 163.08684034 -0.10924947 164.29019359 -0.10947761 C183.21854201 -0.11342626 202.14685195 -0.13088213 221.07518551 -0.15416613 C240.5025255 -0.17787134 259.92984617 -0.1903416 279.35720086 -0.19150805 C290.26741013 -0.19242527 301.17756927 -0.19818921 312.08776474 -0.21632767 C321.37744354 -0.23171741 330.66705671 -0.23685576 339.95674583 -0.22858956 C344.69693791 -0.22467912 349.43699775 -0.22563193 354.17717361 -0.23964691 C358.51736861 -0.25236201 362.85733168 -0.25120937 367.19752625 -0.2390562 C368.76685444 -0.23709506 370.33619892 -0.24019688 371.9055042 -0.24890056 C380.99035285 -0.29609305 388.28630001 -0.12792872 396.1581459 4.88142776 C401.06522814 9.78851 403.20189979 15.03773608 403.6581459 21.88142776 C403.55930662 27.77883857 401.88821519 32.37134537 398.0956459 36.88142776 C391.48479715 42.41609184 387.33026926 44.25389931 378.81629181 44.26285553 C378.15223072 44.26490816 377.48816963 44.2669608 376.80398548 44.26907563 C374.56901342 44.27474986 372.33410291 44.27328786 370.09912491 44.27186966 C368.48445176 44.27445305 366.86977926 44.27746614 365.25510764 44.28087306 C360.81016981 44.28894933 356.36524812 44.29073298 351.92030382 44.29147053 C347.12944257 44.29331998 342.33858971 44.30086676 337.54773331 44.30760574 C327.06842953 44.3211939 316.58912958 44.3272145 306.10981846 44.3316164 C299.56814429 44.33437793 293.0264716 44.33861511 286.48479843 44.34312057 C268.37745252 44.35531372 250.2701078 44.36561304 232.16275787 44.36899567 C230.42403193 44.36932502 230.42403193 44.36932502 228.65018021 44.36966102 C227.48823667 44.3698793 226.32629313 44.37009757 225.12913918 44.37032247 C222.77455028 44.37076593 220.41996137 44.3712125 218.06537247 44.37166214 C216.89741197 44.37188357 215.72945147 44.372105 214.52609822 44.37233314 C195.5977498 44.37628179 176.66943986 44.39373766 157.7411063 44.41702166 C138.31376631 44.44072687 118.88644564 44.45319713 99.45909095 44.45436358 C88.54888167 44.4552808 77.63872254 44.46104474 66.72852707 44.4791832 C57.43884827 44.49457294 48.1492351 44.49971128 38.85954598 44.49144509 C34.1193539 44.48753465 29.37929405 44.48848746 24.63911819 44.50250244 C20.2989232 44.51521754 15.95896013 44.5140649 11.61876556 44.50191173 C10.04943737 44.49995059 8.48009289 44.50305241 6.91078761 44.51175609 C-2.17406104 44.55894858 -9.4700082 44.39078425 -17.3418541 39.38142776 C-22.24893633 34.47434553 -24.38560798 29.22511945 -24.8418541 22.38142776 C-24.74269959 15.72568142 -22.31030278 9.84987645 -17.5918541 5.13142776 C-11.71599795 1.06775155 -7.0429566 0.00740879 0 0 Z " fill="#000000" transform="translate(66.59185409545898,41.86857223510742)"/>
<path d="M0 0 C1.38397055 -0.00576172 1.38397055 -0.00576172 2.79590011 -0.01163983 C4.31105315 -0.01034011 4.31105315 -0.01034011 5.85681534 -0.00901413 C7.47056183 -0.01347081 7.47056183 -0.01347081 9.11690927 -0.01801753 C12.73417825 -0.02671281 16.35141417 -0.02821348 19.96869278 -0.02970505 C22.55725551 -0.03433262 25.14581756 -0.0393572 27.73437881 -0.04475021 C34.77577513 -0.05832737 41.81716574 -0.06435731 48.85857296 -0.06876087 C53.25612318 -0.07152437 57.6536712 -0.07576192 62.05121994 -0.08026505 C74.22920341 -0.09245697 86.40718512 -0.10275639 98.58517456 -0.10614014 C99.36447095 -0.1063597 100.14376734 -0.10657927 100.94667877 -0.10680549 C101.72782897 -0.10702377 102.50897916 -0.10724204 103.31380057 -0.10746694 C104.89668131 -0.1079104 106.47956205 -0.10835696 108.06244278 -0.10880661 C108.84760459 -0.10902804 109.6327664 -0.10924947 110.44172099 -0.10947761 C123.16221271 -0.11342505 135.88264713 -0.13087777 148.60311672 -0.15416613 C161.66622762 -0.17788855 174.72930977 -0.19034239 187.79244256 -0.19150805 C195.12561556 -0.19242432 202.45871389 -0.19816443 209.7918663 -0.21632767 C216.68978731 -0.23335281 223.58756447 -0.23497461 230.48550034 -0.22618866 C233.01708734 -0.2254171 235.5486819 -0.22977659 238.08024979 -0.23964691 C241.53686552 -0.25233338 244.99297663 -0.24650703 248.44958878 -0.23606491 C249.45076792 -0.24412132 250.45194705 -0.25217772 251.48346496 -0.26047826 C259.53061919 -0.2036454 266.49245798 1.21671641 272.40716934 7.13142776 C276.64751775 13.26274235 278.14916607 18.69796968 277.40716934 26.13142776 C275.74136838 33.25371064 272.21536975 37.06826012 266.34466934 41.38142776 C262.39814328 43.73254968 259.36323628 44.25573319 254.81433868 44.26285553 C253.89169165 44.26669667 252.96904461 44.27053782 252.01843858 44.27449536 C251.00833655 44.27362888 249.99823452 44.2727624 248.95752335 44.27186966 C247.88169235 44.27484078 246.80586135 44.2778119 245.69742942 44.28087306 C242.08016044 44.28956834 238.46292452 44.29106901 234.8456459 44.29256058 C232.25708317 44.29718815 229.66852112 44.30221273 227.07995987 44.30760574 C220.03856356 44.3211829 212.99717295 44.32721284 205.95576572 44.3316164 C201.5582155 44.3343799 197.16066748 44.33861745 192.76311874 44.34312057 C180.58513527 44.3553125 168.40715356 44.36561192 156.22916412 44.36899567 C155.44986773 44.36921523 154.67057134 44.3694348 153.86765991 44.36966102 C152.69593462 44.36998843 152.69593462 44.36998843 151.50053811 44.37032247 C149.91765737 44.37076593 148.33477664 44.37121249 146.7518959 44.37166214 C145.96673409 44.37188357 145.18157228 44.372105 144.37261769 44.37233314 C131.65212597 44.37628058 118.93169155 44.3937333 106.21122196 44.41702166 C93.14811106 44.44074407 80.08502891 44.45319792 67.02189612 44.45436358 C59.68872313 44.45527985 52.35562479 44.46101996 45.02247238 44.4791832 C38.12455137 44.49620834 31.22677422 44.49783014 24.32883835 44.48904419 C21.79725134 44.48827263 19.26565678 44.49263212 16.7340889 44.50250244 C13.27747317 44.51518891 9.82136205 44.50936256 6.36474991 44.49892044 C5.36357077 44.50697685 4.36239163 44.51503325 3.33087373 44.52333379 C-4.71628051 44.46650093 -11.6781193 43.04613912 -17.59283066 37.13142776 C-21.8281413 31.00739752 -23.34771928 25.55899263 -22.59283066 18.13142776 C-21.17715079 12.47911769 -18.84485863 7.38049384 -13.92095566 3.97517776 C-9.18761618 1.14326526 -5.44285754 0.00852203 0 0 Z " fill="#000000" transform="translate(64.59283065795898,425.8685722351074)"/>
<path d="M0 0 C1.38397055 -0.00576172 1.38397055 -0.00576172 2.79590011 -0.01163983 C4.31105315 -0.01034011 4.31105315 -0.01034011 5.85681534 -0.00901413 C7.47056183 -0.01347081 7.47056183 -0.01347081 9.11690927 -0.01801753 C12.73417825 -0.02671281 16.35141417 -0.02821348 19.96869278 -0.02970505 C22.55725551 -0.03433262 25.14581756 -0.0393572 27.73437881 -0.04475021 C34.77577513 -0.05832737 41.81716574 -0.06435731 48.85857296 -0.06876087 C53.25612318 -0.07152437 57.6536712 -0.07576192 62.05121994 -0.08026505 C74.22920341 -0.09245697 86.40718512 -0.10275639 98.58517456 -0.10614014 C99.36447095 -0.1063597 100.14376734 -0.10657927 100.94667877 -0.10680549 C101.72782897 -0.10702377 102.50897916 -0.10724204 103.31380057 -0.10746694 C104.89668131 -0.1079104 106.47956205 -0.10835696 108.06244278 -0.10880661 C108.84760459 -0.10902804 109.6327664 -0.10924947 110.44172099 -0.10947761 C123.16221271 -0.11342505 135.88264713 -0.13087777 148.60311672 -0.15416613 C161.66622762 -0.17788855 174.72930977 -0.19034239 187.79244256 -0.19150805 C195.12561556 -0.19242432 202.45871389 -0.19816443 209.7918663 -0.21632767 C216.68978731 -0.23335281 223.58756447 -0.23497461 230.48550034 -0.22618866 C233.01708734 -0.2254171 235.5486819 -0.22977659 238.08024979 -0.23964691 C241.53686552 -0.25233338 244.99297663 -0.24650703 248.44958878 -0.23606491 C249.45076792 -0.24412132 250.45194705 -0.25217772 251.48346496 -0.26047826 C259.53061919 -0.2036454 266.49245798 1.21671641 272.40716934 7.13142776 C276.64751775 13.26274235 278.14916607 18.69796968 277.40716934 26.13142776 C275.74136838 33.25371064 272.21536975 37.06826012 266.34466934 41.38142776 C262.39814328 43.73254968 259.36323628 44.25573319 254.81433868 44.26285553 C253.89169165 44.26669667 252.96904461 44.27053782 252.01843858 44.27449536 C251.00833655 44.27362888 249.99823452 44.2727624 248.95752335 44.27186966 C247.88169235 44.27484078 246.80586135 44.2778119 245.69742942 44.28087306 C242.08016044 44.28956834 238.46292452 44.29106901 234.8456459 44.29256058 C232.25708317 44.29718815 229.66852112 44.30221273 227.07995987 44.30760574 C220.03856356 44.3211829 212.99717295 44.32721284 205.95576572 44.3316164 C201.5582155 44.3343799 197.16066748 44.33861745 192.76311874 44.34312057 C180.58513527 44.3553125 168.40715356 44.36561192 156.22916412 44.36899567 C155.44986773 44.36921523 154.67057134 44.3694348 153.86765991 44.36966102 C152.69593462 44.36998843 152.69593462 44.36998843 151.50053811 44.37032247 C149.91765737 44.37076593 148.33477664 44.37121249 146.7518959 44.37166214 C145.96673409 44.37188357 145.18157228 44.372105 144.37261769 44.37233314 C131.65212597 44.37628058 118.93169155 44.3937333 106.21122196 44.41702166 C93.14811106 44.44074407 80.08502891 44.45319792 67.02189612 44.45436358 C59.68872313 44.45527985 52.35562479 44.46101996 45.02247238 44.4791832 C38.12455137 44.49620834 31.22677422 44.49783014 24.32883835 44.48904419 C21.79725134 44.48827263 19.26565678 44.49263212 16.7340889 44.50250244 C13.27747317 44.51518891 9.82136205 44.50936256 6.36474991 44.49892044 C5.36357077 44.50697685 4.36239163 44.51503325 3.33087373 44.52333379 C-4.71628051 44.46650093 -11.6781193 43.04613912 -17.59283066 37.13142776 C-21.8281413 31.00739752 -23.34771928 25.55899263 -22.59283066 18.13142776 C-21.17715079 12.47911769 -18.84485863 7.38049384 -13.92095566 3.97517776 C-9.18761618 1.14326526 -5.44285754 0.00852203 0 0 Z " fill="#000000" transform="translate(64.59283065795898,169.86857223510742)"/>
</svg>
