<?xml version="1.0" standalone="no"?>
<!DOCTYPE svg PUBLIC "-//W3C//DTD SVG 20010904//EN"
 "http://www.w3.org/TR/2001/REC-SVG-20010904/DTD/svg10.dtd">
<svg version="1.0" xmlns="http://www.w3.org/2000/svg"
 width="225.000000pt" height="225.000000pt" viewBox="0 0 225.000000 225.000000"
 preserveAspectRatio="xMidYMid meet">

<g transform="translate(0.000000,225.000000) scale(0.100000,-0.100000)"
fill="#000000" stroke="none">
<path d="M917 2060 c-16 -13 -40 -20 -69 -20 -58 0 -230 -27 -298 -46 -163
-46 -291 -142 -325 -243 -31 -95 -8 -225 53 -294 14 -16 8 -25 -96 -130 -61
-63 -118 -130 -127 -150 -21 -50 -19 -143 4 -192 26 -56 752 -778 803 -800 52
-21 134 -19 188 6 33 15 135 110 387 362 219 217 346 338 352 332 22 -22 42
-141 51 -300 10 -174 15 -208 44 -262 22 -44 53 -63 103 -63 135 0 223 255
223 650 0 202 -21 308 -86 440 -39 78 -62 110 -134 181 -72 73 -101 94 -180
132 -116 56 -220 84 -365 99 l-110 11 -156 154 c-149 146 -158 153 -196 153
-25 0 -50 -8 -66 -20z m438 -580 l370 -370 -375 -375 c-292 -292 -380 -375
-400 -375 -19 0 -101 76 -366 343 -188 189 -347 353 -353 366 -12 21 -5 30
102 139 l115 116 51 -22 c114 -47 339 -92 461 -92 35 0 61 -6 78 -19 61 -42
135 -35 186 18 54 56 41 155 -25 204 -34 25 -109 26 -145 2 -24 -15 -41 -17
-123 -11 -97 6 -252 34 -305 55 l-30 12 189 189 c105 105 192 190 195 190 3 0
172 -167 375 -370z m-797 223 c-138 -138 -146 -141 -155 -61 -4 37 -1 49 21
75 15 17 48 42 74 54 42 21 151 56 177 58 5 1 -47 -56 -117 -126z m1158 -208
c72 -35 104 -58 152 -109 110 -118 152 -247 151 -463 l0 -128 -22 75 c-13 41
-34 96 -48 121 -23 41 -25 49 -13 70 7 13 13 39 14 58 0 31 -18 52 -197 234
-182 182 -195 199 -163 193 19 -4 76 -27 126 -51z m-561 -185 c8 -27 -1 -40
-29 -40 -33 0 -53 25 -36 45 18 22 57 19 65 -5z"/>
</g>
</svg>
