<?xml version="1.0" encoding="UTF-8"?>
<svg version="1.1" xmlns="http://www.w3.org/2000/svg" width="512" height="512">
<path d="M0 0 C1.17585663 -0.00686325 2.35171326 -0.0137265 3.5632019 -0.02079773 C7.41807434 -0.03896982 11.27253566 -0.03523898 15.12744141 -0.02954102 C17.15110035 -0.03202458 19.17474958 -0.03637395 21.19840491 -0.04089409 C27.55874656 -0.05488608 33.9189538 -0.05342763 40.27929688 -0.04199219 C46.77761216 -0.03056462 53.27551211 -0.04450781 59.7737726 -0.07138866 C65.40321554 -0.09377879 71.03253044 -0.10013005 76.6620146 -0.09431225 C80.0016455 -0.09099043 83.34080396 -0.09481541 86.68043137 -0.11056328 C106.40900449 -0.19044387 125.73152271 0.95809504 144.47900391 7.65405273 C145.33647217 7.95142334 146.19394043 8.24879395 147.07739258 8.55517578 C155.28982647 11.49282657 163.01893022 15.11097803 170.60400391 19.40405273 C171.26207031 19.77369141 171.92013672 20.14333008 172.59814453 20.52416992 C206.54059965 39.88940639 230.25904713 71.92587959 240.60400391 109.40405273 C246.18318723 131.54404819 246.56199956 155.11522819 241.60400391 177.40405273 C241.44303223 178.13994629 241.28206055 178.87583984 241.11621094 179.6340332 C237.44636302 195.769378 230.83905579 211.64201463 221.60400391 225.40405273 C224.55928452 227.69112304 227.61310363 229.69105805 230.79150391 231.65405273 C239.83466195 237.38698317 247.78673655 244.10552379 255.60400391 251.40405273 C256.41869141 252.15299805 257.23337891 252.90194336 258.07275391 253.67358398 C281.43811894 275.96680411 297.18308272 309.64460783 298.78100586 341.98657227 C299.49941818 386.53958512 289.11042258 423.75194611 257.60400391 456.40405273 C256.93884766 457.12077148 256.27369141 457.83749023 255.58837891 458.57592773 C232.30886341 483.02920031 195.53498356 499.32480403 161.88162899 500.53827381 C159.95296411 500.54468403 159.95296411 500.54468403 157.9853363 500.55122375 C156.90064996 500.55673879 156.90064996 500.55673879 155.79405075 500.56236523 C153.39402441 500.57329416 150.99404151 500.57722735 148.59399414 500.58105469 C146.86347825 500.58732753 145.13296369 500.59397504 143.40245056 500.60096741 C137.73917563 500.62191343 132.07590072 500.63236125 126.41259766 500.64233398 C124.45528716 500.64638514 122.4979768 500.65050217 120.54066658 500.65468407 C111.34148273 500.67371533 102.1423068 500.68795041 92.94310707 500.69629604 C82.35873799 500.70605951 71.77457852 500.73236457 61.19028324 500.77279693 C52.98613201 500.80305122 44.78204056 500.81777372 36.57783467 500.82107705 C31.68856382 500.82341693 26.79951744 500.8322383 21.91030693 500.85753822 C17.30467258 500.8809876 12.69940783 500.88498514 8.09372902 500.87477684 C6.41488788 500.87428544 4.73602747 500.88048731 3.05724335 500.89433289 C-17.33841392 501.05296745 -35.15167885 495.75627568 -50.39599609 481.40405273 C-55.61934447 476.04553453 -59.32202256 470.08620909 -62.70849609 463.46655273 C-63.03414551 462.83491211 -63.35979492 462.20327148 -63.6953125 461.55249023 C-68.95733751 450.76027669 -69.83427577 440.28416285 -69.78367615 428.44548035 C-69.7878551 426.8455381 -69.79333569 425.24559883 -69.79999596 423.64566499 C-69.81439576 419.27367609 -69.81022301 414.90187657 -69.80282915 410.52987754 C-69.79808616 405.80513312 -69.81061736 401.08042901 -69.82084656 396.35569763 C-69.83801816 387.10877483 -69.83887791 377.86192003 -69.83363365 368.61498543 C-69.82958742 361.09629119 -69.8310409 353.57761701 -69.83638191 346.05892372 C-69.83713033 344.98761607 -69.83787876 343.91630842 -69.83864986 342.8125369 C-69.84018138 340.63595801 -69.84171973 338.45937912 -69.84326483 336.28280023 C-69.85698412 315.88369298 -69.85155634 295.48462411 -69.84007961 275.08551774 C-69.8301494 256.43970796 -69.84308528 237.79399745 -69.8670138 219.14820298 C-69.89142026 199.98502652 -69.90100877 180.82189626 -69.89436108 161.65870458 C-69.8908721 150.90713159 -69.89307963 140.15563492 -69.91061211 129.40407372 C-69.92535347 120.25085425 -69.92594429 111.09776482 -69.9085412 101.94454785 C-69.9000445 97.2784666 -69.897849 92.61261745 -69.91319275 87.94654846 C-69.92708972 83.6673087 -69.92221282 79.38849882 -69.90295351 75.1092836 C-69.89920847 73.56899788 -69.90207191 72.02867731 -69.91256516 70.48842277 C-70.03989844 50.35087678 -63.62155568 32.98469649 -49.39599609 18.40405273 C-35.19579342 5.79714068 -18.84089771 -0.07840289 0 0 Z M10.60400391 81.40405273 C10.60400391 123.97405273 10.60400391 166.54405273 10.60400391 210.40405273 C24.97962891 210.44530273 39.35525391 210.48655273 54.16650391 210.52905273 C58.67636963 210.54726074 63.18623535 210.56546875 67.83276367 210.58422852 C71.93730775 210.59092454 71.93730775 210.59092454 76.04185486 210.59494019 C77.84537244 210.59797632 79.64888641 210.60493601 81.45237732 210.61520386 C106.09779897 210.74828991 127.23280559 208.08558847 145.97900391 190.52905273 C158.77251258 176.90059928 164.33244293 159.8254063 163.85009766 141.43139648 C163.15302364 126.83445847 157.1260191 114.30147012 147.60400391 103.40405273 C147.10642578 102.81237305 146.60884766 102.22069336 146.09619141 101.61108398 C135.98790503 90.51228713 121.28988612 83.70985997 106.60400391 81.40405273 C103.47693961 81.26392013 100.35359726 81.27775059 97.22387695 81.29052734 C95.79561821 81.29034654 95.79561821 81.29034654 94.33850574 81.29016209 C91.26422074 81.29090694 88.18999678 81.29851572 85.11572266 81.30639648 C83.21455922 81.30786723 81.31339537 81.30888712 79.41223145 81.30944824 C72.37198275 81.31468579 65.33174272 81.32864702 58.29150391 81.34155273 C42.55462891 81.36217773 26.81775391 81.38280273 10.60400391 81.40405273 Z M10.60400391 290.40405273 C10.60400391 332.97405273 10.60400391 375.54405273 10.60400391 419.40405273 C37.50438137 419.49150366 37.50438137 419.49150366 64.40478516 419.55053711 C75.37992576 419.56831502 86.35499709 419.58917705 97.33007812 419.63037109 C105.32435258 419.66036251 113.31857067 419.67964879 121.31289983 419.68631822 C125.54209326 419.69021404 129.77112549 419.69930866 134.00026703 419.7212429 C137.9893344 419.74176236 141.97817574 419.74785566 145.96729088 419.74337578 C147.42323985 419.74419412 148.8791972 419.7500671 150.33510017 419.76166916 C168.25454479 419.89733945 183.01023596 415.3400441 196.60400391 403.40405273 C197.61914062 402.53006836 197.61914062 402.53006836 198.65478516 401.63842773 C210.08909834 391.070014 217.07652136 376.44235307 218.04541016 360.95092773 C218.4011838 350.4721842 217.80923868 341.11482513 213.60400391 331.40405273 C213.25337891 330.54038086 212.90275391 329.67670898 212.54150391 328.78686523 C205.61016154 313.33574787 192.13128125 301.67615491 176.60400391 295.40405273 C163.53949351 290.83440336 151.14637548 290.25191673 137.41186523 290.29052734 C136.02109784 290.29081009 134.6303303 290.29064978 133.23956299 290.29008484 C129.49858478 290.28980026 125.75763924 290.29564169 122.01666856 290.3026588 C118.09425924 290.30894925 114.17184901 290.30950061 110.24943542 290.3106842 C102.83723265 290.31378084 95.42504479 290.32197156 88.01284856 290.33203369 C77.98583083 290.34534732 67.95880897 290.35070822 57.93178463 290.35653591 C42.15584657 290.36591272 26.37993997 290.38584273 10.60400391 290.40405273 Z " fill="#000000" transform="translate(141.39599609375,5.595947265625)"/>
</svg>
