<svg width="124" height="124" viewBox="0 0 124 124" fill="none" xmlns="http://www.w3.org/2000/svg">
<path d="M31 62H72.3333C77.8145 62 83.0711 59.8226 86.9469 55.9468C90.8226 52.0711 93 46.8144 93 41.3333C93 35.8522 90.8226 30.5955 86.9469 26.7198C83.0711 22.844 77.8145 20.6666 72.3333 20.6666H31V62ZM31 62H77.5C82.9811 62 88.2378 64.1773 92.1135 68.0531C95.9893 71.9288 98.1667 77.1855 98.1667 82.6666C98.1667 88.1478 95.9893 93.4044 92.1135 97.2802C88.2378 101.156 82.9811 103.333 77.5 103.333H31V62Z" stroke="#1E1E1E" stroke-width="4" stroke-linecap="round" stroke-linejoin="round"/>
</svg>
