<svg width="124" height="124" viewBox="0 0 124 124" fill="none" xmlns="http://www.w3.org/2000/svg">
<path d="M16.895 35.9599L62 62.0516L107.105 35.9599M62 114.08V61.9999M108.5 82.6666V41.3333C108.498 39.5212 108.02 37.7415 107.113 36.1726C106.206 34.6038 104.903 33.301 103.333 32.3949L67.1667 11.7283C65.5958 10.8213 63.8139 10.3439 62 10.3439C60.1861 10.3439 58.4042 10.8213 56.8333 11.7283L20.6667 32.3949C19.0974 33.301 17.7939 34.6038 16.8871 36.1726C15.9802 37.7415 15.5019 39.5212 15.5 41.3333V82.6666C15.5019 84.4787 15.9802 86.2584 16.8871 87.8273C17.7939 89.3961 19.0974 90.6989 20.6667 91.6049L56.8333 112.272C58.4042 113.179 60.1861 113.656 62 113.656C63.8139 113.656 65.5958 113.179 67.1667 112.272L103.333 91.6049C104.903 90.6989 106.206 89.3961 107.113 87.8273C108.02 86.2584 108.498 84.4787 108.5 82.6666Z" stroke="#1E1E1E" stroke-width="4" stroke-linecap="round" stroke-linejoin="round"/>
</svg>
