<?xml version="1.0" encoding="UTF-8"?>
<svg version="1.1" xmlns="http://www.w3.org/2000/svg" width="512" height="512">
<path d="M0 0 C28.38 0 56.76 0 86 0 C86 28.38 86 56.76 86 86 C114.05 86 142.1 86 171 86 C171 114.05 171 142.1 171 171 C199.38 171 227.76 171 257 171 C257 199.38 257 227.76 257 257 C228.62 257 200.24 257 171 257 C171 285.05 171 313.1 171 342 C142.95 342 114.9 342 86 342 C86 370.38 86 398.76 86 428 C57.62 428 29.24 428 0 428 C0 399.62 0 371.24 0 342 C-28.05 342 -56.1 342 -85 342 C-85 313.95 -85 285.9 -85 257 C-113.38 257 -141.76 257 -171 257 C-171 228.62 -171 200.24 -171 171 C-142.62 171 -114.24 171 -85 171 C-85 142.95 -85 114.9 -85 86 C-56.95 86 -28.9 86 0 86 C0 57.62 0 29.24 0 0 Z M1 86 C1 114.05 1 142.1 1 171 C28.72 171 56.44 171 85 171 C85 142.95 85 114.9 85 86 C57.28 86 29.56 86 1 86 Z M-85 172 C-85 199.72 -85 227.44 -85 256 C-56.95 256 -28.9 256 0 256 C0 228.28 0 200.56 0 172 C-28.05 172 -56.1 172 -85 172 Z M86 172 C86 199.72 86 227.44 86 256 C114.05 256 142.1 256 171 256 C171 228.28 171 200.56 171 172 C142.95 172 114.9 172 86 172 Z M1 257 C1 285.05 1 313.1 1 342 C28.72 342 56.44 342 85 342 C85 313.95 85 285.9 85 257 C57.28 257 29.56 257 1 257 Z " fill="#000000" transform="translate(213,42)"/>
<path d="M0 0 C28.38 0 56.76 0 86 0 C86 28.38 86 56.76 86 86 C57.62 86 29.24 86 0 86 C0 57.62 0 29.24 0 0 Z " fill="#000000" transform="translate(384,384)"/>
<path d="M0 0 C28.38 0 56.76 0 86 0 C86 28.38 86 56.76 86 86 C57.62 86 29.24 86 0 86 C0 57.62 0 29.24 0 0 Z " fill="#000000" transform="translate(42,384)"/>
<path d="M0 0 C28.38 0 56.76 0 86 0 C86 28.38 86 56.76 86 86 C57.62 86 29.24 86 0 86 C0 57.62 0 29.24 0 0 Z " fill="#000000" transform="translate(384,42)"/>
<path d="M0 0 C28.38 0 56.76 0 86 0 C86 28.38 86 56.76 86 86 C57.62 86 29.24 86 0 86 C0 57.62 0 29.24 0 0 Z " fill="#000000" transform="translate(42,42)"/>
</svg>
