<svg width="124" height="124" viewBox="0 0 124 124" fill="none" xmlns="http://www.w3.org/2000/svg">
<path d="M82.667 20.6667H93.0003C95.7409 20.6667 98.3692 21.7554 100.307 23.6933C102.245 25.6311 103.334 28.2595 103.334 31V103.333C103.334 106.074 102.245 108.702 100.307 110.64C98.3692 112.578 95.7409 113.667 93.0003 113.667H31.0003C28.2598 113.667 25.6314 112.578 23.6936 110.64C21.7557 108.702 20.667 106.074 20.667 103.333V31C20.667 28.2595 21.7557 25.6311 23.6936 23.6933C25.6314 21.7554 28.2598 20.6667 31.0003 20.6667H41.3337M46.5003 10.3334H77.5003C80.3538 10.3334 82.667 12.6466 82.667 15.5V25.8334C82.667 28.6868 80.3538 31 77.5003 31H46.5003C43.6469 31 41.3337 28.6868 41.3337 25.8334V15.5C41.3337 12.6466 43.6469 10.3334 46.5003 10.3334Z" stroke="#1E1E1E" stroke-width="4" stroke-linecap="round" stroke-linejoin="round"/>
</svg>
