<svg width="124" height="124" viewBox="0 0 124 124" fill="none" xmlns="http://www.w3.org/2000/svg">
<path d="M25.833 77.5H20.6663C17.9258 77.5 15.2974 76.4113 13.3596 74.4735C11.4217 72.5356 10.333 69.9073 10.333 67.1667V20.6667C10.333 17.9261 11.4217 15.2978 13.3596 13.3599C15.2974 11.4221 17.9258 10.3334 20.6663 10.3334H67.1663C69.9069 10.3334 72.5352 11.4221 74.4731 13.3599C76.411 15.2978 77.4997 17.9261 77.4997 20.6667V25.8334M56.833 46.5H103.333C109.04 46.5 113.666 51.1264 113.666 56.8334V103.333C113.666 109.04 109.04 113.667 103.333 113.667H56.833C51.1261 113.667 46.4997 109.04 46.4997 103.333V56.8334C46.4997 51.1264 51.1261 46.5 56.833 46.5Z" stroke="#1E1E1E" stroke-width="4" stroke-linecap="round" stroke-linejoin="round"/>
</svg>
