<?xml version="1.0" standalone="no"?>
<!DOCTYPE svg PUBLIC "-//W3C//DTD SVG 20010904//EN"
 "http://www.w3.org/TR/2001/REC-SVG-20010904/DTD/svg10.dtd">
<svg version="1.0" xmlns="http://www.w3.org/2000/svg"
 width="512.000000pt" height="512.000000pt" viewBox="0 0 512.000000 512.000000"
 preserveAspectRatio="xMidYMid meet">

<g transform="translate(0.000000,512.000000) scale(0.100000,-0.100000)"
fill="#000000" stroke="none">
<path d="M2175 4786 c-41 -18 -83 -69 -91 -111 -14 -77 0 -102 129 -233 l121
-122 -901 -903 c-991 -993 -938 -933 -970 -1096 -15 -73 -15 -88 -1 -159 32
-161 14 -140 627 -753 613 -613 592 -595 753 -627 71 -14 86 -14 159 1 164 32
95 -29 1171 1046 870 869 978 980 984 1014 17 94 72 33 -914 1021 -529 529
-920 914 -939 922 -40 17 -89 17 -128 0z m915 -1221 l525 -525 -1055 0 -1055
0 525 525 c289 289 527 525 530 525 3 0 241 -236 530 -525z m-280 -1649 c-885
-884 -839 -844 -932 -817 -37 11 -112 82 -565 534 -574 575 -561 558 -534 650
11 34 48 77 209 240 l196 197 1216 0 1215 0 -805 -804z"/>
<path d="M3935 2066 c-51 -22 -203 -199 -309 -360 -210 -319 -302 -640 -251
-881 60 -287 330 -505 625 -505 349 0 639 291 640 641 1 303 -189 703 -491
1033 -76 83 -140 105 -214 72z m140 -483 c112 -152 205 -369 235 -551 15 -92
7 -151 -33 -225 -34 -65 -66 -96 -141 -135 -43 -22 -64 -26 -136 -26 -78 -1
-90 2 -148 33 -96 52 -154 134 -168 238 -13 100 42 306 127 478 49 100 170
275 189 275 6 0 39 -39 75 -87z"/>
</g>
</svg>
