<?xml version="1.0" standalone="no"?>
<!DOCTYPE svg PUBLIC "-//W3C//DTD SVG 20010904//EN"
 "http://www.w3.org/TR/2001/REC-SVG-20010904/DTD/svg10.dtd">
<svg version="1.0" xmlns="http://www.w3.org/2000/svg"
 width="512.000000pt" height="512.000000pt" viewBox="0 0 512.000000 512.000000"
 preserveAspectRatio="xMidYMid meet">

<g transform="translate(0.000000,512.000000) scale(0.100000,-0.100000)"
fill="#000000" stroke="none">
<path d="M320 4525 l0 -275 275 0 275 0 0 275 0 275 -275 0 -275 0 0 -275z"/>
<path d="M4250 4525 l0 -275 275 0 275 0 0 275 0 275 -275 0 -275 0 0 -275z"/>
<path d="M1032 4523 l3 -78 54 -3 c96 -6 141 20 141 81 0 57 -32 77 -124 77
l-77 0 3 -77z"/>
<path d="M1502 4580 c-28 -26 -29 -79 -3 -111 19 -24 19 -24 256 -24 l237 0
25 29 c19 23 24 36 19 60 -12 64 -23 66 -280 66 -220 0 -233 -1 -254 -20z"/>
<path d="M2301 4574 c-23 -30 -27 -71 -8 -95 27 -35 53 -39 271 -39 l214 0 31
26 c37 31 41 69 10 108 l-20 26 -239 0 -239 0 -20 -26z"/>
<path d="M3111 4583 c-34 -29 -37 -74 -8 -109 l25 -29 237 0 c237 0 237 0 256
24 26 32 25 85 -3 111 -21 19 -34 20 -254 20 -206 0 -234 -2 -253 -17z"/>
<path d="M3912 4577 c-42 -45 -20 -117 41 -132 13 -4 48 -5 78 -3 l54 3 3 78
3 77 -79 0 c-69 0 -81 -3 -100 -23z"/>
<path d="M520 4012 c0 -69 3 -81 23 -100 45 -42 117 -20 132 41 4 13 5 48 3
78 l-3 54 -77 3 -78 3 0 -79z"/>
<path d="M4447 4083 c-13 -12 -7 -124 8 -152 24 -48 87 -57 123 -18 19 20 22
35 22 100 l0 77 -73 0 c-41 0 -77 -3 -80 -7z"/>
<path d="M540 3620 c-19 -19 -20 -33 -20 -254 0 -259 2 -270 66 -282 24 -5 37
0 60 19 l29 25 0 237 c0 237 0 237 -24 256 -31 25 -85 25 -111 -1z"/>
<path d="M4469 3621 c-24 -19 -24 -19 -24 -256 l0 -237 29 -25 c23 -19 36 -24
60 -19 64 12 66 23 66 280 0 220 -1 233 -20 254 -26 28 -79 29 -111 3z"/>
<path d="M2001 3473 c-24 -21 -641 -1719 -641 -1766 0 -35 40 -77 74 -77 51 0
72 35 149 250 l74 205 364 0 363 0 65 -208 c69 -217 85 -247 135 -247 29 0 65
27 77 56 7 20 -43 189 -262 881 -149 471 -275 866 -281 877 -25 47 -79 60
-117 29z m184 -758 c74 -237 138 -438 141 -447 5 -17 -14 -18 -300 -18 -168 0
-306 2 -306 4 0 5 300 839 315 879 4 10 9 16 11 15 2 -2 64 -197 139 -433z"/>
<path d="M546 2819 l-26 -20 0 -239 0 -239 26 -20 c39 -31 77 -27 108 10 l26
31 0 214 c0 218 -4 244 -39 271 -24 19 -65 15 -95 -8z"/>
<path d="M3145 2825 c-72 -15 -191 -67 -222 -97 -27 -25 -30 -73 -8 -105 26
-37 59 -37 144 1 42 20 101 41 130 47 147 31 292 -45 366 -193 57 -115 68
-108 -166 -108 -240 0 -308 -12 -399 -71 -64 -41 -114 -102 -142 -175 -69
-174 9 -386 170 -465 68 -33 208 -33 307 0 79 27 170 76 233 128 l42 34 0 -66
c0 -60 3 -69 29 -96 36 -36 73 -37 106 -4 l25 24 0 343 c0 382 -3 407 -65 535
-82 167 -271 286 -449 282 -22 0 -68 -7 -101 -14z m455 -696 l0 -80 -56 -60
c-108 -113 -242 -185 -364 -196 -103 -10 -170 43 -192 150 -23 111 34 210 144
248 45 15 86 18 261 19 l207 0 0 -81z"/>
<path d="M4479 2827 c-35 -27 -39 -53 -39 -267 0 -214 4 -240 39 -267 24 -19
65 -15 95 8 l26 20 0 239 0 239 -26 20 c-30 23 -71 27 -95 8z"/>
<path d="M563 2030 c-39 -16 -43 -39 -43 -277 0 -217 1 -230 20 -251 26 -28
79 -29 111 -3 24 19 24 19 24 256 l0 237 -28 24 c-30 25 -48 28 -84 14z"/>
<path d="M4474 2017 l-29 -25 0 -237 c0 -237 0 -237 24 -256 32 -26 85 -25
111 3 19 21 20 34 20 254 0 257 -2 268 -66 280 -24 5 -37 0 -60 -19z"/>
<path d="M542 1207 c-19 -20 -22 -35 -22 -101 l0 -77 78 3 77 3 3 54 c2 30 1
65 -3 78 -15 62 -91 84 -133 40z"/>
<path d="M4470 1210 c-25 -25 -32 -53 -28 -121 l3 -54 78 -3 77 -3 0 79 c0 69
-3 81 -23 100 -29 28 -80 29 -107 2z"/>
<path d="M320 595 l0 -275 275 0 275 0 0 275 0 275 -275 0 -275 0 0 -275z"/>
<path d="M4250 595 l0 -275 275 0 275 0 0 275 0 275 -275 0 -275 0 0 -275z"/>
<path d="M1037 673 c-4 -3 -7 -39 -7 -80 l0 -73 78 0 c69 0 81 3 100 23 37 39
28 98 -19 122 -28 15 -140 21 -152 8z"/>
<path d="M1523 670 c-46 -19 -59 -95 -21 -130 21 -19 34 -20 254 -20 257 0
268 2 280 66 5 24 0 37 -19 60 l-25 29 -224 2 c-122 1 -233 -2 -245 -7z"/>
<path d="M2325 668 c-49 -28 -59 -78 -24 -122 l20 -26 239 0 239 0 20 26 c35
45 24 96 -26 122 -30 16 -440 16 -468 0z"/>
<path d="M3133 670 c-34 -14 -56 -54 -48 -90 13 -57 26 -60 280 -60 219 0 232
1 253 20 28 26 29 79 3 111 -19 24 -21 24 -243 26 -122 1 -233 -2 -245 -7z"/>
<path d="M3935 669 c-51 -29 -61 -90 -22 -127 20 -19 35 -22 101 -22 l77 0 -3
78 -3 77 -65 2 c-36 2 -74 -2 -85 -8z"/>
</g>
</svg>
