<?xml version="1.0" encoding="UTF-8"?>
<svg version="1.1" xmlns="http://www.w3.org/2000/svg" width="512" height="512">
<path d="M0 0 C1.00416889 -0.00525911 1.00416889 -0.00525911 2.02862403 -0.01062447 C4.2699452 -0.01992208 6.5110056 -0.01501947 8.75233746 -0.01015663 C10.37627505 -0.01389372 12.00021084 -0.01849547 13.62414378 -0.02388728 C18.08545287 -0.03612542 22.54668702 -0.03585585 27.00800908 -0.03349853 C31.81999342 -0.03309057 36.63195368 -0.04412749 41.44392681 -0.05361366 C50.87098668 -0.07022897 60.29802154 -0.07572344 69.72509483 -0.07683842 C77.3874456 -0.07778861 85.04978811 -0.08189749 92.71213627 -0.08823967 C114.43408679 -0.10585331 136.15601755 -0.11507832 157.87797526 -0.11357872 C159.04909459 -0.11349881 160.22021392 -0.1134189 161.42682171 -0.11333656 C163.18564433 -0.11321392 163.18564433 -0.11321392 164.97999873 -0.1130888 C183.98515903 -0.1122758 202.99024008 -0.13141662 221.99537746 -0.1596133 C241.50754064 -0.18833391 261.01966518 -0.20215405 280.53185004 -0.20042574 C291.48734615 -0.19976157 302.44275919 -0.20526584 313.39823627 -0.22678185 C322.72555219 -0.24498276 332.05274737 -0.24934989 341.38007335 -0.235763 C346.13866569 -0.22922795 350.89702635 -0.22913558 355.65559673 -0.2464695 C360.01371624 -0.2621814 364.37141998 -0.25935588 368.72952922 -0.24190123 C370.30419861 -0.2388272 371.87889888 -0.24247897 373.45353184 -0.25362138 C383.31693873 -0.31878172 391.57413036 -0.10397136 399.00860882 7.00726891 C402.97973887 13.08076192 405.18490116 18.94084245 404.13360882 26.25726891 C402.45124877 32.82822591 399.60716827 37.91703757 393.69610882 41.50726891 C388.50326064 44.0581417 384.20068098 44.38261424 378.45273495 44.38869667 C377.79119636 44.3907493 377.12965777 44.39280194 376.44807255 44.39491677 C374.22769301 44.40057863 372.00737565 44.39913053 369.78699017 44.3977108 C368.18041626 44.4002949 366.57384299 44.40330818 364.96727061 44.4067142 C360.54932587 44.41478212 356.13139738 44.41657366 351.71344614 44.41731167 C346.9498501 44.41916257 342.18626249 44.42671006 337.42267132 44.43344688 C327.00534112 44.44702892 316.58801477 44.45305463 306.17067719 44.45745754 C299.66667951 44.46022 293.16268331 44.46445734 286.65868664 44.46896172 C268.65252685 44.48115386 250.64636826 44.49145351 232.64020443 44.49483681 C231.4877757 44.49505637 230.33534698 44.49527594 229.14799617 44.49550216 C227.99280609 44.49572044 226.83761601 44.49593871 225.64742017 44.49616361 C223.30655336 44.49660707 220.96568656 44.49705364 218.62481976 44.49750328 C217.4636683 44.49772471 216.30251684 44.49794614 215.10617897 44.49817428 C196.28850053 44.50212288 177.4708608 44.51957903 158.65319732 44.5428628 C139.33543204 44.56657255 120.01768618 44.57903847 100.69990611 44.58020473 C89.85283694 44.58112166 79.00581821 44.58687868 68.15876293 44.60502434 C58.92293562 44.62042017 49.68717435 44.6255488 40.45133665 44.61728624 C35.73936715 44.61337801 31.02753066 44.61431782 26.31557751 44.62834358 C22.00004201 44.64107188 17.68473962 44.6398944 13.36920449 44.62775287 C11.80998253 44.62579403 10.25074412 44.62888297 8.69154528 44.63759723 C-0.53539209 44.68589138 -8.66098459 44.49618856 -16.67889118 39.50726891 C-21.46843661 34.58087932 -23.59553682 29.39917954 -24.17889118 22.63226891 C-24.06732512 16.65232782 -22.14615694 10.93999569 -18.25310993 6.35883141 C-12.79086178 1.39315127 -7.35114471 0.00870511 0 0 Z " fill="#000000" transform="translate(65.8663911819458,290.74273109436035)"/>
<path d="M0 0 C0.67594437 -0.00320648 1.35188874 -0.00641296 2.04831627 -0.0097166 C4.31773842 -0.01803087 6.58689763 -0.01208741 8.8563242 -0.00622082 C10.49803563 -0.00924085 12.13974566 -0.01312958 13.78145319 -0.01781338 C18.29642331 -0.02812119 22.81131427 -0.0259045 27.32629097 -0.02163279 C32.19412942 -0.01917062 37.06194857 -0.02817336 41.92978001 -0.03567028 C51.46760113 -0.04843331 61.00539413 -0.05020899 70.54322236 -0.04787002 C78.29381844 -0.04608856 86.04440597 -0.04783279 93.79500103 -0.05209446 C95.44827701 -0.05298724 95.44827701 -0.05298724 97.1349525 -0.05389806 C99.37387645 -0.05510978 101.61280039 -0.05632392 103.85172433 -0.05754044 C124.85811632 -0.06842207 145.86449225 -0.06625048 166.87088514 -0.06015559 C186.09798378 -0.05498536 205.32503176 -0.06624359 224.55212038 -0.08525381 C244.28458899 -0.10461449 264.01703361 -0.11289136 283.74951178 -0.10913056 C294.83178344 -0.10721589 305.91401198 -0.10973195 316.9962759 -0.1238451 C326.43018747 -0.1357373 335.86402937 -0.13718809 345.29794186 -0.12505493 C350.11282377 -0.11915115 354.92757812 -0.11810811 359.74245167 -0.13005733 C364.14850508 -0.14086508 368.55432365 -0.137874 372.96036584 -0.12379565 C374.555871 -0.12113459 376.15139426 -0.1235592 377.74688172 -0.13153151 C379.91346366 -0.14160761 382.07922453 -0.1332421 384.24577332 -0.12025452 C386.05183458 -0.12033704 386.05183458 -0.12033704 387.89438194 -0.12042123 C394.71393008 0.65633252 398.51509175 4.13326081 402.70533848 9.21150684 C406.25541245 14.11042159 406.88832249 19.33327551 406.18580723 25.25447559 C404.83879738 31.17452727 401.92144619 36.38964628 397.18580723 40.25447559 C392.27457899 42.68393169 388.72334645 43.63000705 383.16234016 43.63479233 C382.48806405 43.63945225 381.81378793 43.64411217 381.1190792 43.64891329 C378.86724116 43.66083232 376.61600994 43.65148028 374.36416721 43.64215565 C372.7304027 43.64632993 371.09664108 43.65180796 369.46288484 43.65847546 C364.97906413 43.67293638 360.49542712 43.66868332 356.01159632 43.66130865 C351.17373941 43.65658091 346.33592247 43.66908332 341.49807835 43.67932606 C332.02268138 43.69652691 322.54735069 43.69735142 313.07194216 43.69211315 C305.37098793 43.68807274 297.67005329 43.68951348 289.9691 43.69486141 C288.32542274 43.69598405 288.32542274 43.69598405 286.64853988 43.69712936 C284.42250447 43.69866082 282.19646905 43.70019917 279.97043364 43.70174433 C259.09272561 43.71547393 238.21505504 43.71002835 217.33734786 43.69855911 C198.23457447 43.68862547 179.13189792 43.70156887 160.02913947 43.7254933 C140.41637391 43.74987152 120.80365349 43.75949537 101.19087309 43.75284058 C90.17897884 43.74934562 79.1671591 43.75159874 68.1552763 43.76909161 C58.78147055 43.78379755 49.40779176 43.78447001 40.03398854 43.76702069 C35.25121495 43.75849524 30.4686683 43.75639887 25.68590641 43.77167225 C21.30690075 43.7854832 16.92831726 43.7808026 12.54933625 43.76143301 C10.96596938 43.75766165 9.38256899 43.76062765 7.79923189 43.77104466 C-1.38830281 43.82718846 -8.47038535 43.6801385 -15.83763027 37.57869434 C-20.44721755 31.99656409 -22.3128373 26.67380157 -22.05638027 19.29353809 C-21.26282483 12.61231324 -18.46958871 8.35452183 -13.72825527 3.69978809 C-9.37653737 0.41379702 -5.35491173 0.00385547 0 0 Z " fill="#000000" transform="translate(63.81419277191162,63.745524406433105)"/>
<path d="M0 0 C0.91705459 -0.00384115 1.83410919 -0.00768229 2.77895331 -0.01163983 C3.77767848 -0.01077335 4.77640365 -0.00990687 5.80539322 -0.00901413 C6.87320597 -0.01198525 7.94101872 -0.01495637 9.04118943 -0.01801753 C12.62537936 -0.02670097 16.20953588 -0.02821248 19.7937355 -0.02970505 C22.36111904 -0.03433345 24.92850189 -0.03935814 27.49588394 -0.04475021 C34.47530667 -0.05831815 41.45472365 -0.06435579 48.43415737 -0.06876087 C52.79403111 -0.07152577 57.15390263 -0.07576357 61.51377487 -0.08026505 C73.59057221 -0.09245546 85.66736778 -0.10275538 97.74417114 -0.10614014 C98.51674563 -0.1063597 99.28932011 -0.10657927 100.08530594 -0.10680549 C100.85970268 -0.10702377 101.63409942 -0.10724204 102.43196273 -0.10746694 C104.00112136 -0.1079104 105.57028 -0.10835696 107.13943863 -0.10880661 C107.9177914 -0.10902804 108.69614417 -0.10924947 109.49808338 -0.10947761 C122.10790525 -0.11342496 134.7176693 -0.13087807 147.32746884 -0.15416613 C160.28100504 -0.17789547 173.23451225 -0.1903427 186.18807054 -0.19150805 C193.45810359 -0.1924239 200.72806131 -0.19815342 207.99807358 -0.21632767 C214.83691546 -0.23336411 221.67561225 -0.23496945 228.51446915 -0.22618866 C231.02306119 -0.22541768 233.53166089 -0.22976902 236.04023361 -0.23964691 C239.46798318 -0.25235157 242.8952252 -0.24649713 246.32297134 -0.23606491 C247.31277363 -0.24412132 248.30257591 -0.25217772 249.3223722 -0.26047826 C256.6213915 -0.20861826 262.87636135 0.98987065 269.13064957 4.88142776 C273.920195 9.80781735 276.0472952 14.98951713 276.63064957 21.75642776 C276.5190835 27.73636885 274.59791533 33.44870099 270.70486832 38.02986526 C264.03625648 44.09223966 257.22157008 44.42538189 248.55879593 44.3988533 C246.93129385 44.40564997 246.93129385 44.40564997 245.27091295 44.41258395 C241.63451561 44.42524623 237.99826769 44.42360637 234.36185074 44.42195511 C231.7549101 44.4279392 229.14797123 44.43474446 226.5410347 44.44231033 C220.19409684 44.45890628 213.84719613 44.46441924 207.50023838 44.46553509 C202.33979322 44.46648623 197.17936029 44.4705998 192.01891899 44.47693634 C177.38017008 44.49454488 162.74145047 44.50377581 148.1026909 44.50227539 C147.313907 44.50219548 146.52512311 44.50211557 145.71243668 44.50203323 C144.92268695 44.50195147 144.13293722 44.50186971 143.31925569 44.50178547 C130.52194425 44.50097267 117.72475054 44.52010985 104.92747315 44.54830997 C91.77953707 44.57705362 78.63165838 44.59084945 65.48369008 44.58912241 C58.10522413 44.58845903 50.7268816 44.59392882 43.34844398 44.61547852 C36.40859289 44.63561776 29.46900635 44.63500147 22.52914238 44.62044525 C19.98346069 44.61835312 17.43776279 44.62308203 14.89210892 44.63516617 C11.4139175 44.65060639 7.93662623 44.64131731 4.45845413 44.62590408 C2.9514282 44.64133477 2.9514282 44.64133477 1.4139573 44.65707719 C-6.49122749 44.57979353 -12.7533249 42.9326261 -18.55685043 37.38142776 C-22.52798048 31.30793475 -24.73314278 25.44785422 -23.68185043 18.13142776 C-21.99949038 11.56047076 -19.15540988 6.4716591 -13.24435043 2.88142776 C-8.75180005 0.67456091 -4.96600483 0.00784436 0 0 Z " fill="#000000" transform="translate(129.6818504333496,176.86857223510742)"/>
<path d="M0 0 C1.64209272 -0.00807831 1.64209272 -0.00807831 3.31735903 -0.01631981 C6.98069484 -0.03061195 10.64366996 -0.02349233 14.30702209 -0.01637268 C16.93543793 -0.02207555 19.56385129 -0.02903949 22.19226074 -0.03717041 C28.58754264 -0.05434781 34.98272625 -0.05520066 41.37802523 -0.04995751 C46.57707539 -0.0459127 51.77609655 -0.04736305 56.97514534 -0.05270576 C57.71568394 -0.05345419 58.45622254 -0.05420261 59.2192017 -0.05497371 C60.72370112 -0.05650522 62.22820053 -0.05804357 63.73269994 -0.05958868 C77.83471833 -0.07330981 91.93668121 -0.06787869 106.03869832 -0.05640347 C118.93362426 -0.04647084 131.82840672 -0.05941291 144.72331052 -0.08333766 C157.97185108 -0.10773288 171.22032482 -0.11733553 184.46888739 -0.11068493 C191.90374872 -0.10719373 199.33849971 -0.10941824 206.77334404 -0.12693596 C213.76410485 -0.14320339 220.75458719 -0.13846971 227.74534035 -0.11963081 C230.31078921 -0.1159399 232.8762583 -0.11906792 235.44168854 -0.1295166 C238.94427173 -0.14269294 242.44594245 -0.13120729 245.94848633 -0.11352539 C247.47053119 -0.1279329 247.47053119 -0.1279329 249.02332443 -0.14263147 C256.2025295 -0.06808463 261.48638025 1.44650016 267.06117249 6.0634613 C271.67075976 11.64559156 273.53637952 16.96835408 273.27992249 24.34861755 C272.48636704 31.02984241 269.69313092 35.28763381 264.95179749 39.94236755 C261.29591236 42.70293387 257.75477501 43.63733577 253.22256565 43.64215565 C251.80240787 43.65090394 251.80240787 43.65090394 250.35356003 43.65982896 C249.32166092 43.65604964 248.2897618 43.65227031 247.22659302 43.64837646 C245.57269622 43.65411479 245.57269622 43.65411479 243.88538736 43.65996903 C240.18359889 43.67030382 236.48196539 43.66630592 232.78016663 43.66233826 C230.12909428 43.66668445 227.47803337 43.67180266 224.82696533 43.67782593 C218.36926475 43.69057674 211.91160574 43.69236616 205.45389468 43.69002566 C200.20520443 43.68824283 194.9565268 43.68999139 189.70783806 43.69425011 C188.58743144 43.69514289 188.58743144 43.69514289 187.44439034 43.69605371 C185.92700239 43.69726546 184.40961445 43.69847959 182.89222651 43.69969609 C168.66152792 43.71057302 154.43085303 43.70840836 140.2001531 43.70231124 C127.18091022 43.69714148 114.16174214 43.70839879 101.14251406 43.72740946 C87.774273 43.74678012 74.40606736 43.75504525 61.03781217 43.75128621 C53.53257914 43.74937305 46.02740978 43.75187292 38.52218819 43.76600075 C32.13320284 43.77790567 25.74432037 43.77932944 19.35533363 43.76721058 C16.09582407 43.76131567 12.83654195 43.76186223 9.57703781 43.77221298 C6.04313636 43.78262728 2.50974345 43.77462203 -1.0241394 43.76190186 C-2.0538078 43.76927614 -3.08347619 43.77665043 -4.14434665 43.78424817 C-10.56405791 43.73551748 -15.05685564 42.98813233 -20.00914001 38.5556488 C-24.95700032 32.80205895 -27.46267941 28.31591881 -27.20835876 20.4618988 C-26.40999381 13.73282279 -23.23521889 7.69102051 -17.96226501 3.38768005 C-11.91960217 0.14859545 -6.77909487 -0.04006448 0 0 Z " fill="#000000" transform="translate(132.96226501464844,404.61231994628906)"/>
</svg>
