<?xml version="1.0" encoding="UTF-8"?>
<svg version="1.1" xmlns="http://www.w3.org/2000/svg" width="512" height="512">
<path d="M0 0 C1.78312088 -0.01496269 1.78312088 -0.01496269 3.6022644 -0.03022766 C5.55354752 -0.03122467 5.55354752 -0.03122467 7.54425049 -0.03224182 C8.93086187 -0.03986512 10.31746904 -0.04829292 11.70407104 -0.0574646 C15.46872225 -0.07940294 19.23329223 -0.08820787 22.99800014 -0.09329104 C25.35194039 -0.09693618 27.70585942 -0.10317713 30.05979156 -0.11029243 C38.27760247 -0.13478708 46.49535027 -0.14783833 54.7131958 -0.15138245 C62.36362037 -0.15501515 70.01364313 -0.18489112 77.66394496 -0.22678703 C84.23905708 -0.26152755 90.81403631 -0.27693155 97.38923955 -0.27762848 C101.31317624 -0.27842019 105.23670379 -0.28710879 109.16054535 -0.31562614 C112.85434634 -0.34187098 116.54740094 -0.3439771 120.2412529 -0.3279705 C122.23405409 -0.32530165 124.22684115 -0.34729723 126.21951294 -0.37016296 C134.51423903 -0.30267551 139.66248389 0.96089706 145.69364548 6.71688175 C150.07078363 11.51613796 151.70112545 16.59699135 151.49053955 23.06321716 C150.49436377 30.20037527 147.67879499 35.63397805 142.06085205 40.11790466 C137.92590476 42.66248761 134.40158537 43.52344036 129.56549072 43.50120544 C128.46472702 43.50105438 127.36396332 43.50090332 126.22984314 43.50074768 C124.46396599 43.48526382 124.46396599 43.48526382 122.66241455 43.46946716 C121.44870682 43.46663727 120.23499908 43.46380737 118.98451233 43.46089172 C115.11272269 43.44970775 111.24116539 43.42460597 107.3694458 43.39915466 C104.74249602 43.38912258 102.11554261 43.37999713 99.48858643 43.37181091 C93.05296044 43.34977421 86.61746972 43.31631407 80.1819458 43.27415466 C80.02416153 43.83519394 79.86637726 44.39623322 79.70381165 44.97427368 C77.52423171 52.49516143 74.85401269 59.80535289 72.11553955 67.13743591 C71.60851568 68.50181355 71.10173749 69.8662825 70.59518433 71.23083496 C69.22693604 74.91379506 67.85451032 78.59518515 66.48109818 82.27622223 C65.611953 84.60674585 64.74401973 86.9377172 63.87649536 89.2688446 C54.31985846 114.94820945 44.6811638 140.59640097 35.00567627 166.23118591 C33.91858502 169.1113888 32.83150281 171.9915951 31.7444458 174.87181091 C31.47512363 175.58536869 31.20580147 176.29892647 30.92831802 177.03410721 C24.79135134 193.29535895 18.68543283 209.56821629 12.585289 225.84331131 C11.74925988 228.07381086 10.91315346 230.30428143 10.07702637 232.53474426 C6.70320986 241.53492632 3.33019626 250.53540914 -0.0425415 259.53599548 C-4.74263192 272.07879203 -9.44312614 284.62143711 -14.14491749 297.16359615 C-15.94795129 301.97333424 -17.75045479 306.7832706 -19.55252838 311.59336853 C-20.66276112 314.55647584 -21.77344812 317.51941273 -22.88425827 320.48230362 C-23.3989916 321.85554982 -23.91353546 323.22886705 -24.42787552 324.60226059 C-25.13172681 326.48160782 -25.83632274 328.36067612 -26.54095459 330.23973083 C-26.93472794 331.29053329 -27.32850128 332.34133575 -27.73420715 333.42398071 C-28.73390037 336.05285679 -29.76448698 338.6664685 -30.8180542 341.27415466 C-29.70881592 341.2532074 -28.59957764 341.23226013 -27.45672607 341.2106781 C-23.31200241 341.13786999 -19.16733444 341.09220771 -15.02215576 341.0544281 C-13.23364736 341.03440507 -11.44520366 341.00717812 -9.65692139 340.97239685 C-7.07505258 340.92346511 -4.4940547 340.90109302 -1.9118042 340.88352966 C-0.7269342 340.85256195 -0.7269342 340.85256195 0.48187256 340.82096863 C7.67297247 340.81811063 12.84704484 342.99114039 17.9944458 348.02415466 C21.99115779 353.96212676 24.38980453 359.98582531 23.1819458 367.27415466 C21.037687 374.76629702 17.02949444 379.34147127 10.43424606 383.33148289 C7.61673498 384.5107165 5.41794943 384.53456119 2.3638916 384.54830933 C1.17514435 384.55828445 -0.01360291 384.56825958 -1.2383728 384.57853699 C-3.18965591 384.579534 -3.18965591 384.579534 -5.18035889 384.58055115 C-6.56697027 384.58817445 -7.95357743 384.59660224 -9.34017944 384.60577393 C-13.10483065 384.62771227 -16.86940063 384.6365172 -20.63410854 384.64160037 C-22.98804879 384.6452455 -25.34196781 384.65148645 -27.69589996 384.65860176 C-35.91371086 384.6830964 -44.13145867 384.69614765 -52.3493042 384.69969177 C-59.99972877 384.70332447 -67.64975153 384.73320045 -75.30005336 384.77509636 C-81.87516547 384.80983687 -88.45014471 384.82524088 -95.02534795 384.82593781 C-98.94928464 384.82672951 -102.87281219 384.83541812 -106.79665375 384.86393547 C-110.49045474 384.89018031 -114.18350934 384.89228643 -117.8773613 384.87627983 C-119.87016249 384.87361098 -121.86294955 384.89560656 -123.85562134 384.91847229 C-132.15034743 384.85098484 -137.29859229 383.58741226 -143.32975388 377.83142757 C-147.70689203 373.03217136 -149.33723385 367.95131797 -149.12664795 361.48509216 C-148.13047217 354.34793405 -145.31490339 348.91433128 -139.69696045 344.43040466 C-135.56201316 341.88582172 -132.03769377 341.02486896 -127.20159912 341.04710388 C-126.10083542 341.04725494 -125.00007172 341.04740601 -123.86595154 341.04756165 C-122.10007439 341.0630455 -122.10007439 341.0630455 -120.29852295 341.07884216 C-118.47796135 341.08308701 -118.47796135 341.08308701 -116.62062073 341.0874176 C-112.74883108 341.09860158 -108.87727379 341.12370336 -105.0055542 341.14915466 C-102.37860442 341.15918675 -99.75165101 341.1683122 -97.12469482 341.17649841 C-90.68906884 341.19853512 -84.25357812 341.23199525 -77.8180542 341.27415466 C-77.6623999 340.71696747 -77.50674561 340.15978027 -77.34637451 339.58570862 C-75.13716281 331.93656343 -72.38193034 324.522256 -69.5680542 317.07884216 C-69.04126851 315.67784071 -68.51478778 314.27672456 -67.98858643 312.87550354 C-66.86049546 309.87338558 -65.73035774 306.87204952 -64.59857178 303.87132263 C-62.78497564 299.06282635 -60.9759775 294.25260821 -59.16766357 289.44212341 C-56.95864101 283.56651546 -54.74858564 277.69129815 -52.53716278 271.81659317 C-48.6755549 261.55779227 -44.82203658 251.29597982 -40.9743042 241.03196716 C-40.69866135 240.29668667 -40.42301849 239.56140617 -40.13902283 238.80384445 C-38.7530165 235.10651572 -37.36716496 231.409129 -35.98138428 227.7117157 C-33.45957984 220.98349751 -30.93638513 214.25580066 -28.41331482 207.5280571 C-27.00650619 203.77677694 -25.59978453 200.02546418 -24.1930542 196.27415466 C-23.63055462 194.77415451 -23.06805462 193.27415451 -22.5055542 191.77415466 C-22.2271167 191.03165466 -21.9486792 190.28915466 -21.6618042 189.52415466 C-3.3805542 140.77415466 14.9006958 92.02415466 33.1819458 43.27415466 C32.07270752 43.29510193 30.96346924 43.31604919 29.82061768 43.33763123 C25.67589401 43.41043933 21.53122604 43.45610162 17.38604736 43.49388123 C15.59753896 43.51390425 13.80909526 43.54113121 12.02081299 43.57591248 C9.43894418 43.62484421 6.8579463 43.64721631 4.2756958 43.66477966 C3.09082581 43.69574738 3.09082581 43.69574738 1.88201904 43.7273407 C-5.30908087 43.73019869 -10.48315324 41.55716894 -15.6305542 36.52415466 C-19.62726619 30.58618257 -22.02591292 24.56248401 -20.8180542 17.27415466 C-18.6737954 9.7820123 -14.66560284 5.20683805 -8.07035446 1.21682644 C-5.25284338 0.03759282 -3.05405782 0.01374814 0 0 Z " fill="#000000" transform="translate(254.81805419921875,63.72584533691406)"/>
</svg>
