<?xml version="1.0" encoding="UTF-8"?>
<svg version="1.1" xmlns="http://www.w3.org/2000/svg" width="512" height="512">
<path d="M0 0 C0.66406109 -0.00205263 1.32812218 -0.00410527 2.01230633 -0.0062201 C4.24727839 -0.01189433 6.4821889 -0.01043233 8.7171669 -0.00901413 C10.33184005 -0.01159752 11.94651255 -0.01461061 13.56118417 -0.01801753 C18.006122 -0.0260938 22.45104369 -0.02787745 26.89598799 -0.028615 C31.68684924 -0.03046445 36.4777021 -0.03801123 41.2685585 -0.04475021 C51.74786228 -0.05833837 62.22716223 -0.06435897 72.70647335 -0.06876087 C79.24814752 -0.0715224 85.78982021 -0.07575958 92.33149338 -0.08026505 C110.43883929 -0.09245819 128.54618401 -0.10275751 146.65353394 -0.10614014 C148.39225988 -0.10646949 148.39225988 -0.10646949 150.1661116 -0.10680549 C151.32805514 -0.10702377 152.48999868 -0.10724204 153.68715262 -0.10746694 C156.04174153 -0.1079104 158.39633044 -0.10835697 160.75091934 -0.10880661 C161.91887984 -0.10902804 163.08684034 -0.10924947 164.29019359 -0.10947761 C183.21854201 -0.11342626 202.14685195 -0.13088213 221.07518551 -0.15416613 C240.5025255 -0.17787134 259.92984617 -0.1903416 279.35720086 -0.19150805 C290.26741013 -0.19242527 301.17756927 -0.19818921 312.08776474 -0.21632767 C321.37744354 -0.23171741 330.66705671 -0.23685576 339.95674583 -0.22858956 C344.69693791 -0.22467912 349.43699775 -0.22563193 354.17717361 -0.23964691 C358.51736861 -0.25236201 362.85733168 -0.25120937 367.19752625 -0.2390562 C368.76685444 -0.23709506 370.33619892 -0.24019688 371.9055042 -0.24890056 C380.99035285 -0.29609305 388.28630001 -0.12792872 396.1581459 4.88142776 C401.06522814 9.78851 403.20189979 15.03773608 403.6581459 21.88142776 C403.55930662 27.77883857 401.88821519 32.37134537 398.0956459 36.88142776 C391.48479715 42.41609184 387.33026926 44.25389931 378.81629181 44.26285553 C378.15223072 44.26490816 377.48816963 44.2669608 376.80398548 44.26907563 C374.56901342 44.27474986 372.33410291 44.27328786 370.09912491 44.27186966 C368.48445176 44.27445305 366.86977926 44.27746614 365.25510764 44.28087306 C360.81016981 44.28894933 356.36524812 44.29073298 351.92030382 44.29147053 C347.12944257 44.29331998 342.33858971 44.30086676 337.54773331 44.30760574 C327.06842953 44.3211939 316.58912958 44.3272145 306.10981846 44.3316164 C299.56814429 44.33437793 293.0264716 44.33861511 286.48479843 44.34312057 C268.37745252 44.35531372 250.2701078 44.36561304 232.16275787 44.36899567 C230.42403193 44.36932502 230.42403193 44.36932502 228.65018021 44.36966102 C227.48823667 44.3698793 226.32629313 44.37009757 225.12913918 44.37032247 C222.77455028 44.37076593 220.41996137 44.3712125 218.06537247 44.37166214 C216.89741197 44.37188357 215.72945147 44.372105 214.52609822 44.37233314 C195.5977498 44.37628179 176.66943986 44.39373766 157.7411063 44.41702166 C138.31376631 44.44072687 118.88644564 44.45319713 99.45909095 44.45436358 C88.54888167 44.4552808 77.63872254 44.46104474 66.72852707 44.4791832 C57.43884827 44.49457294 48.1492351 44.49971128 38.85954598 44.49144509 C34.1193539 44.48753465 29.37929405 44.48848746 24.63911819 44.50250244 C20.2989232 44.51521754 15.95896013 44.5140649 11.61876556 44.50191173 C10.04943737 44.49995059 8.48009289 44.50305241 6.91078761 44.51175609 C-2.17406104 44.55894858 -9.4700082 44.39078425 -17.3418541 39.38142776 C-22.24893633 34.47434553 -24.38560798 29.22511945 -24.8418541 22.38142776 C-24.74269959 15.72568142 -22.31030278 9.84987645 -17.5918541 5.13142776 C-11.71599795 1.06775155 -7.0429566 0.00740879 0 0 Z " fill="#000000" transform="translate(66.59185409545898,425.8685722351074)"/>
<path d="M0 0 C0.66406109 -0.00205263 1.32812218 -0.00410527 2.01230633 -0.0062201 C4.24727839 -0.01189433 6.4821889 -0.01043233 8.7171669 -0.00901413 C10.33184005 -0.01159752 11.94651255 -0.01461061 13.56118417 -0.01801753 C18.006122 -0.0260938 22.45104369 -0.02787745 26.89598799 -0.028615 C31.68684924 -0.03046445 36.4777021 -0.03801123 41.2685585 -0.04475021 C51.74786228 -0.05833837 62.22716223 -0.06435897 72.70647335 -0.06876087 C79.24814752 -0.0715224 85.78982021 -0.07575958 92.33149338 -0.08026505 C110.43883929 -0.09245819 128.54618401 -0.10275751 146.65353394 -0.10614014 C148.39225988 -0.10646949 148.39225988 -0.10646949 150.1661116 -0.10680549 C151.32805514 -0.10702377 152.48999868 -0.10724204 153.68715262 -0.10746694 C156.04174153 -0.1079104 158.39633044 -0.10835697 160.75091934 -0.10880661 C161.91887984 -0.10902804 163.08684034 -0.10924947 164.29019359 -0.10947761 C183.21854201 -0.11342626 202.14685195 -0.13088213 221.07518551 -0.15416613 C240.5025255 -0.17787134 259.92984617 -0.1903416 279.35720086 -0.19150805 C290.26741013 -0.19242527 301.17756927 -0.19818921 312.08776474 -0.21632767 C321.37744354 -0.23171741 330.66705671 -0.23685576 339.95674583 -0.22858956 C344.69693791 -0.22467912 349.43699775 -0.22563193 354.17717361 -0.23964691 C358.51736861 -0.25236201 362.85733168 -0.25120937 367.19752625 -0.2390562 C368.76685444 -0.23709506 370.33619892 -0.24019688 371.9055042 -0.24890056 C380.99035285 -0.29609305 388.28630001 -0.12792872 396.1581459 4.88142776 C401.06522814 9.78851 403.20189979 15.03773608 403.6581459 21.88142776 C403.55930662 27.77883857 401.88821519 32.37134537 398.0956459 36.88142776 C391.48479715 42.41609184 387.33026926 44.25389931 378.81629181 44.26285553 C378.15223072 44.26490816 377.48816963 44.2669608 376.80398548 44.26907563 C374.56901342 44.27474986 372.33410291 44.27328786 370.09912491 44.27186966 C368.48445176 44.27445305 366.86977926 44.27746614 365.25510764 44.28087306 C360.81016981 44.28894933 356.36524812 44.29073298 351.92030382 44.29147053 C347.12944257 44.29331998 342.33858971 44.30086676 337.54773331 44.30760574 C327.06842953 44.3211939 316.58912958 44.3272145 306.10981846 44.3316164 C299.56814429 44.33437793 293.0264716 44.33861511 286.48479843 44.34312057 C268.37745252 44.35531372 250.2701078 44.36561304 232.16275787 44.36899567 C230.42403193 44.36932502 230.42403193 44.36932502 228.65018021 44.36966102 C227.48823667 44.3698793 226.32629313 44.37009757 225.12913918 44.37032247 C222.77455028 44.37076593 220.41996137 44.3712125 218.06537247 44.37166214 C216.89741197 44.37188357 215.72945147 44.372105 214.52609822 44.37233314 C195.5977498 44.37628179 176.66943986 44.39373766 157.7411063 44.41702166 C138.31376631 44.44072687 118.88644564 44.45319713 99.45909095 44.45436358 C88.54888167 44.4552808 77.63872254 44.46104474 66.72852707 44.4791832 C57.43884827 44.49457294 48.1492351 44.49971128 38.85954598 44.49144509 C34.1193539 44.48753465 29.37929405 44.48848746 24.63911819 44.50250244 C20.2989232 44.51521754 15.95896013 44.5140649 11.61876556 44.50191173 C10.04943737 44.49995059 8.48009289 44.50305241 6.91078761 44.51175609 C-2.17406104 44.55894858 -9.4700082 44.39078425 -17.3418541 39.38142776 C-22.24893633 34.47434553 -24.38560798 29.22511945 -24.8418541 22.38142776 C-24.74269959 15.72568142 -22.31030278 9.84987645 -17.5918541 5.13142776 C-11.71599795 1.06775155 -7.0429566 0.00740879 0 0 Z " fill="#000000" transform="translate(66.59185409545898,297.8685722351074)"/>
<path d="M0 0 C0.66406109 -0.00205263 1.32812218 -0.00410527 2.01230633 -0.0062201 C4.24727839 -0.01189433 6.4821889 -0.01043233 8.7171669 -0.00901413 C10.33184005 -0.01159752 11.94651255 -0.01461061 13.56118417 -0.01801753 C18.006122 -0.0260938 22.45104369 -0.02787745 26.89598799 -0.028615 C31.68684924 -0.03046445 36.4777021 -0.03801123 41.2685585 -0.04475021 C51.74786228 -0.05833837 62.22716223 -0.06435897 72.70647335 -0.06876087 C79.24814752 -0.0715224 85.78982021 -0.07575958 92.33149338 -0.08026505 C110.43883929 -0.09245819 128.54618401 -0.10275751 146.65353394 -0.10614014 C148.39225988 -0.10646949 148.39225988 -0.10646949 150.1661116 -0.10680549 C151.32805514 -0.10702377 152.48999868 -0.10724204 153.68715262 -0.10746694 C156.04174153 -0.1079104 158.39633044 -0.10835697 160.75091934 -0.10880661 C161.91887984 -0.10902804 163.08684034 -0.10924947 164.29019359 -0.10947761 C183.21854201 -0.11342626 202.14685195 -0.13088213 221.07518551 -0.15416613 C240.5025255 -0.17787134 259.92984617 -0.1903416 279.35720086 -0.19150805 C290.26741013 -0.19242527 301.17756927 -0.19818921 312.08776474 -0.21632767 C321.37744354 -0.23171741 330.66705671 -0.23685576 339.95674583 -0.22858956 C344.69693791 -0.22467912 349.43699775 -0.22563193 354.17717361 -0.23964691 C358.51736861 -0.25236201 362.85733168 -0.25120937 367.19752625 -0.2390562 C368.76685444 -0.23709506 370.33619892 -0.24019688 371.9055042 -0.24890056 C380.99035285 -0.29609305 388.28630001 -0.12792872 396.1581459 4.88142776 C401.06522814 9.78851 403.20189979 15.03773608 403.6581459 21.88142776 C403.55930662 27.77883857 401.88821519 32.37134537 398.0956459 36.88142776 C391.48479715 42.41609184 387.33026926 44.25389931 378.81629181 44.26285553 C378.15223072 44.26490816 377.48816963 44.2669608 376.80398548 44.26907563 C374.56901342 44.27474986 372.33410291 44.27328786 370.09912491 44.27186966 C368.48445176 44.27445305 366.86977926 44.27746614 365.25510764 44.28087306 C360.81016981 44.28894933 356.36524812 44.29073298 351.92030382 44.29147053 C347.12944257 44.29331998 342.33858971 44.30086676 337.54773331 44.30760574 C327.06842953 44.3211939 316.58912958 44.3272145 306.10981846 44.3316164 C299.56814429 44.33437793 293.0264716 44.33861511 286.48479843 44.34312057 C268.37745252 44.35531372 250.2701078 44.36561304 232.16275787 44.36899567 C230.42403193 44.36932502 230.42403193 44.36932502 228.65018021 44.36966102 C227.48823667 44.3698793 226.32629313 44.37009757 225.12913918 44.37032247 C222.77455028 44.37076593 220.41996137 44.3712125 218.06537247 44.37166214 C216.89741197 44.37188357 215.72945147 44.372105 214.52609822 44.37233314 C195.5977498 44.37628179 176.66943986 44.39373766 157.7411063 44.41702166 C138.31376631 44.44072687 118.88644564 44.45319713 99.45909095 44.45436358 C88.54888167 44.4552808 77.63872254 44.46104474 66.72852707 44.4791832 C57.43884827 44.49457294 48.1492351 44.49971128 38.85954598 44.49144509 C34.1193539 44.48753465 29.37929405 44.48848746 24.63911819 44.50250244 C20.2989232 44.51521754 15.95896013 44.5140649 11.61876556 44.50191173 C10.04943737 44.49995059 8.48009289 44.50305241 6.91078761 44.51175609 C-2.17406104 44.55894858 -9.4700082 44.39078425 -17.3418541 39.38142776 C-22.24893633 34.47434553 -24.38560798 29.22511945 -24.8418541 22.38142776 C-24.74269959 15.72568142 -22.31030278 9.84987645 -17.5918541 5.13142776 C-11.71599795 1.06775155 -7.0429566 0.00740879 0 0 Z " fill="#000000" transform="translate(66.59185409545898,169.86857223510742)"/>
<path d="M0 0 C0.66406109 -0.00205263 1.32812218 -0.00410527 2.01230633 -0.0062201 C4.24727839 -0.01189433 6.4821889 -0.01043233 8.7171669 -0.00901413 C10.33184005 -0.01159752 11.94651255 -0.01461061 13.56118417 -0.01801753 C18.006122 -0.0260938 22.45104369 -0.02787745 26.89598799 -0.028615 C31.68684924 -0.03046445 36.4777021 -0.03801123 41.2685585 -0.04475021 C51.74786228 -0.05833837 62.22716223 -0.06435897 72.70647335 -0.06876087 C79.24814752 -0.0715224 85.78982021 -0.07575958 92.33149338 -0.08026505 C110.43883929 -0.09245819 128.54618401 -0.10275751 146.65353394 -0.10614014 C148.39225988 -0.10646949 148.39225988 -0.10646949 150.1661116 -0.10680549 C151.32805514 -0.10702377 152.48999868 -0.10724204 153.68715262 -0.10746694 C156.04174153 -0.1079104 158.39633044 -0.10835697 160.75091934 -0.10880661 C161.91887984 -0.10902804 163.08684034 -0.10924947 164.29019359 -0.10947761 C183.21854201 -0.11342626 202.14685195 -0.13088213 221.07518551 -0.15416613 C240.5025255 -0.17787134 259.92984617 -0.1903416 279.35720086 -0.19150805 C290.26741013 -0.19242527 301.17756927 -0.19818921 312.08776474 -0.21632767 C321.37744354 -0.23171741 330.66705671 -0.23685576 339.95674583 -0.22858956 C344.69693791 -0.22467912 349.43699775 -0.22563193 354.17717361 -0.23964691 C358.51736861 -0.25236201 362.85733168 -0.25120937 367.19752625 -0.2390562 C368.76685444 -0.23709506 370.33619892 -0.24019688 371.9055042 -0.24890056 C380.99035285 -0.29609305 388.28630001 -0.12792872 396.1581459 4.88142776 C401.06522814 9.78851 403.20189979 15.03773608 403.6581459 21.88142776 C403.55930662 27.77883857 401.88821519 32.37134537 398.0956459 36.88142776 C391.48479715 42.41609184 387.33026926 44.25389931 378.81629181 44.26285553 C378.15223072 44.26490816 377.48816963 44.2669608 376.80398548 44.26907563 C374.56901342 44.27474986 372.33410291 44.27328786 370.09912491 44.27186966 C368.48445176 44.27445305 366.86977926 44.27746614 365.25510764 44.28087306 C360.81016981 44.28894933 356.36524812 44.29073298 351.92030382 44.29147053 C347.12944257 44.29331998 342.33858971 44.30086676 337.54773331 44.30760574 C327.06842953 44.3211939 316.58912958 44.3272145 306.10981846 44.3316164 C299.56814429 44.33437793 293.0264716 44.33861511 286.48479843 44.34312057 C268.37745252 44.35531372 250.2701078 44.36561304 232.16275787 44.36899567 C230.42403193 44.36932502 230.42403193 44.36932502 228.65018021 44.36966102 C227.48823667 44.3698793 226.32629313 44.37009757 225.12913918 44.37032247 C222.77455028 44.37076593 220.41996137 44.3712125 218.06537247 44.37166214 C216.89741197 44.37188357 215.72945147 44.372105 214.52609822 44.37233314 C195.5977498 44.37628179 176.66943986 44.39373766 157.7411063 44.41702166 C138.31376631 44.44072687 118.88644564 44.45319713 99.45909095 44.45436358 C88.54888167 44.4552808 77.63872254 44.46104474 66.72852707 44.4791832 C57.43884827 44.49457294 48.1492351 44.49971128 38.85954598 44.49144509 C34.1193539 44.48753465 29.37929405 44.48848746 24.63911819 44.50250244 C20.2989232 44.51521754 15.95896013 44.5140649 11.61876556 44.50191173 C10.04943737 44.49995059 8.48009289 44.50305241 6.91078761 44.51175609 C-2.17406104 44.55894858 -9.4700082 44.39078425 -17.3418541 39.38142776 C-22.24893633 34.47434553 -24.38560798 29.22511945 -24.8418541 22.38142776 C-24.74269959 15.72568142 -22.31030278 9.84987645 -17.5918541 5.13142776 C-11.71599795 1.06775155 -7.0429566 0.00740879 0 0 Z " fill="#000000" transform="translate(66.59185409545898,41.86857223510742)"/>
</svg>
