<?xml version="1.0" encoding="UTF-8"?>
<svg version="1.1" xmlns="http://www.w3.org/2000/svg" width="512" height="512">
<path d="M0 0 C0.71736328 -0.02835938 1.43472656 -0.05671875 2.17382812 -0.0859375 C14.56884509 -0.12954354 26.78618278 8.14777918 37.64526367 13.57568359 C39.26772477 14.38309547 40.89034387 15.19018994 42.5131073 15.99699402 C46.88673197 18.17291417 51.25777591 20.35396782 55.6280725 22.5365634 C58.36424597 23.90282024 61.10093423 25.26804034 63.83779335 26.63292313 C73.40109014 31.40235685 82.96211343 36.17631603 92.52124023 40.95410156 C101.40909139 45.39620713 110.30214867 49.82776272 119.19761866 54.25458848 C126.85839931 58.06760701 134.51529317 61.88835349 142.16927701 65.71499693 C146.73056263 67.99524436 151.29336364 70.27232008 155.86018944 72.54145432 C160.15338983 74.67492798 164.44165504 76.81801482 168.72641182 78.96839333 C170.29313776 79.75266034 171.8615565 80.53355682 173.43183136 81.31069374 C194.58232086 91.78478775 194.58232086 91.78478775 200.125 101 C200.67027344 101.8765625 201.21554687 102.753125 201.77734375 103.65625 C206.53449342 113.24961553 206.9648255 125.34972893 203.5625 135.5 C197.04290886 150.67451875 183.76317496 157.08313902 169.71899414 164.04980469 C168.05861874 164.8825655 166.39867229 165.716182 164.73912048 166.55058289 C160.25611406 168.80130145 155.76695665 171.0394787 151.27632451 173.27493572 C146.56401935 175.62286121 141.85678874 177.98092146 137.14878845 180.33746338 C129.24470734 184.29176044 121.3365988 188.23790774 113.42602539 192.17919922 C104.29620766 196.72807969 95.17287508 201.28975944 86.05291277 205.85836291 C77.25789663 210.26381772 68.45837081 214.66019081 59.65676689 219.05246735 C55.92070468 220.91707309 52.18623121 222.78480602 48.4530201 224.65511322 C44.05303875 226.85894974 39.64914643 229.05477092 35.24218178 231.24460793 C33.63082181 232.0468608 32.02079349 232.85179511 30.41225052 233.65968132 C4.58885478 246.62269411 4.58885478 246.62269411 -9.94760418 242.64133263 C-19.48641004 239.2072942 -28.44814586 234.96994917 -37.49731445 230.42431641 C-39.11989975 229.61656126 -40.7428193 228.80947727 -42.36604309 228.00300598 C-46.73308485 225.83064409 -51.09506025 223.64829578 -55.45586038 221.4634366 C-59.10997649 219.6338076 -62.76658026 217.80918064 -66.42317647 215.98451459 C-75.05144119 211.67885266 -83.67559906 207.36504791 -92.29711914 203.04589844 C-101.16907688 198.60144785 -110.04752495 194.17017434 -118.92931587 189.74541152 C-126.58173782 185.93257001 -134.23023201 182.11193396 -141.87561768 178.28500307 C-146.43036776 176.00517149 -150.98647579 173.72817409 -155.54631996 171.45854568 C-159.83141765 169.32521001 -164.11149446 167.18211458 -168.38799858 165.03160667 C-169.95150769 164.24735997 -171.51670307 163.46646406 -173.08374786 162.68930626 C-186.73343672 155.91549423 -199.38563546 148.94487444 -204.75 133.75 C-207.35259278 123.38842751 -206.69167787 113.03176854 -201.8125 103.5 C-196.25723502 94.29458974 -188.46930083 88.95422301 -179.01904297 84.20336914 C-178.02933439 83.69655389 -177.03962582 83.18973864 -176.01992607 82.66756535 C-173.22776642 81.24214441 -170.43096104 79.82643233 -167.63102245 78.41636515 C-165.76659896 77.47687017 -163.90355016 76.53469636 -162.04080963 75.59186935 C-152.66965868 70.8503492 -143.28273929 66.14053303 -133.89131784 61.4393146 C-131.4799831 60.23216191 -129.06887702 59.0245536 -126.6578331 57.81682014 C-119.08064095 54.021438 -111.50268117 50.22759523 -103.92355359 46.43607944 C-95.23008672 42.08709262 -86.5392856 37.73283639 -77.85068142 33.37414306 C-71.08282942 29.97940128 -64.31267256 26.5892867 -57.54075611 23.20266014 C-53.51573697 21.1896288 -49.49169613 19.17470006 -45.47006607 17.15490532 C-41.70172197 15.26247603 -37.93053749 13.37583116 -34.15713501 11.49350929 C-32.77949496 10.80507305 -31.40286663 10.11460766 -30.02737045 9.42189789 C-20.1486854 4.44902403 -11.22597831 -0.03970284 0 0 Z M-9.89849854 36.67550659 C-10.93312686 37.18791749 -10.93312686 37.18791749 -11.98865676 37.71068013 C-14.29288006 38.85552278 -16.58813351 40.01728363 -18.88378906 41.17919922 C-20.53607151 42.00454942 -22.18887651 42.82885421 -23.84216309 43.65219116 C-28.32665141 45.88930318 -32.80352826 48.14127057 -37.27908802 50.39618063 C-41.9612726 52.75230854 -46.649939 55.09546805 -51.33782959 57.44021606 C-59.20680077 61.37839346 -67.07120694 65.32556128 -74.93261719 69.27880859 C-85.03124053 74.35701802 -95.13724691 79.42034908 -105.24567032 84.47901726 C-113.92894538 88.82463126 -122.60880097 93.17705968 -131.28811169 97.53058481 C-134.0822449 98.9317535 -136.87684899 100.33197955 -139.67151642 101.73208237 C-144.05652918 103.92947522 -148.43939223 106.13109913 -152.82060242 108.33606339 C-154.43163145 109.14610734 -156.04334245 109.95479658 -157.65576935 110.76205444 C-159.85054124 111.86118144 -162.0427925 112.96517762 -164.23443604 114.07052612 C-165.2000774 114.55204708 -165.2000774 114.55204708 -166.18522668 115.04329574 C-168.7506911 116.34285878 -170.76399011 117.45149011 -172.8125 119.5 C-173.00292713 122.47051867 -173.00292713 122.47051867 -171.8125 125.5 C-169.58769362 127.16669204 -167.74637939 128.27149453 -165.27876282 129.45518494 C-164.58793789 129.808119 -163.89711295 130.16105307 -163.18535393 130.5246821 C-160.86318357 131.70422229 -158.52655113 132.85160554 -156.1887207 133.99975586 C-154.52252517 134.83784959 -152.85727835 135.6778317 -151.19291687 136.51956177 C-146.66556069 138.80193573 -142.12480678 141.05636647 -137.58074975 143.30526805 C-132.83069092 145.66081482 -128.09184566 148.03872365 -123.35136414 150.41346741 C-115.38679761 154.39889637 -107.41354007 158.36648747 -99.43481445 162.32348633 C-90.20813013 166.89964858 -80.99520395 171.5025907 -71.78930598 176.12040991 C-62.93822269 180.55957598 -54.07819131 184.98058107 -45.2137661 189.3930378 C-41.4394792 191.27209678 -37.66835961 193.15730518 -33.89962196 195.04746819 C-29.46067014 197.27265613 -25.01408706 199.48178984 -20.5610981 201.67874527 C-18.92732618 202.48794155 -17.29624325 203.30259301 -15.66809464 204.12304497 C-13.44616334 205.24157146 -11.21535712 206.33993969 -8.9811554 207.43370056 C-8.01620233 207.92802665 -8.01620233 207.92802665 -7.03175527 208.43233913 C-2.83643217 210.45105833 -0.26935657 210.83441797 4.1875 209.5 C6.59036735 208.47842019 8.87649034 207.42178215 11.1975708 206.24220276 C11.87915591 205.90382462 12.56074102 205.56544648 13.26298022 205.21681446 C15.53758083 204.08513363 17.80629942 202.94214206 20.07519531 201.79907227 C21.70794527 200.98377058 23.34104143 200.16916188 24.97445679 199.35519409 C29.40340284 197.14556396 33.82729008 194.92597773 38.25022984 192.70435452 C42.87779251 190.38178678 47.50957313 188.06765991 52.14080811 185.75242615 C59.91431955 181.86473426 67.6847089 177.97086066 75.453125 174.07299805 C84.44165192 169.56299413 93.43434483 165.06139059 102.42946935 160.56456143 C111.0779874 156.24091211 119.72421293 151.91270008 128.36916351 147.58192253 C132.05111748 145.73741016 135.73375115 143.8942651 139.41690826 142.05215645 C143.74930536 139.88495549 148.07964503 137.71369737 152.4084053 135.53924179 C154.00008081 134.74047651 155.59244104 133.94307406 157.18552017 133.14711189 C159.3540095 132.06335591 161.51998463 130.97473458 163.68536377 129.88478088 C164.32134279 129.56833998 164.9573218 129.25189907 165.61257291 128.92586905 C168.16339313 127.63624179 170.15121126 126.53628874 172.1875 124.5 C172.93941978 122.13108504 172.93941978 122.13108504 172.1875 119.5 C167.4803855 115.73188518 162.67276951 113.12716559 157.1875 110.6875 C151.62641727 108.14606708 146.17698735 105.49634076 140.8125 102.5625 C134.60450447 99.17895994 128.28178686 96.10812884 121.85009766 93.17211914 C116.36935082 90.63569192 111.03785202 87.85361805 105.70532227 85.0234375 C88.86048885 76.1242038 71.80324982 67.63760394 54.77709961 59.09228516 C50.48247199 56.9359799 46.19137868 54.77286007 41.90307617 52.60400391 C36.67989533 49.96239047 31.45097325 47.33249919 26.21767616 44.71098709 C24.23608851 43.71591734 22.25655522 42.7167453 20.27916527 41.71335983 C17.52909108 40.3189429 14.77188921 38.93973648 12.01245117 37.56396484 C11.20360474 37.14954132 10.3947583 36.7351178 9.56140137 36.30813599 C8.80650925 35.9355365 8.05161713 35.56293701 7.27384949 35.17904663 C6.62561816 34.852815 5.97738684 34.52658337 5.30951214 34.19046593 C-0.44836376 32.31695302 -4.74880277 34.03530656 -9.89849854 36.67550659 Z " fill="#000000" transform="translate(254.8125,63.5)"/>
<path d="M0 0 C0.87524826 0.45111019 1.75049652 0.90222038 2.65226746 1.36700058 C4.11336189 2.09250422 4.11336189 2.09250422 5.60397339 2.83266449 C8.4367837 4.24438005 11.26050631 5.67282857 14.08188629 7.10721016 C17.51454758 8.84643067 20.95863849 10.56282588 24.40080261 12.28313828 C31.71352369 15.94244846 39.0158073 19.62217513 46.31508541 23.30821395 C52.64490759 26.50432242 58.97798625 29.69389592 65.31315613 32.87939072 C66.24111402 33.34601474 67.1690719 33.81263876 68.12514973 34.29340291 C70.97400276 35.72587266 73.82289952 37.15825543 76.67179871 38.59063339 C88.38522879 44.48015257 100.0960274 50.37472822 111.79679871 56.28936386 C120.39169198 60.63394275 128.99286075 64.96579975 137.6016264 69.28282905 C142.14081909 71.55970827 146.67655724 73.84293462 151.20466614 76.14178848 C155.44566585 78.29474105 159.69474319 80.43079882 163.95065308 82.5541172 C165.50864866 83.33515121 167.06356398 84.12236499 168.61508179 84.91618919 C170.73385132 85.99909994 172.86260439 87.05919114 174.99528503 88.11437607 C175.60510381 88.4327343 176.21492258 88.75109253 176.84322071 89.07909799 C181.30240624 91.24194635 184.2209902 91.2919793 188.98429871 90.07110214 C191.67554068 89.03098088 194.22329608 87.77710293 196.79124451 86.46490097 C197.54648242 86.08906529 198.30172033 85.71322962 199.07984424 85.32600498 C201.59874332 84.0694926 204.11023792 82.7988568 206.62199402 81.52813339 C208.4305107 80.62235071 210.23947214 79.71745561 212.04884338 78.8133812 C216.95378048 76.35949548 221.8524825 73.89339099 226.75021458 71.42516327 C231.87538025 68.84507947 237.00638096 66.27665441 242.13682556 63.70708847 C251.85156442 58.83936996 261.56132939 53.96181777 271.2692039 49.08042622 C285.53004928 41.91018511 299.79792676 34.75396065 314.06628036 27.59867477 C316.16906013 26.54415588 318.27183953 25.48963623 320.37461853 24.43511581 C321.40093282 23.92045981 322.4272471 23.40580381 323.48466182 22.87555218 C329.59610146 19.81047751 335.70596084 16.74228048 341.81446123 13.67135239 C345.60748215 11.76476237 349.40125649 9.85967487 353.19516373 7.95484924 C354.95841024 7.06908417 356.72130074 6.18261 358.48381424 5.29538727 C360.88339859 4.0875443 363.28419096 2.8821367 365.68528748 1.67730331 C366.3877086 1.32293103 367.09012972 0.96855875 367.81383634 0.60344791 C373.82585228 -2.40767038 378.31047523 -3.54705646 384.98429871 -2.92889786 C390.25752023 -1.10355194 392.78120956 1.67829417 395.98429871 6.07110214 C397.70667067 11.23821805 397.63991493 16.17709973 395.85929871 21.32110214 C391.90992755 27.11351317 386.40087389 30.15552796 380.26205444 33.182827 C379.50373725 33.56475279 378.74542005 33.94667859 377.96412355 34.34017789 C375.43707239 35.61047794 372.90449445 36.86932585 370.37174988 38.12823105 C368.55264338 39.03967693 366.73388064 39.95180918 364.91543579 40.86457443 C359.98514346 43.33669356 355.04988655 45.79874386 350.11350799 48.25868273 C344.94221492 50.83739506 339.77499476 53.42424522 334.60717773 56.0099144 C325.92700406 60.35135177 317.24361939 64.6863118 308.55827332 69.0173912 C298.52711122 74.01967451 288.50095224 79.03187145 278.47745532 84.04949439 C268.82456639 88.8813354 259.16828913 93.70636635 249.51041603 98.52823639 C245.40549331 100.57782385 241.30174221 102.62973003 237.1989193 104.68351746 C232.36307619 107.10383154 227.52428027 109.51813909 222.68317604 111.92791176 C220.9104874 112.81148227 219.13880353 113.69707208 217.3682251 114.58486366 C214.94405318 115.79994491 212.51628166 117.00752237 210.0874939 118.21334457 C209.3940858 118.56305364 208.70067771 118.91276271 207.98625726 119.27306902 C200.40787854 123.01395896 193.17955935 125.60329802 184.67179871 125.57110214 C184.00213074 125.59946152 183.33246277 125.62782089 182.64250183 125.65703964 C169.8701673 125.70492093 156.79092802 116.62888546 145.61125183 111.04571152 C143.7836334 110.13653944 141.95586009 109.22767863 140.12794495 108.31910324 C135.19678283 105.86654951 130.26823197 103.40879497 125.34048653 100.94938469 C122.25923765 99.41170264 119.17752541 97.87495315 116.09567261 96.3384819 C106.44458533 91.52657872 96.7950847 86.71151567 87.1478982 81.89179659 C76.02460759 76.33464388 64.89614505 70.7880305 53.76311922 65.2504077 C45.14209134 60.96148879 36.52568064 56.66339069 27.91273832 52.35825777 C22.77364397 49.78975884 17.63267716 47.22518945 12.48687744 44.67014694 C7.65524104 42.27077482 2.82943002 39.86007626 -1.99212265 37.44050789 C-3.76216606 36.55471435 -5.53427047 35.67302558 -7.30855179 34.79575157 C-9.72945574 33.59797563 -12.1425027 32.38564261 -14.55415344 31.16936874 C-15.25803302 30.82548536 -15.9619126 30.48160197 -16.68712187 30.12729788 C-21.74481674 27.54705385 -24.63751418 24.68965765 -27.26570129 19.69610214 C-28.93404791 13.85688897 -28.30581895 9.17459504 -25.40242004 3.93828964 C-18.81701039 -4.92882533 -9.13673923 -4.47046482 0 0 Z " fill="#000000" transform="translate(70.01570129394531,259.928897857666)"/>
<path d="M0 0 C0.77186984 0.38541391 1.54373968 0.77082783 2.33899951 1.16792095 C4.90432076 2.45299773 7.45908439 3.7577582 10.01434326 5.06271362 C11.85912438 5.99182623 13.70455003 6.91966003 15.55056763 7.84631348 C19.5143799 9.83925852 23.47367898 11.84080983 27.42972565 13.84912491 C33.6830333 17.02317586 39.94701481 20.17574054 46.21276855 23.32513428 C59.50492424 30.01002164 72.78510226 36.71853071 86.06414795 43.42941284 C100.41403535 50.68141206 114.76589348 57.92933505 129.13154292 65.15007389 C135.36273089 68.28312768 141.58683427 71.42971713 147.80590105 74.5867579 C151.66948361 76.54460675 155.53879596 78.49090815 159.40977859 80.43407822 C161.20657156 81.3390412 163.00093149 82.24885319 164.79266739 83.16378784 C167.23424929 84.40974516 169.68384614 85.63826964 172.13623047 86.86279297 C173.20242296 87.41476276 173.20242296 87.41476276 174.2901547 87.97788346 C177.03560584 89.33057783 179.22687856 90.31780968 182.31889343 90.2472744 C185.79887779 88.93232098 189.10600351 87.3471287 192.4161377 85.6602478 C193.17360047 85.28032857 193.93106324 84.90040935 194.71147943 84.50897741 C197.2482675 83.23485982 199.78065057 81.95222309 202.31317139 80.66964722 C204.13151558 79.75432195 205.95014669 78.83956645 207.76904297 77.92533875 C211.6857227 75.95547729 215.60058385 73.98206209 219.51415253 72.00602722 C225.70476576 68.88089844 231.90079974 65.76662862 238.09790039 62.65438843 C255.71945367 53.80274251 273.33463741 44.93849393 290.94207764 36.05880737 C300.66638924 31.15481455 310.39570764 26.26090531 320.13057351 21.37789583 C326.28977876 18.28771026 332.44254377 15.18516496 338.59084272 12.07334137 C342.4217521 10.13812342 346.25849462 8.21470713 350.09697723 6.29456139 C351.8727253 5.40333496 353.64607155 4.50730389 355.41676331 3.60607338 C357.83959133 2.3738002 360.27055032 1.15925744 362.70422363 -0.05142212 C363.39831384 -0.40968535 364.09240406 -0.76794858 364.8075273 -1.13706827 C371.01726107 -4.18530834 377.30498494 -5.67021981 384.06414795 -3.63308716 C388.21194401 -1.83653677 390.27311811 0.60836944 392.81414795 4.30441284 C394.53651992 9.47152875 394.46976417 14.41041043 392.68914795 19.55441284 C388.70523675 25.3974826 383.12873091 28.4400841 376.94004822 31.49879456 C375.77807111 32.08499226 375.77807111 32.08499226 374.59261972 32.68303233 C372.01029669 33.98330128 369.42243938 35.27213244 366.83441162 36.56100464 C364.9759025 37.49378979 363.11773123 38.42724835 361.25987244 39.36132812 C356.22223114 41.89138934 351.17955902 44.41126327 346.13564086 46.92878318 C341.921899 49.03309707 337.71064941 51.14237199 333.49938852 53.25164539 C323.56291502 58.2283797 313.62235545 63.19688043 303.67913818 68.16012573 C293.42858162 73.2769435 283.18464454 78.40682982 272.9439413 83.54333562 C264.14399304 87.95666391 255.34017633 92.36220232 246.53318387 96.76145679 C241.27645368 99.38735917 236.02118795 102.01608794 230.76955223 104.65216637 C225.83036594 107.13094751 220.88640183 109.59992818 215.93863106 112.06152725 C214.12653632 112.96507383 212.31612765 113.87201128 210.50757599 114.78262901 C208.0326455 116.02808355 205.55182985 117.26096634 203.06919861 118.49098206 C202.36022672 118.85138586 201.65125484 119.21178967 200.92079896 119.5831148 C190.53838302 124.67893929 180.35064481 125.6605752 169.24348068 122.51130295 C161.59604578 119.81992995 154.4341635 115.96007793 147.20330811 112.32247925 C145.33831266 111.39337345 143.47289358 110.46511761 141.60708618 109.53764343 C136.56567876 107.02829046 131.53063513 104.50641583 126.4969449 101.98162508 C121.2198858 99.33674622 115.9379358 96.70166624 110.6567688 94.06500244 C101.79497461 89.63864623 92.9374178 85.20389879 84.08221436 80.76437378 C73.8481071 75.63369935 63.60685647 70.5175106 53.3618027 65.40873396 C44.55533639 61.01684665 35.75279234 56.61717465 26.95347822 52.21097505 C21.70231087 49.58149654 16.44983468 46.95472922 11.19380569 44.33498001 C6.25622286 41.8734121 1.32363815 39.40210465 -3.60526657 36.92320824 C-5.41394592 36.01556465 -7.22433334 35.11131559 -9.03653717 34.2107296 C-11.51092475 32.98037356 -13.97881541 31.73784503 -16.44546509 30.49206543 C-17.16267774 30.13903591 -17.87989039 29.78600639 -18.61883676 29.422279 C-23.80808241 26.77678437 -28.00267241 23.89613967 -30.49835205 18.42941284 C-31.87339864 12.17920106 -31.5095586 7.68263121 -28.45928955 2.10128784 C-21.24382656 -8.08004031 -9.28788864 -4.81044701 0 0 Z " fill="#000000" transform="translate(73.18585205078125,339.6955871582031)"/>
</svg>
