<?xml version="1.0" standalone="no"?>
<!DOCTYPE svg PUBLIC "-//W3C//DTD SVG 20010904//EN"
 "http://www.w3.org/TR/2001/REC-SVG-20010904/DTD/svg10.dtd">
<svg version="1.0" xmlns="http://www.w3.org/2000/svg"
 width="512.000000pt" height="512.000000pt" viewBox="0 0 512.000000 512.000000"
 preserveAspectRatio="xMidYMid meet">

<g transform="translate(0.000000,512.000000) scale(0.100000,-0.100000)"
fill="#000000" stroke="none">
<path d="M2176 4469 c-419 -64 -754 -365 -863 -777 -23 -84 -26 -117 -26 -252
0 -135 3 -168 26 -251 33 -125 85 -237 126 -271 116 -98 299 25 247 166 -85
231 -80 211 -80 356 0 118 3 145 26 212 40 119 92 204 182 294 90 89 174 142
294 183 l77 26 375 0 375 0 80 -27 c44 -15 109 -44 145 -65 83 -49 214 -180
263 -263 43 -75 82 -189 92 -273 17 -131 122 -199 229 -148 93 46 109 127 62
313 -94 369 -379 655 -754 755 -95 26 -104 27 -457 29 -198 1 -387 -2 -419 -7z"/>
<path d="M892 2703 c-108 -53 -121 -197 -24 -271 l35 -27 1016 -5 1016 -5 77
-26 c121 -42 204 -94 293 -183 92 -93 144 -176 182 -291 24 -71 27 -95 27
-215 0 -120 -3 -144 -27 -215 -38 -115 -91 -199 -182 -290 -91 -91 -174 -143
-290 -183 l-80 -27 -375 0 -375 0 -80 27 c-115 39 -198 92 -291 183 -118 116
-190 259 -209 418 -17 131 -122 199 -229 148 -93 -46 -109 -127 -62 -313 47
-187 145 -356 284 -490 135 -130 285 -215 470 -266 l97 -26 395 0 395 0 97 26
c192 53 357 149 490 286 131 135 216 287 265 470 23 84 26 117 26 252 0 135
-3 168 -26 252 -42 157 -128 323 -225 430 l-34 38 322 0 c359 0 367 1 418 68
22 29 27 46 27 92 0 46 -5 63 -27 92 -56 74 89 68 -1730 68 -1491 0 -1636 -2
-1666 -17z"/>
</g>
</svg>
