<svg width="124" height="124" viewBox="0 0 124 124" fill="none" xmlns="http://www.w3.org/2000/svg">
<path d="M36.1667 56.8334V36.1667C36.1667 29.3153 38.8884 22.7445 43.7331 17.8998C48.5778 13.0551 55.1486 10.3334 62 10.3334C68.8514 10.3334 75.4222 13.0551 80.2669 17.8998C85.1116 22.7445 87.8333 29.3153 87.8333 36.1667V56.8334M25.8333 56.8334H98.1667C103.874 56.8334 108.5 61.4598 108.5 67.1667V103.333C108.5 109.04 103.874 113.667 98.1667 113.667H25.8333C20.1264 113.667 15.5 109.04 15.5 103.333V67.1667C15.5 61.4598 20.1264 56.8334 25.8333 56.8334Z" stroke="#1E1E1E" stroke-width="4" stroke-linecap="round" stroke-linejoin="round"/>
</svg>
