<svg width="124" height="124" viewBox="0 0 124 124" fill="none" xmlns="http://www.w3.org/2000/svg">
<path d="M41.3333 15.5H25.8333C23.0928 15.5 20.4644 16.5887 18.5266 18.5266C16.5887 20.4644 15.5 23.0928 15.5 25.8333V41.3333M108.5 41.3333V25.8333C108.5 23.0928 107.411 20.4644 105.473 18.5266C103.536 16.5887 100.907 15.5 98.1667 15.5H82.6667M82.6667 108.5H98.1667C100.907 108.5 103.536 107.411 105.473 105.473C107.411 103.536 108.5 100.907 108.5 98.1667V82.6667M15.5 82.6667V98.1667C15.5 100.907 16.5887 103.536 18.5266 105.473C20.4644 107.411 23.0928 108.5 25.8333 108.5H41.3333" stroke="#1E1E1E" stroke-width="4" stroke-linecap="round" stroke-linejoin="round"/>
</svg>
