<svg width="124" height="124" viewBox="0 0 124 124" fill="none" xmlns="http://www.w3.org/2000/svg">
<path d="M41.3333 15.5V31C41.3333 33.7406 40.2446 36.3689 38.3068 38.3068C36.3689 40.2446 33.7406 41.3333 31 41.3333H15.5M108.5 41.3333H93C90.2594 41.3333 87.6311 40.2446 85.6932 38.3068C83.7554 36.3689 82.6667 33.7406 82.6667 31V15.5M82.6667 108.5V93C82.6667 90.2594 83.7554 87.6311 85.6932 85.6932C87.6311 83.7554 90.2594 82.6667 93 82.6667H108.5M15.5 82.6667H31C33.7406 82.6667 36.3689 83.7554 38.3068 85.6932C40.2446 87.6311 41.3333 90.2594 41.3333 93V108.5" stroke="#1E1E1E" stroke-width="4" stroke-linecap="round" stroke-linejoin="round"/>
</svg>
