<?xml version="1.0" standalone="no"?>
<!DOCTYPE svg PUBLIC "-//W3C//DTD SVG 20010904//EN"
 "http://www.w3.org/TR/2001/REC-SVG-20010904/DTD/svg10.dtd">
<svg version="1.0" xmlns="http://www.w3.org/2000/svg"
 width="512.000000pt" height="512.000000pt" viewBox="0 0 512.000000 512.000000"
 preserveAspectRatio="xMidYMid meet">

<g transform="translate(0.000000,512.000000) scale(0.100000,-0.100000)"
fill="#000000" stroke="none">
<path d="M1600 4867 c-49 -16 -133 -102 -148 -153 -28 -94 -8 -169 63 -239 68
-68 95 -75 309 -75 l176 0 0 -80 0 -80 -853 -2 -853 -3 -41 -27 c-62 -41 -88
-90 -88 -168 0 -51 5 -73 24 -103 33 -54 88 -87 155 -94 l56 -6 0 -1117 0
-1117 -56 -6 c-67 -7 -122 -40 -155 -94 -19 -30 -24 -52 -24 -103 0 -78 26
-127 88 -168 l41 -27 1093 -3 1093 -2 0 -249 0 -249 -30 -12 c-42 -17 -104
-90 -118 -138 -34 -112 18 -235 120 -288 42 -22 124 -29 177 -14 90 24 171
132 171 228 0 83 -62 184 -130 212 l-30 12 0 249 0 249 1093 2 1092 3 38 24
c21 13 50 42 65 64 23 34 27 52 27 107 0 55 -4 73 -27 107 -35 54 -85 83 -153
90 l-55 6 0 1117 0 1117 56 6 c67 7 122 40 155 94 36 57 34 154 -3 210 -15 22
-44 51 -65 64 l-38 24 -852 3 -853 2 0 80 0 80 178 0 c216 0 251 9 315 80 90
100 90 220 0 320 -76 85 -12 80 -1057 79 -641 -1 -932 -4 -956 -12z m1895
-172 c16 -15 25 -36 25 -55 0 -19 -9 -40 -25 -55 l-24 -25 -911 0 -911 0 -24
25 c-16 15 -25 36 -25 55 0 19 9 40 25 55 l24 25 911 0 911 0 24 -25z m-535
-375 l0 -80 -400 0 -400 0 0 80 0 80 400 0 400 0 0 -80z m1834 -262 c8 -13 8
-23 0 -35 -11 -17 -129 -18 -2229 -21 -1631 -1 -2221 1 -2231 9 -17 14 -18 41
-2 57 9 9 514 11 2231 10 2102 -3 2220 -4 2231 -20z m-234 -1338 l0 -1120
-2000 0 -2000 0 0 1120 0 1120 2000 0 2000 0 0 -1120z m234 -1302 c8 -13 8
-23 0 -35 -11 -17 -129 -18 -2229 -21 -1631 -1 -2221 1 -2231 9 -17 14 -18 41
-2 57 9 9 514 11 2231 10 2102 -3 2220 -4 2231 -20z m-2179 -883 c50 -49 15
-135 -55 -135 -19 0 -40 9 -55 25 -50 49 -15 135 55 135 19 0 40 -9 55 -25z"/>
<path d="M931 3346 c-48 -17 -105 -77 -119 -124 -17 -55 -17 -955 0 -1003 18
-54 48 -87 102 -114 l50 -25 716 0 716 0 55 28 c44 22 58 36 81 81 l28 53 0
478 0 478 -28 53 c-23 45 -37 59 -81 82 l-55 27 -715 -1 c-541 0 -724 -4 -750
-13z m1452 -158 c16 -12 17 -39 15 -305 l-3 -292 -135 116 c-178 153 -202 170
-264 184 -44 9 -62 9 -109 -5 -30 -9 -69 -28 -86 -41 -16 -14 -89 -100 -161
-191 -105 -130 -135 -162 -146 -153 -7 6 -38 41 -68 78 -72 87 -134 123 -215
122 -79 0 -120 -19 -191 -87 l-60 -57 0 311 c0 286 1 312 18 321 27 16 1383
15 1405 -1z m-382 -472 c8 -6 102 -85 207 -175 l192 -165 0 -58 c0 -47 -4 -59
-20 -68 -12 -7 -161 -9 -441 -8 l-421 3 188 235 c104 129 200 240 214 247 25
13 53 9 81 -11z m-676 -267 l77 -90 -45 -57 -45 -57 -156 -3 c-173 -3 -196 3
-196 46 0 22 24 53 106 140 99 105 108 112 144 112 36 0 43 -5 115 -91z"/>
<path d="M1412 3109 c-80 -23 -142 -131 -128 -221 16 -98 92 -163 191 -163
106 0 186 64 201 161 22 151 -114 266 -264 223z m98 -164 c26 -32 -13 -81 -47
-59 -35 22 -23 74 17 74 10 0 23 -7 30 -15z"/>
<path d="M2825 3255 c-16 -15 -25 -36 -25 -55 0 -19 9 -40 25 -55 15 -16 36
-25 55 -25 19 0 40 9 55 25 16 15 25 36 25 55 0 19 -9 40 -25 55 -15 16 -36
25 -55 25 -19 0 -40 -9 -55 -25z"/>
<path d="M3065 3255 c-16 -15 -25 -36 -25 -55 0 -19 9 -40 25 -55 l24 -25 591
0 591 0 24 25 c16 15 25 36 25 55 0 19 -9 40 -25 55 l-24 25 -591 0 -591 0
-24 -25z"/>
<path d="M2825 2935 c-16 -15 -25 -36 -25 -55 0 -19 9 -40 25 -55 15 -16 36
-25 55 -25 19 0 40 9 55 25 16 15 25 36 25 55 0 19 -9 40 -25 55 -15 16 -36
25 -55 25 -19 0 -40 -9 -55 -25z"/>
<path d="M3065 2935 c-16 -15 -25 -36 -25 -55 0 -19 9 -40 25 -55 l24 -25 591
0 591 0 24 25 c16 15 25 36 25 55 0 19 -9 40 -25 55 l-24 25 -591 0 -591 0
-24 -25z"/>
<path d="M2825 2615 c-50 -49 -15 -135 55 -135 41 0 80 39 80 80 0 19 -9 40
-25 55 -15 16 -36 25 -55 25 -19 0 -40 -9 -55 -25z"/>
<path d="M3065 2615 c-16 -15 -25 -36 -25 -55 0 -19 9 -40 25 -55 l24 -25 591
0 591 0 24 25 c16 15 25 36 25 55 0 19 -9 40 -25 55 l-24 25 -591 0 -591 0
-24 -25z"/>
<path d="M2825 2295 c-50 -49 -15 -135 55 -135 41 0 80 39 80 80 0 41 -39 80
-80 80 -19 0 -40 -9 -55 -25z"/>
<path d="M3065 2295 c-16 -15 -25 -36 -25 -55 0 -19 9 -40 25 -55 l24 -25 591
0 591 0 24 25 c16 15 25 36 25 55 0 19 -9 40 -25 55 l-24 25 -591 0 -591 0
-24 -25z"/>
</g>
</svg>
