<?xml version="1.0" encoding="UTF-8"?>
<svg version="1.1" xmlns="http://www.w3.org/2000/svg" width="512" height="512">
<path d="M0 0 C6.8994489 4.24013241 10.00148496 9.5953717 12.0546875 17.30078125 C12.5 19.4375 12.5 19.4375 12.5 21.4375 C14.14466924 21.43335193 14.14466924 21.43335193 15.82256413 21.42912006 C42.49626464 21.36253399 69.16995438 21.31322868 95.84372044 21.28206348 C108.74293025 21.26659181 121.64208518 21.24549647 134.54125977 21.21118164 C145.78361626 21.18128858 157.025933 21.16192718 168.26832813 21.15523452 C174.22158951 21.15132213 180.17473716 21.14212103 186.12796211 21.12030983 C191.73146288 21.09994628 197.33480307 21.093666 202.93833733 21.09817696 C204.9946416 21.0973517 207.05095124 21.09138536 209.10722351 21.07988358 C211.91632954 21.06494168 214.72483056 21.06855272 217.53395081 21.07673645 C218.75236037 21.06362866 218.75236037 21.06362866 219.99538428 21.05025607 C227.44494334 21.10885265 233.34759598 23.4065227 238.80834961 28.60571289 C245.47724795 35.82706435 245.09436518 44.95232421 244.96655273 54.20336914 C244.93751337 56.49894289 244.9459895 58.79221038 244.95898438 61.08789062 C244.94806032 69.37986697 244.93244494 76.63717478 239.921875 83.64453125 C235.19584664 88.18284353 231.10983093 91.36293484 224.28515625 91.50390625 C223.36605469 91.48199219 222.44695312 91.46007812 221.5 91.4375 C221.50151888 92.03252221 221.50303776 92.62754442 221.50460267 93.24059761 C221.59415323 128.52185132 221.66276555 163.80308544 221.70426132 199.0844292 C221.70926403 203.32256236 221.71444133 207.5606953 221.71972656 211.79882812 C221.7207758 212.642549 221.72182505 213.48626988 221.72290608 214.35555805 C221.74030198 228.00937538 221.77183517 241.6631252 221.80861118 255.3169025 C221.84604331 269.33136037 221.86824065 283.34578293 221.87635398 297.36028874 C221.88183705 306.00505738 221.89914251 314.6496352 221.93166587 323.2943451 C221.95284181 329.22576355 221.95919309 335.15708365 221.95400551 341.08853714 C221.95144849 344.50855681 221.95531357 347.9282435 221.9768219 351.34820366 C221.99676292 355.06279354 221.99192301 358.77657121 221.98101807 362.49118042 C221.99266943 363.56319037 222.0043208 364.63520033 222.01632524 365.73969543 C221.95428614 373.57393819 220.55363524 380.64929246 215.53515625 386.875 C207.41575613 393.30620802 200.59239307 394.59772085 190.2616272 394.55775452 C189.44795728 394.55860894 188.63428736 394.55946337 187.79596078 394.56034368 C185.0783067 394.56198656 182.36071478 394.55649666 179.64306641 394.55102539 C177.6914673 394.55074324 175.73986809 394.55090181 173.78826904 394.5514679 C168.49539541 394.55175476 163.20254444 394.54587582 157.90967607 394.53889394 C152.37633917 394.53264207 146.84300175 394.53205515 141.30966187 394.53086853 C130.83381354 394.52776063 120.35797566 394.51955451 109.88213193 394.50951904 C97.95477252 394.49834112 86.02741261 394.49284322 74.10004926 394.48782361 C49.56669372 394.47737147 25.03334744 394.45978248 0.5 394.4375 C-1.04916348 413.60035512 -1.04916348 413.60035512 5.86879635 430.78151035 C9.12459237 434.33741195 12.59258207 437.57282255 16.18359375 440.78515625 C17.68577554 442.22981592 19.18160862 443.68110275 20.67140198 445.13853455 C24.55927822 448.90968553 28.52252153 452.58978538 32.51074219 456.25427246 C36.57402688 460.01444593 40.56300832 463.85169737 44.55664062 467.68554688 C49.04179849 471.98755665 53.53215195 476.28125819 58.08384705 480.51295471 C58.76968369 481.15294907 59.45552032 481.79294342 60.16213989 482.45233154 C61.44042809 483.64303709 62.72290622 484.82926712 64.01036072 486.01005554 C67.51566699 489.28139567 70.04573595 491.80755024 70.87109375 496.5859375 C70.9973398 500.81889331 70.87350209 503.58092222 68.125 506.9375 C65.04172381 509.87395352 63.51123532 510.6372025 59.375 510.875 C48.76257203 510.54912448 40.26611404 498.46023281 33.25 491.3828125 C31.98391929 490.11299551 30.71739174 488.8436239 29.45043945 487.57467651 C26.13838119 484.25503028 22.83237685 480.92941958 19.52764893 477.60247803 C16.14580618 474.20007201 12.75820087 470.80341392 9.37109375 467.40625 C2.74178252 460.7555743 -3.88113958 454.09857547 -10.5 447.4375 C-14.5795719 449.05551826 -17.29270133 451.97624421 -20.30664062 455.04882812 C-20.87626022 455.62136826 -21.44587982 456.19390839 -22.03276062 456.78379822 C-23.26647791 458.02511484 -24.49787956 459.26873629 -25.72721863 460.51438904 C-27.67300692 462.48572695 -29.62499502 464.45072946 -31.57873535 466.41418457 C-35.72477171 470.58306905 -39.86293515 474.75971483 -44 478.9375 C-48.79421689 483.77890543 -53.59159982 488.61708038 -58.39750671 493.44688416 C-60.32044485 495.38278772 -62.23725967 497.32461788 -64.15393066 499.26672363 C-65.33344323 500.45350164 -66.51323772 501.63999954 -67.69335938 502.82617188 C-68.22438766 503.36753281 -68.75541595 503.90889374 -69.30253601 504.46665955 C-73.30858704 508.47384897 -76.21577274 510.72025098 -81.9375 510.75 C-85.89937109 510.65225647 -88.39813965 510.06938151 -91.5 507.4375 C-93.21096973 504.59596017 -93.81698653 502.36926789 -93.875 499.0625 C-93.90335938 498.33289063 -93.93171875 497.60328125 -93.9609375 496.8515625 C-92.77415831 490.63605794 -87.56551868 486.33371365 -83.0949707 482.24975586 C-81.78349128 481.03086102 -80.47258955 479.81134439 -79.16218567 478.59129333 C-78.47173471 477.95125303 -77.78128376 477.31121273 -77.06991005 476.65177727 C-72.60361983 472.48689204 -68.20700086 468.24822056 -63.79844379 464.02242184 C-59.9410832 460.33280883 -56.06274083 456.67235284 -52.12670898 453.06665039 C-48.29789176 449.55640397 -44.54534921 445.97809879 -40.8309536 442.34713936 C-39.4190933 440.99120963 -37.98287621 439.66009388 -36.52120399 438.35801506 C-28.35631497 431.05497647 -24.01397715 425.16459833 -23.27539772 413.92970783 C-22.98462414 407.42869891 -23.13883016 400.93309161 -23.5 394.4375 C-24.51214286 394.43934359 -25.52428572 394.44118717 -26.56709957 394.44308662 C-51.205282 394.48750399 -75.84345922 394.52036022 -100.48167324 394.54112434 C-112.39656943 394.55143284 -124.31143916 394.56548508 -136.22631836 394.58837891 C-146.61243856 394.60832577 -156.9985396 394.62121954 -167.38467842 394.62567699 C-172.88302201 394.62828216 -178.38131077 394.63439667 -183.87963676 394.64896011 C-189.0579599 394.66256446 -194.23620575 394.66671685 -199.41454506 394.66371536 C-201.31197403 394.66426425 -203.20940567 394.66822464 -205.10681915 394.67591095 C-207.70492781 394.68591688 -210.30274778 394.6834484 -212.90086365 394.67800903 C-214.01715193 394.68674756 -214.01715193 394.68674756 -215.15599149 394.69566262 C-223.06487978 394.65115648 -230.23764424 393.56124563 -236.5 388.4375 C-244.10397957 380.6566837 -244.94484209 373.1021868 -244.86076355 362.73168945 C-244.86332682 361.56920874 -244.8658901 360.40672802 -244.86853105 359.20902061 C-244.87260342 356.00031301 -244.86328403 352.79197312 -244.84819686 349.58330894 C-244.83519844 346.1164783 -244.83962864 342.64966371 -244.84190369 339.18281555 C-244.84347402 333.18224056 -244.83408995 327.18176369 -244.81719017 321.18121338 C-244.79277215 312.50552338 -244.78499204 303.82988066 -244.7812262 295.15416002 C-244.7746661 281.07719309 -244.75471695 267.00027842 -244.72631836 252.92333984 C-244.69876634 239.25179302 -244.67753835 225.5802604 -244.66479492 211.90869141 C-244.66400675 211.06547345 -244.66321858 210.22225549 -244.66240653 209.35348547 C-244.65849131 205.12315846 -244.65470021 200.89283136 -244.65097082 196.6625042 C-244.61988868 161.58746555 -244.56706493 126.5124876 -244.5 91.4375 C-245.11270752 91.38416504 -245.72541504 91.33083008 -246.35668945 91.27587891 C-247.16323975 91.19772949 -247.96979004 91.11958008 -248.80078125 91.0390625 C-249.99828003 90.92812256 -249.99828003 90.92812256 -251.2199707 90.81494141 C-256.95552535 89.86546422 -260.54000576 85.56953647 -264.203125 81.4140625 C-267.38729102 76.56108658 -267.8265289 71.42791304 -267.87109375 65.765625 C-267.88012222 65.04316589 -267.8891507 64.32070679 -267.89845276 63.57635498 C-267.91289418 62.0535492 -267.92182673 60.53068223 -267.92553711 59.0078125 C-267.93739824 56.70723814 -267.9866058 54.40938179 -268.03710938 52.109375 C-268.14130964 42.69319292 -267.40032432 34.72044229 -260.71459961 27.51269531 C-254.80093372 21.8743072 -248.51107276 21.14084228 -240.65420532 21.19699097 C-239.33569519 21.19442769 -239.33569519 21.19442769 -237.99054849 21.19181263 C-235.05172095 21.18852423 -232.11312284 21.19951078 -229.17431641 21.21044922 C-227.06508388 21.21101347 -224.95585095 21.2106965 -222.84661865 21.20956421 C-217.12398154 21.20899025 -211.40142823 21.22075163 -205.6788106 21.23471212 C-199.69704138 21.24721223 -193.71527025 21.24838942 -187.73348999 21.25076294 C-176.40764493 21.25697982 -165.08183847 21.27339348 -153.75601041 21.29346192 C-140.86132151 21.31581443 -127.96663076 21.32681272 -115.07192731 21.33685279 C-88.54793014 21.35775949 -62.02396723 21.39293955 -35.5 21.4375 C-35.37067078 20.74562592 -35.24134155 20.05375183 -35.10809326 19.34091187 C-34.93417053 18.43612091 -34.7602478 17.53132996 -34.58105469 16.59912109 C-34.32518585 15.25193497 -34.32518585 15.25193497 -34.06414795 13.87753296 C-32.78525181 8.34609614 -28.8949087 4.18825942 -24.3125 1 C-17.36730797 -2.85844002 -7.30989735 -3.32139025 0 0 Z M-243.5 45.4375 C-243.5 52.6975 -243.5 59.9575 -243.5 67.4375 C-90.38 67.4375 62.74 67.4375 220.5 67.4375 C220.5 60.1775 220.5 52.9175 220.5 45.4375 C67.38 45.4375 -85.74 45.4375 -243.5 45.4375 Z M-220.5 91.4375 C-220.5 183.1775 -220.5 274.9175 -220.5 369.4375 C-82.56 369.4375 55.38 369.4375 197.5 369.4375 C197.5 277.6975 197.5 185.9575 197.5 91.4375 C59.56 91.4375 -78.38 91.4375 -220.5 91.4375 Z " fill="#000000" transform="translate(267.5,1.5625)"/>
<path d="M0 0 C0.9993306 -0.00846954 1.99866119 -0.01693909 3.02827454 -0.02566528 C6.31870392 -0.04898711 9.60866427 -0.05005845 12.89916992 -0.04882812 C15.19691656 -0.05593328 17.49466142 -0.0636328 19.79240417 -0.07189941 C24.60481702 -0.08533371 29.41706585 -0.08691795 34.22949219 -0.08105469 C40.37956318 -0.07516391 46.52884332 -0.10573033 52.67876148 -0.14617157 C57.4238861 -0.17209368 62.16882153 -0.17492177 66.91400719 -0.17127991 C69.18049797 -0.17296734 71.44699785 -0.18257333 73.71341896 -0.20042419 C76.89150641 -0.2226993 80.06800909 -0.21286719 83.24609375 -0.1953125 C84.17162048 -0.20857574 85.09714722 -0.22183899 86.05072021 -0.23550415 C93.37564946 -0.14206676 99.82445233 1.95694544 105.43966389 6.82718658 C112.01551253 14.16695099 112.25760048 21.46243155 112.22119141 30.83764648 C112.22805466 32.07427536 112.23491791 33.31090424 112.24198914 34.58500671 C112.25711043 37.96124193 112.2587634 41.33692296 112.25304675 44.71315074 C112.24994641 47.53858498 112.25605672 50.36396974 112.2620855 53.18939692 C112.27610999 59.85832183 112.27458682 66.52711857 112.26318359 73.19604492 C112.25170425 80.06090916 112.26577935 86.92538264 112.29258007 93.79019541 C112.31477806 99.6987208 112.32136526 105.6071239 112.31550366 111.515688 C112.31214263 115.0382073 112.31449172 118.56047616 112.33175468 122.08296013 C112.35017648 126.01306194 112.33599452 129.9426877 112.31884766 133.87280273 C112.33334961 135.60850525 112.33334961 135.60850525 112.34814453 137.37927246 C112.2733192 145.58067297 110.88870621 150.76724696 105.50463867 157.16992188 C97.65762046 163.73951852 90.36345178 164.57038795 80.45043945 164.56518555 C79.52607086 164.56854416 78.60170227 164.57190277 77.64932251 164.57536316 C74.60368494 164.58483617 71.55810255 164.58681439 68.51245117 164.58789062 C66.38784767 164.59110556 64.26324439 164.59446981 62.13864136 164.59797668 C57.68853238 164.60395869 53.23844279 164.60581752 48.78833008 164.60522461 C43.09678655 164.605123 37.4053678 164.6187782 31.71385384 164.63599682 C27.32656283 164.64713541 22.93930183 164.64914325 18.55199814 164.64861488 C16.45412643 164.64979207 14.35625388 164.65419917 12.25839615 164.66194725 C9.31971838 164.67178531 6.3813094 164.66885408 3.44262695 164.6628418 C2.58314453 164.6684613 1.72366211 164.67408081 0.83813477 164.67987061 C-7.70647806 164.635628 -15.52707734 163.10862614 -22.18286133 157.41992188 C-26.18284356 152.35063746 -28.29773693 147.76728408 -28.33676147 141.26707458 C-28.34966217 139.66704842 -28.34966217 139.66704842 -28.36282349 138.03469849 C-28.36708344 136.86430023 -28.37134338 135.69390198 -28.37573242 134.48803711 C-28.38390991 133.25520493 -28.3920874 132.02237274 -28.4005127 130.75218201 C-28.42538014 126.66096318 -28.44204295 122.56978135 -28.45629883 118.47851562 C-28.46166046 117.06746985 -28.46703797 115.65642414 -28.47243118 114.24537849 C-28.4940609 108.37168355 -28.51279384 102.49799131 -28.52405357 96.62426662 C-28.54026707 88.22287814 -28.57337977 79.82195401 -28.63045442 71.42074054 C-28.66926056 65.50549848 -28.68869911 59.59038003 -28.69397414 53.67501408 C-28.69761455 50.14666628 -28.70949328 46.61881402 -28.74207687 43.09060478 C-28.77798137 39.14612384 -28.77375955 35.20221664 -28.76635742 31.25756836 C-28.78276276 30.10133972 -28.79916809 28.94511108 -28.81607056 27.75384521 C-28.7545831 19.72336794 -27.17323738 12.99517204 -21.77547264 6.80625057 C-15.15026807 0.83012061 -8.50397817 -0.02675161 0 0 Z M-4.18286133 24.41992188 C-4.18286133 62.36992187 -4.18286133 100.31992188 -4.18286133 139.41992188 C26.17713867 139.41992188 56.53713867 139.41992188 87.81713867 139.41992188 C87.81713867 101.46992188 87.81713867 63.51992187 87.81713867 24.41992188 C57.45713867 24.41992188 27.09713867 24.41992188 -4.18286133 24.41992188 Z " fill="#000000" transform="translate(121.182861328125,138.580078125)"/>
<path d="M0 0 C1.14055344 -0.00511093 2.28110687 -0.01022186 3.45622253 -0.01548767 C7.22094999 -0.02937114 10.98549414 -0.02842787 14.75024414 -0.02612305 C17.37048918 -0.03001048 19.99073358 -0.03434525 22.61097717 -0.03910828 C28.10101951 -0.04731145 33.59101036 -0.04641965 39.08105469 -0.04101562 C45.41587847 -0.0349757 51.75048015 -0.04729098 58.08526605 -0.06858569 C64.19350684 -0.08835945 70.30164413 -0.09137152 76.40991402 -0.08785057 C79.00263554 -0.08836374 81.59536062 -0.09360066 84.18806267 -0.10366249 C87.81435094 -0.11600906 91.44012609 -0.10924538 95.06640625 -0.09765625 C96.1352002 -0.10529999 97.20399414 -0.11294373 98.30517578 -0.12081909 C104.95597783 -0.07387828 110.11435551 0.4878223 115.47290039 4.7746582 C118.12808963 8.31491052 117.89000165 12.03918994 117.59790039 16.2746582 C115.92750995 19.94951717 114.04908875 22.1830289 110.59790039 24.2746582 C107.57927267 25.21803556 104.83786428 25.40415887 101.68424988 25.4151001 C100.2018708 25.42366531 100.2018708 25.42366531 98.68954468 25.43240356 C97.61153595 25.43352142 96.53352722 25.43463928 95.42285156 25.43579102 C93.71245949 25.44323837 93.71245949 25.44323837 91.96751404 25.45083618 C88.19195962 25.46545193 84.41644721 25.47225871 80.64086914 25.4777832 C78.0177663 25.48353494 75.39466348 25.48929267 72.77156067 25.49505615 C67.97276066 25.50462258 63.17396972 25.51052246 58.37516135 25.5135529 C51.32243389 25.51803178 44.26990042 25.53557501 37.21723193 25.5645535 C31.09939786 25.58881427 24.98164362 25.59649912 18.86376381 25.59822845 C16.26545467 25.60125491 13.66714636 25.60928317 11.06886864 25.62241364 C7.43280738 25.63947755 3.79721792 25.63759273 0.16113281 25.63110352 C-1.44677124 25.64492569 -1.44677124 25.64492569 -3.0871582 25.6590271 C-10.18317778 25.61937792 -15.3176246 24.96368769 -20.83959961 20.1496582 C-23.03101245 16.11745858 -23.31106755 12.76416943 -22.40209961 8.2746582 C-20.69826312 4.85248449 -18.43644673 2.75387246 -14.93504333 1.13166809 C-9.93710795 -0.08071466 -5.12552381 -0.01185828 0 0 Z " fill="#000000" transform="translate(301.402099609375,277.725341796875)"/>
<path d="M0 0 C0.98825272 -0.00571014 1.97650543 -0.01142029 2.9947052 -0.01730347 C4.07271393 -0.01842133 5.15072266 -0.01953918 6.26139832 -0.02069092 C7.4016597 -0.02565582 8.54192108 -0.03062073 9.71673584 -0.03573608 C13.49229026 -0.05035183 17.26780267 -0.05715861 21.04338074 -0.06268311 C23.66648357 -0.06843484 26.2895864 -0.07419257 28.91268921 -0.07995605 C33.71148921 -0.08952248 38.51028016 -0.09542236 43.30908853 -0.09845281 C50.36181599 -0.10293168 57.41434946 -0.12047491 64.46701795 -0.1494534 C70.58485201 -0.17371417 76.70260626 -0.18139902 82.82048607 -0.18312836 C85.4187952 -0.18615481 88.01710352 -0.19418307 90.61538124 -0.20731354 C94.2514425 -0.22437745 97.88703196 -0.22249263 101.52311707 -0.21600342 C103.13102112 -0.22982559 103.13102112 -0.22982559 104.77140808 -0.243927 C111.43509103 -0.20669352 116.59217393 0.34510145 121.96134949 4.64044189 C124.61653873 8.18069421 124.37845075 11.90497363 124.08634949 16.14044189 C122.41595905 19.81530087 120.53753784 22.04881259 117.08634949 24.14044189 C114.06772176 25.08381925 111.32631338 25.26994256 108.17269897 25.28088379 C106.6903199 25.28944901 106.6903199 25.28944901 105.17799377 25.29818726 C104.09998505 25.29930511 103.02197632 25.30042297 101.91130066 25.30157471 C100.20090858 25.30902206 100.20090858 25.30902206 98.45596313 25.31661987 C94.68040872 25.33123562 90.90489631 25.3380424 87.12931824 25.34356689 C84.5062154 25.34931863 81.88311258 25.35507636 79.26000977 25.36083984 C74.46120976 25.37040627 69.66241881 25.37630615 64.86361045 25.3793366 C57.81088299 25.38381547 50.75834952 25.4013587 43.70568103 25.43033719 C37.58784696 25.45459796 31.47009271 25.46228281 25.35221291 25.46401215 C22.75390377 25.4670386 20.15559545 25.47506686 17.55731773 25.48819733 C13.92125648 25.50526124 10.28566702 25.50337642 6.64958191 25.49688721 C5.04167786 25.51070938 5.04167786 25.51070938 3.40129089 25.52481079 C-3.69989114 25.48513277 -8.88325621 24.86002653 -14.35115051 19.95294189 C-16.42561531 16.21890526 -16.61757542 13.32158622 -15.91365051 9.14044189 C-14.27005722 5.44235699 -12.37147885 3.23609543 -8.91365051 1.14044189 C-5.89502279 0.19706454 -3.15361441 0.01094123 0 0 Z " fill="#000000" transform="translate(294.9136505126953,184.85955810546875)"/>
<path d="M0 0 C0.73250977 -0.00686325 1.46501953 -0.0137265 2.21972656 -0.02079773 C4.62585172 -0.03900495 7.03132116 -0.03523763 9.4375 -0.02954102 C11.11849173 -0.03410531 12.79948159 -0.03941162 14.48046875 -0.04542542 C17.99747313 -0.05434421 21.51425028 -0.05194697 25.03125 -0.04199219 C29.53048774 -0.03049585 34.0289414 -0.05072997 38.52807617 -0.07990932 C41.9974462 -0.09828377 45.46662867 -0.09797656 48.93603516 -0.0922718 C50.594575 -0.09211879 52.25312772 -0.09814713 53.91162109 -0.11056328 C56.23324356 -0.12549814 58.55342169 -0.11478019 60.875 -0.09765625 C62.19371094 -0.09749008 63.51242187 -0.09732391 64.87109375 -0.09715271 C69.05491538 0.4908213 71.18922906 1.74433282 74.4375 4.40405273 C76.85776278 8.33697975 77.80297525 11.10215896 76.875 15.59155273 C75.78724174 19.05626422 74.37957695 21.17520656 71.4375 23.40405273 C67.93443955 24.57173955 64.76915841 24.56704762 61.1237793 24.58105469 C60.38195404 24.58762589 59.64012878 24.59419708 58.87582397 24.60096741 C56.42112118 24.62067613 53.96647948 24.63235733 51.51171875 24.64233398 C50.25281798 24.64844728 50.25281798 24.64844728 48.96848488 24.65468407 C44.52659985 24.6755341 40.08474563 24.68984063 35.64282227 24.69921875 C31.05949974 24.7102832 26.4766627 24.7446863 21.89351177 24.78439045 C18.36498625 24.81055749 14.83657643 24.81891063 11.30796242 24.82250023 C9.61869845 24.82736569 7.92943963 24.83897859 6.24027061 24.85753822 C3.87292552 24.88193325 1.50683708 24.88096461 -0.8605957 24.87402344 C-1.55431778 24.8868335 -2.24803986 24.89964355 -2.96278381 24.9128418 C-7.92979 24.85992701 -10.71670567 23.4752944 -14.5625 20.40405273 C-16.94144125 17.37630932 -16.92838928 14.15616656 -16.80859375 10.36499023 C-16.43250831 7.36824596 -15.52191609 5.69003818 -13.5625 3.40405273 C-8.91755115 0.57361743 -5.4012469 0.02212983 0 0 Z " fill="#000000" transform="translate(295.5625,138.595947265625)"/>
<path d="M0 0 C1.04135605 -0.0127597 2.0827121 -0.02551941 3.15562439 -0.03866577 C4.27030594 -0.04089142 5.38498749 -0.04311707 6.53344727 -0.04541016 C8.26607567 -0.05539536 8.26607567 -0.05539536 10.03370667 -0.06558228 C12.47378957 -0.07569646 14.91390006 -0.08039968 17.35400391 -0.08007812 C21.08290198 -0.08445277 24.81061775 -0.12079172 28.53930664 -0.15869141 C30.91234948 -0.1645595 33.28539792 -0.16852894 35.65844727 -0.17041016 C36.77110458 -0.18478119 37.8837619 -0.19915222 39.03013611 -0.21395874 C45.20751842 -0.17756742 49.01255505 0.06378548 53.66235352 4.29052734 C56.49118332 8.53377204 56.31503353 12.30787263 55.66235352 17.29052734 C53.53394732 20.93922369 51.52603343 22.71594933 47.66235352 24.29052734 C45.17166138 24.55795288 45.17166138 24.55795288 42.34643555 24.58105469 C41.28498322 24.59381439 40.22353088 24.6065741 39.12991333 24.61972046 C37.41733841 24.62305893 37.41733841 24.62305893 35.67016602 24.62646484 C34.49146942 24.63312164 33.31277283 24.63977844 32.09835815 24.64663696 C29.60522014 24.65676119 27.11205504 24.66145405 24.61889648 24.66113281 C20.80870798 24.66550285 16.9996806 24.70181866 13.18969727 24.73974609 C10.76652414 24.74561489 8.34334552 24.74958386 5.92016602 24.75146484 C4.78249786 24.76583588 3.64482971 24.78020691 2.47268677 24.79501343 C-3.76602376 24.75906104 -7.61551412 24.525637 -12.33764648 20.29052734 C-14.68511188 17.30284412 -14.75898188 14.07124545 -14.65405273 10.32177734 C-14.12018955 6.89450752 -12.59430625 4.85214113 -10.33764648 2.29052734 C-6.80548016 0.53905571 -3.91947014 0.03275148 0 0 Z " fill="#000000" transform="translate(293.337646484375,231.70947265625)"/>
</svg>
