<?xml version="1.0" standalone="no"?>
<!DOCTYPE svg PUBLIC "-//W3C//DTD SVG 20010904//EN"
 "http://www.w3.org/TR/2001/REC-SVG-20010904/DTD/svg10.dtd">
<svg version="1.0" xmlns="http://www.w3.org/2000/svg"
 width="512.000000pt" height="512.000000pt" viewBox="0 0 512.000000 512.000000"
 preserveAspectRatio="xMidYMid meet">
<metadata>
Created by potrace 1.16, written by Peter Selinger 2001-2019
</metadata>
<g transform="translate(0.000000,512.000000) scale(0.100000,-0.100000)"
fill="#000000" stroke="none">
<path d="M72 4940 c-67 -41 -72 -61 -72 -293 0 -227 3 -243 59 -290 16 -13 46
-28 65 -31 l36 -7 0 -1359 c0 -1268 -1 -1360 -17 -1360 -33 0 -103 -42 -123
-74 -17 -29 -20 -50 -20 -167 0 -150 10 -181 72 -219 32 -20 53 -20 1221 -20
l1187 0 0 -249 0 -249 -30 -12 c-42 -17 -104 -90 -118 -138 -37 -121 22 -251
135 -299 42 -17 144 -17 186 0 113 48 172 178 135 299 -14 48 -76 121 -118
138 l-30 12 0 249 0 249 1188 0 c1167 0 1188 0 1220 20 62 38 72 69 72 219 0
117 -3 138 -20 167 -20 32 -90 74 -123 74 -16 0 -17 92 -17 1360 l0 1359 36 7
c19 3 49 18 65 31 56 47 59 63 59 290 0 232 -5 252 -72 293 -33 20 -56 20
-2488 20 -2432 0 -2455 0 -2488 -20z m4893 -295 l0 -160 -2108 -5 c-2073 -5
-2109 -5 -2123 -24 -20 -28 -17 -80 5 -107 l19 -24 2021 -3 2021 -2 0 -1360 0
-1360 -88 0 c-64 0 -94 -4 -110 -16 -35 -24 -44 -59 -27 -99 7 -19 15 -36 17
-37 2 -1 86 -4 188 -7 l185 -6 3 -77 3 -78 -2411 0 -2411 0 3 78 3 77 2102 5
c1979 5 2104 6 2123 22 31 27 28 91 -6 117 l-27 21 -2013 0 -2014 0 0 1359 0
1359 95 4 c82 3 97 6 117 25 15 16 22 34 21 59 -2 65 -12 68 -216 74 l-182 5
-3 150 c-1 82 0 155 2 162 4 11 448 13 2408 11 l2403 -3 0 -160z m-2347 -4201
c12 -14 22 -36 22 -50 0 -35 -42 -74 -80 -74 -37 0 -80 39 -80 72 0 30 26 67
54 78 29 12 57 3 84 -26z"/>
<path d="M2019 3747 c-60 -23 -106 -56 -139 -100 -61 -82 -61 -87 -58 -708 3
-550 4 -565 24 -610 27 -57 85 -115 144 -143 34 -16 65 -21 127 -21 l82 0 545
272 c340 170 560 286 584 307 54 50 86 117 90 198 5 86 -16 152 -70 213 -37
42 -92 72 -594 323 l-554 277 -72 2 c-43 2 -88 -2 -109 -10z m663 -414 c579
-291 578 -291 578 -372 0 -82 6 -78 -582 -372 -498 -249 -545 -271 -582 -266
-27 4 -50 16 -75 41 l-36 36 -3 546 c-3 604 -4 592 61 633 65 42 68 40 639
-246z"/>
</g>
</svg>
