<svg width="124" height="124" viewBox="0 0 124 124" fill="none" xmlns="http://www.w3.org/2000/svg">
<path d="M44.3817 69.8017L79.67 90.365M79.6183 33.635L44.3817 54.1984M108.5 25.8334C108.5 34.3938 101.56 41.3334 93 41.3334C84.4396 41.3334 77.5 34.3938 77.5 25.8334C77.5 17.273 84.4396 10.3334 93 10.3334C101.56 10.3334 108.5 17.273 108.5 25.8334ZM46.5 62C46.5 70.5605 39.5604 77.5 31 77.5C22.4396 77.5 15.5 70.5605 15.5 62C15.5 53.4396 22.4396 46.5 31 46.5C39.5604 46.5 46.5 53.4396 46.5 62ZM108.5 98.1667C108.5 106.727 101.56 113.667 93 113.667C84.4396 113.667 77.5 106.727 77.5 98.1667C77.5 89.6063 84.4396 82.6667 93 82.6667C101.56 82.6667 108.5 89.6063 108.5 98.1667Z" stroke="#1E1E1E" stroke-width="4" stroke-linecap="round" stroke-linejoin="round"/>
</svg>
