<?xml version="1.0" encoding="UTF-8"?>
<svg version="1.1" xmlns="http://www.w3.org/2000/svg" width="512" height="512">
<path d="M0 0 C0.96163157 -0.01045141 0.96163157 -0.01045141 1.94269004 -0.02111396 C4.09404161 -0.03837955 6.24359706 -0.0199845 8.3949194 -0.0017767 C9.95144196 -0.00682115 11.50795873 -0.0140492 13.06446213 -0.02327484 C17.34403092 -0.04223855 21.62302983 -0.02994044 25.90258443 -0.0125519 C30.51682574 0.00079709 35.13098229 -0.01460605 39.74521542 -0.02637386 C48.78512089 -0.04477285 57.82481053 -0.03622327 66.86470933 -0.01828564 C74.20963311 -0.00427262 81.55449822 -0.00036404 88.89943409 -0.00372791 C89.94391294 -0.00420536 90.98839178 -0.0046828 92.0645215 -0.00517471 C94.18619992 -0.00620101 96.30787833 -0.00725637 98.42955672 -0.00834047 C117.19889221 -0.016912 135.96812333 -0.00021738 154.73743343 0.02948856 C172.96143636 0.05833117 191.18528894 0.06540813 209.40930843 0.04999638 C229.24281514 0.03324653 249.07625043 0.02918726 268.90975899 0.04670674 C271.02342346 0.04855117 273.13708795 0.0503859 275.25075245 0.05221081 C276.81080012 0.05357894 276.81080012 0.05357894 278.40236391 0.05497472 C285.74133102 0.06058737 293.08026333 0.05726619 300.41922855 0.05066586 C309.35879745 0.04294536 318.29821818 0.04963895 327.23775715 0.0748409 C331.80128695 0.08736536 336.36458574 0.09344689 340.92812443 0.08229923 C345.10224421 0.07229512 349.27590225 0.08063401 353.44996559 0.10388041 C354.96332845 0.10906106 356.47673232 0.10743964 357.99007756 0.09848576 C360.04077166 0.08735802 362.09155965 0.10306719 364.14221191 0.12025452 C365.85372282 0.12204174 365.85372282 0.12204174 367.59980971 0.12386507 C371.20540832 0.74688772 372.3856659 1.67547609 374.50818539 4.62641239 C375.00843138 6.90871054 375.00843138 6.90871054 375.00875664 9.46747017 C375.01857093 10.44545163 375.02838522 11.4234331 375.03849691 12.43105036 C375.0288919 13.50292721 375.0192869 14.57480406 375.00939083 15.67916203 C375.01492523 16.81977414 375.02045962 17.96038625 375.02616173 19.13556236 C375.03981599 22.97200559 375.02477239 26.80780365 375.00989437 30.64423466 C375.01146856 33.38870184 375.01902138 36.13314529 375.02626705 38.87760258 C375.04021208 45.56643409 375.03263433 52.25507703 375.01759147 58.94389958 C375.00074742 66.72935773 375.00393955 74.5147687 375.00768555 82.30023944 C375.01356634 96.18854294 374.99938347 110.07675581 374.97473812 123.96503544 C374.95081206 137.44944499 374.94373537 150.93373347 374.95423031 164.41816044 C374.96563229 179.09433711 374.96757887 193.77045777 374.95313221 208.44663376 C374.95160633 210.01067411 374.95008598 211.57471448 374.94857121 213.13875484 C374.94781339 213.90833952 374.94705558 214.6779242 374.9462748 215.47082962 C374.94152675 220.90116846 374.94338705 226.33148233 374.9476366 231.76182079 C374.95255653 238.37637176 374.946609 244.99080812 374.92674231 251.6053328 C374.91685144 254.9819481 374.91338597 258.35824223 374.91963482 261.73488903 C374.92555316 265.39033079 374.91314847 269.04525171 374.89586544 272.7006464 C374.90488051 274.31180776 374.90488051 274.31180776 374.9140777 275.95551783 C374.90141779 277.4185784 374.90141779 277.4185784 374.88850212 278.91119576 C374.88747299 279.75542408 374.88644386 280.59965241 374.88538355 281.46946341 C374.42070949 284.1266297 373.63704901 285.01503167 371.50818539 286.62641239 C369.17330074 286.98717594 369.17330074 286.98717594 366.39417171 286.96698856 C365.35331921 286.96676197 364.3124667 286.96653538 363.2400732 286.96630192 C361.5571442 286.94307613 361.5571442 286.94307613 359.84021664 286.91938114 C358.1152924 286.91301388 358.1152924 286.91301388 356.3555212 286.90651798 C352.67700598 286.88970429 348.99903547 286.85204616 345.32068539 286.81391239 C342.82915683 286.79886908 340.3376197 286.78518006 337.84607601 286.77289677 C331.73325946 286.73979192 325.62076133 286.68956545 319.50818539 286.62641239 C319.51706783 287.26898991 319.52595028 287.91156742 319.53510189 288.57361698 C319.62354187 295.25681514 319.68390592 301.93984729 319.72791195 308.6234827 C319.74803703 311.11834305 319.77533991 313.61315617 319.8099432 316.1078577 C319.85841996 319.69228607 319.88114559 323.27609124 319.89881039 326.86078739 C319.91945553 327.97757877 319.94010067 329.09437016 319.96137142 330.2450037 C319.96167355 331.28578068 319.96197567 332.32655766 319.96228695 333.39887333 C319.9711694 334.3137653 319.98005184 335.22865726 319.98920345 336.17127323 C319.34186861 339.47530117 318.19071443 340.63533338 315.50818539 342.62641239 C313.09101009 343.10743046 313.09101009 343.10743046 310.3724432 343.08051395 C308.84130886 343.08006077 308.84130886 343.08006077 307.27924252 343.07959843 C306.18432491 343.05895329 305.08940731 343.03830814 303.96131039 343.01703739 C302.83497189 343.0113776 301.70863338 343.00571781 300.54816341 342.99988651 C296.95107156 342.97749784 293.35497613 342.92729452 289.75818539 342.87641239 C287.31939769 342.85635072 284.88059438 342.83809937 282.44177914 342.82172489 C276.46357464 342.77762483 270.4859512 342.71068702 264.50818539 342.62641239 C264.51928844 343.25424122 264.5303915 343.88207005 264.54183102 344.52892399 C264.65249019 351.06623953 264.72788011 357.60328885 264.78284359 364.14130497 C264.80798035 366.58086803 264.84209485 369.02035584 264.88538265 371.45966434 C264.94606768 374.96725885 264.97440438 378.47385729 264.99646664 381.98188114 C265.02227306 383.07163746 265.04807949 384.16139378 265.07466793 385.28417301 C265.07504559 386.30485371 265.07542324 387.3255344 265.07581234 388.37714481 C265.0869154 389.27205128 265.09801846 390.16695774 265.10945797 391.08898258 C264.23291178 394.78809425 262.40334226 396.22344274 259.50818539 398.62641239 C256.47446054 399.25200754 256.47446054 399.25200754 253.01637077 399.25282478 C252.37528306 399.25979239 251.73419534 399.26676 251.07368073 399.27393875 C248.92232917 399.29120433 246.77277371 399.27280928 244.62145138 399.25460148 C243.06492881 399.25964593 241.50841205 399.26687398 239.95190865 399.27609962 C235.67233986 399.29506334 231.39334094 399.28276523 227.11378634 399.26537669 C222.49954504 399.25202769 217.88538849 399.26743084 213.27115536 399.27919865 C204.23124988 399.29759763 195.19156025 399.28904806 186.15166145 399.27111042 C178.80673766 399.2570974 171.46187256 399.25318882 164.11693668 399.2565527 C163.07245784 399.25703014 162.02797899 399.25750758 160.95184927 399.25799949 C158.83017085 399.2590258 156.70849244 399.26008115 154.58681405 399.26116525 C135.81747856 399.26973678 117.04824744 399.25304216 98.27893734 399.22333622 C80.05493442 399.19449361 61.83108183 399.18741665 43.60706234 399.20282841 C23.77355563 399.21957825 3.94012034 399.22363753 -15.89338821 399.20611805 C-18.00705269 399.20427361 -20.12071718 399.20243888 -22.23438168 399.20061398 C-23.79442935 399.19924584 -23.79442935 399.19924584 -25.38599314 399.19785007 C-32.72496024 399.19223741 -40.06389256 399.19555859 -47.40285778 399.20215893 C-56.34242667 399.20987942 -65.28184741 399.20318584 -74.22138638 399.17798389 C-78.78491618 399.16545942 -83.34821497 399.1593779 -87.91175365 399.17052555 C-92.08587344 399.18052966 -96.25953147 399.17219077 -100.43359482 399.14894437 C-101.94695767 399.14376372 -103.46036155 399.14538514 -104.97370679 399.15433902 C-107.02440089 399.16546676 -109.07518888 399.14975759 -111.12584114 399.13257027 C-112.26684841 399.13137878 -113.40785568 399.1301873 -114.58343893 399.12895972 C-118.18903755 398.50593706 -119.36929512 397.57734869 -121.49181461 394.62641239 C-121.9920606 392.34411424 -121.9920606 392.34411424 -121.99238586 389.78535461 C-122.00220015 388.80737315 -122.01201445 387.82939169 -122.02212614 386.82177442 C-122.01252113 385.74989757 -122.00291613 384.67802072 -121.99302006 383.57366276 C-121.99855445 382.43305065 -122.00408885 381.29243854 -122.00979096 380.11726242 C-122.02344521 376.2808192 -122.00840162 372.44502114 -121.9935236 368.60859013 C-121.99509779 365.86412294 -122.00265061 363.11967949 -122.00989628 360.37522221 C-122.02384131 353.6863907 -122.01626356 346.99774776 -122.0012207 340.3089252 C-121.98437665 332.52346705 -121.98756878 324.73805609 -121.99131478 316.95258535 C-121.99719557 303.06428185 -121.9830127 289.17606897 -121.95836735 275.28778934 C-121.93444129 261.8033798 -121.92736459 248.31909131 -121.93785954 234.83466434 C-121.94926151 220.15848767 -121.95120809 205.48236701 -121.93676144 190.80619103 C-121.93523556 189.24215067 -121.9337152 187.67811031 -121.93220043 186.11406994 C-121.93144262 185.34448526 -121.9306848 184.57490058 -121.92990403 183.78199516 C-121.92515598 178.35165632 -121.92701628 172.92134245 -121.93126583 167.49100399 C-121.93618576 160.87645303 -121.93023823 154.26201666 -121.91037153 147.64749198 C-121.90048067 144.27087668 -121.8970152 140.89458255 -121.90326405 137.51793575 C-121.90918238 133.86249399 -121.89677769 130.20757308 -121.87949467 126.55217838 C-121.88550471 125.47807081 -121.89151476 124.40396324 -121.89770693 123.29730695 C-121.88504701 121.83424638 -121.88504701 121.83424638 -121.87213135 120.34162903 C-121.87110222 119.4974007 -121.87007309 118.65317238 -121.86901277 117.78336138 C-121.40433872 115.12619508 -120.62067824 114.23779311 -118.49181461 112.62641239 C-116.15692997 112.26564884 -116.15692997 112.26564884 -113.37780094 112.28583622 C-111.81652218 112.28617611 -111.81652218 112.28617611 -110.22370243 112.28652287 C-108.54077343 112.30974865 -108.54077343 112.30974865 -106.82384586 112.33344364 C-105.67389637 112.33768848 -104.52394688 112.34193333 -103.33915043 112.3463068 C-99.6606352 112.3631205 -95.98266469 112.40077862 -92.30431461 112.43891239 C-89.81278606 112.45395571 -87.32124893 112.46764472 -84.82970524 112.47992802 C-78.71688868 112.51303286 -72.60439056 112.56325934 -66.49181461 112.62641239 C-66.50069706 111.98383488 -66.50957951 111.34125736 -66.51873112 110.6792078 C-66.6071711 103.99600964 -66.66753515 97.31297749 -66.71154118 90.62934208 C-66.73166625 88.13448174 -66.75896913 85.63966861 -66.79357243 83.14496708 C-66.84204918 79.56053871 -66.86477482 75.97673355 -66.88243961 72.39203739 C-66.90308475 71.27524601 -66.9237299 70.15845463 -66.94500065 69.00782108 C-66.94530277 67.96704411 -66.9456049 66.92626713 -66.94591618 65.85395145 C-66.95479862 64.93905949 -66.96368107 64.02416752 -66.97283268 63.08155155 C-66.32549783 59.77752361 -65.17434365 58.6174914 -62.49181461 56.62641239 C-60.07463932 56.14539433 -60.07463932 56.14539433 -57.35607243 56.17231083 C-55.82493809 56.17276402 -55.82493809 56.17276402 -54.26287174 56.17322636 C-53.16795414 56.1938715 -52.07303654 56.21451664 -50.94493961 56.23578739 C-49.81860111 56.24144718 -48.69226261 56.24710697 -47.53179264 56.25293827 C-43.93470079 56.27532694 -40.33860535 56.32553026 -36.74181461 56.37641239 C-34.30302692 56.39647407 -31.8642236 56.41472541 -29.42540836 56.43109989 C-23.44720387 56.47519995 -17.46958043 56.54213776 -11.49181461 56.62641239 C-11.50291767 55.99858356 -11.51402073 55.37075474 -11.52546024 54.72390079 C-11.63611942 48.18658525 -11.71150933 41.64953593 -11.76647282 35.11151981 C-11.79160958 32.67195675 -11.82572408 30.23246894 -11.86901188 27.79316044 C-11.9296969 24.28556594 -11.95803361 20.77896749 -11.98009586 17.27094364 C-12.00590229 16.18118732 -12.03170872 15.09143101 -12.05829716 13.96865177 C-12.05867481 12.94797108 -12.05905247 11.92729038 -12.05944157 10.87567997 C-12.07054462 9.98077351 -12.08164768 9.08586704 -12.0930872 8.1638422 C-10.5913927 1.8265428 -5.99593274 0.001417 0 0 Z M3.50818539 15.62641239 C3.50818539 29.15641239 3.50818539 42.68641239 3.50818539 56.62641239 C7.41028332 56.63227863 11.31238125 56.63814487 15.33272457 56.64418888 C51.08714042 56.69932418 86.84150269 56.76925634 122.59585773 56.85539867 C127.27862879 56.86666731 131.96140015 56.87780568 136.64417171 56.88886356 C137.57645659 56.89106725 138.50874147 56.89327093 139.4692774 56.89554139 C154.57951434 56.93094725 169.68975122 56.9557928 184.80001429 56.97675941 C200.29592213 56.99849531 215.79177596 57.03152458 231.28763789 57.07511395 C240.85517386 57.10166888 250.42264252 57.11933592 259.99021354 57.12575843 C266.54440447 57.1310006 273.09851058 57.14717794 279.65265612 57.17207805 C283.4382923 57.18613342 287.2237765 57.19524892 291.00944042 57.19142056 C295.10735474 57.18740191 299.20483473 57.20634932 303.30269527 57.22768497 C305.11055129 57.22041361 305.11055129 57.22041361 306.95492965 57.21299535 C308.04772222 57.22245189 309.14051478 57.23190843 310.26642227 57.24165154 C311.21306506 57.24355014 312.15970784 57.24544874 313.13503677 57.24740487 C315.50818539 57.62641239 315.50818539 57.62641239 317.31174803 58.9214344 C319.40776867 61.90835974 318.92792831 65.47622963 318.9069128 68.99755192 C318.91355963 69.86174474 318.92020646 70.72593756 318.9270547 71.61631805 C318.94576343 74.52304019 318.94307414 77.42935355 318.94055843 80.33612919 C318.94957079 82.41536895 318.9598967 84.49460337 318.97144222 86.5738306 C318.99910018 92.22844519 319.00830867 97.88295922 319.01429629 103.5376327 C319.02365711 109.44339081 319.04985857 115.34907311 319.07430172 121.25478458 C319.11803362 132.44257377 319.14653947 143.63034831 319.1696251 154.81819707 C319.19664095 167.55325524 319.24055465 180.28823741 319.28591383 193.0232414 C319.37885596 219.22426831 319.44826191 245.42528772 319.50818539 271.62641239 C332.70818539 271.62641239 345.90818539 271.62641239 359.50818539 271.62641239 C359.50818539 187.14641239 359.50818539 102.66641239 359.50818539 15.62641239 C242.02818539 15.62641239 124.54818539 15.62641239 3.50818539 15.62641239 Z M-51.49181461 71.62641239 C-51.49181461 85.15641239 -51.49181461 98.68641239 -51.49181461 112.62641239 C-47.58971668 112.63005802 -43.68761875 112.63370365 -39.66727543 112.63745975 C-3.91285165 112.67271061 31.84149788 112.72770649 67.59585773 112.80433334 C72.27862874 112.81435122 76.96140011 112.82419528 81.64417171 112.83393192 C83.04259903 112.83684398 83.04259903 112.83684398 84.4692774 112.83981487 C99.57951947 112.87086532 114.68974633 112.88782401 129.80001429 112.89960662 C145.29593232 112.91200242 160.79177035 112.9394682 176.28763789 112.98102546 C185.8551961 113.00620596 195.42262172 113.01952636 204.99021354 113.01784196 C211.54442378 113.01781229 218.09849861 113.0323746 224.65265612 113.05857667 C228.43833551 113.07327491 232.22373721 113.08138128 236.00944042 113.07221508 C240.1074587 113.06246014 244.20473649 113.08335161 248.30269527 113.10743046 C249.50793262 113.09967004 250.71316996 113.09190962 251.95492965 113.08391404 C253.04772222 113.09536163 254.14051478 113.10680922 255.26642227 113.11860371 C256.68638645 113.12088203 256.68638645 113.12088203 258.13503677 113.12320638 C260.50818539 113.62641239 260.50818539 113.62641239 262.31174803 115.42241049 C264.16436239 118.83518054 263.92970541 122.29274327 263.9069128 126.07984257 C263.91355963 126.94080626 263.92020646 127.80176996 263.9270547 128.68882346 C263.94573225 131.57862113 263.94307621 134.46800649 263.94055843 137.3578577 C263.94957268 139.42739289 263.95989907 141.49692272 263.97144222 143.56644535 C263.99907786 149.19001008 264.00830567 154.81347369 264.01429629 160.43709755 C264.02366288 166.31215345 264.04986485 172.18713331 264.07430172 178.06214237 C264.11801766 189.18969105 264.14653334 200.31722501 264.1696251 211.44483352 C264.19664947 224.11220171 264.24056267 236.77949361 264.28591383 249.44680738 C264.37883313 275.5066455 264.44825084 301.5664761 264.50818539 327.62641239 C277.70818539 327.62641239 290.90818539 327.62641239 304.50818539 327.62641239 C304.50818539 243.14641239 304.50818539 158.66641239 304.50818539 71.62641239 C187.02818539 71.62641239 69.54818539 71.62641239 -51.49181461 71.62641239 Z M-106.49181461 127.62641239 C-106.49181461 212.10641239 -106.49181461 296.58641239 -106.49181461 383.62641239 C10.98818539 383.62641239 128.46818539 383.62641239 249.50818539 383.62641239 C249.50818539 299.14641239 249.50818539 214.66641239 249.50818539 127.62641239 C132.02818539 127.62641239 14.54818539 127.62641239 -106.49181461 127.62641239 Z " fill="#000000" transform="translate(129.49181461334229,56.3735876083374)"/>
<path d="M0 0 C14.30818577 10.93771648 24.5969495 26.1068824 27.3203125 44.15234375 C28.64138035 64.04863467 25.86988558 82.26485782 12.46118164 97.92089844 C4.24802527 107.03797775 -5.1546602 113.86698148 -16.6796875 118.15234375 C-17.53304687 118.47203125 -18.38640625 118.79171875 -19.265625 119.12109375 C-37.17953305 124.66465269 -55.93127504 121.60053562 -72.4296875 113.52734375 C-88.24435727 104.22879355 -99.16188501 89.17485883 -104.4921875 71.77734375 C-108.80228498 52.91143134 -105.33481637 34.63765396 -95.6796875 18.15234375 C-84.85648993 2.19308705 -69.65023074 -7.63196579 -50.7890625 -11.4296875 C-32.73064344 -13.8571383 -15.12833669 -10.43105431 0 0 Z M-76.3671875 18.46484375 C-87.08844179 29.806541 -91.15363281 42.89804058 -90.89453125 58.296875 C-90.04440893 73.5527065 -82.45221323 84.99849524 -71.51953125 95.16015625 C-59.63750059 105.12294784 -45.71159539 107.39962166 -30.6796875 106.15234375 C-16.06899066 103.41772135 -4.75887744 95.52543429 4.140625 83.7421875 C7.96297977 77.83578502 12.3203125 69.3386804 12.3203125 62.15234375 C11.63793015 62.14647751 10.95554779 62.14061127 10.25248718 62.13456726 C3.16357265 62.07073705 -3.92488352 61.98634434 -11.01342773 61.88989258 C-13.66050176 61.85659503 -16.30764761 61.82857833 -18.95483398 61.8059082 C-22.7553576 61.77245164 -26.55522005 61.72013889 -30.35546875 61.6640625 C-31.54304276 61.65767258 -32.73061676 61.65128265 -33.95417786 61.6446991 C-35.05509262 61.62490494 -36.15600739 61.60511078 -37.2902832 61.5847168 C-38.74589409 61.56806221 -38.74589409 61.56806221 -40.23091125 61.55107117 C-42.6796875 61.15234375 -42.6796875 61.15234375 -44.48950195 59.9564209 C-46.10742433 57.50398245 -46.07790907 55.78493317 -46.11206055 52.85473633 C-46.13185471 51.77384232 -46.15164886 50.6929483 -46.17204285 49.57929993 C-46.17843277 48.4135997 -46.18482269 47.24789948 -46.19140625 46.046875 C-46.20935745 44.85253342 -46.22730865 43.65819183 -46.24580383 42.42765808 C-46.30005783 38.60675607 -46.33385179 34.78598004 -46.3671875 30.96484375 C-46.40034715 28.37693553 -46.43483552 25.78904398 -46.47070312 23.20117188 C-46.55579307 16.85167547 -46.62407903 10.50216306 -46.6796875 4.15234375 C-57.74979782 3.88965529 -68.53637328 11.06147572 -76.3671875 18.46484375 Z M-31.6796875 4.15234375 C-31.6796875 18.34234375 -31.6796875 32.53234375 -31.6796875 47.15234375 C-17.4896875 47.15234375 -3.2996875 47.15234375 11.3203125 47.15234375 C9.67860978 34.01872197 3.66918168 22.67735281 -6.6796875 14.15234375 C-14.17579448 8.89369197 -22.3941179 4.15234375 -31.6796875 4.15234375 Z " fill="#000000" transform="translate(161.6796875,209.84765625)"/>
<path d="M0 0 C1.03049135 -0.00445784 2.06098269 -0.00891569 3.12270105 -0.01350862 C4.82622199 -0.01323207 4.82622199 -0.01323207 6.56415749 -0.01294994 C7.76784088 -0.01662663 8.97152427 -0.02030332 10.21168292 -0.02409142 C13.55872981 -0.03322046 16.90572766 -0.03782841 20.25278234 -0.04048073 C23.86022867 -0.04438326 27.46766078 -0.05396149 31.07509804 -0.0626936 C39.78881028 -0.08245724 48.50252369 -0.0925231 57.21625274 -0.10142139 C61.3179459 -0.10580357 65.41963775 -0.11117048 69.52132988 -0.11641026 C83.15245165 -0.13342079 96.78357261 -0.14791631 110.41470337 -0.155159 C113.95212111 -0.15706893 117.48953884 -0.15898926 121.02695656 -0.16094494 C122.34579151 -0.16167055 122.34579151 -0.16167055 123.69126959 -0.16241082 C137.94319875 -0.17071622 152.19504411 -0.19606251 166.44693665 -0.22852562 C181.07280797 -0.26156959 195.69863665 -0.27960526 210.3245455 -0.28280324 C218.53906554 -0.28497057 226.7534633 -0.29375203 234.96794701 -0.31926441 C241.96161203 -0.34093493 248.95512507 -0.34903983 255.94881986 -0.33929763 C259.51809862 -0.33474254 263.08706356 -0.33670872 266.65629959 -0.35605907 C270.52342213 -0.37684376 274.39010871 -0.36673899 278.25727272 -0.35352612 C279.3884919 -0.36449536 280.51971108 -0.37546461 281.68520963 -0.38676625 C289.26758227 -0.32394585 289.26758227 -0.32394585 293.236866 2.03750801 C295.20508688 4.32911141 295.6753386 5.22025927 295.53769875 8.19672108 C295.03769875 12.13422108 295.03769875 12.13422108 293.82182217 13.85654503 C291.43621365 15.56496655 289.91545186 15.51122611 286.99172401 15.51453781 C285.94258229 15.52297775 284.89344057 15.53141769 283.81250668 15.54011339 C282.07775727 15.53109832 282.07775727 15.53109832 280.30796242 15.52190113 C279.08245013 15.52728667 277.85693785 15.53267221 276.59428883 15.53822094 C273.18621801 15.55008165 269.77863411 15.54841539 266.3705821 15.54105413 C262.69771814 15.53633721 259.0249074 15.54881912 255.35206032 15.55907154 C248.15445864 15.57629353 240.95694412 15.57709259 233.75932717 15.57185864 C227.9113026 15.56782229 222.06330386 15.5692541 216.21528053 15.5746069 C215.3839448 15.57535532 214.55260907 15.57610374 213.69608134 15.57687484 C212.00740313 15.57840627 210.31872492 15.57994461 208.63004673 15.58148981 C192.78372502 15.59522696 176.93745264 15.58976846 161.09113204 15.5783046 C146.58241505 15.56836919 132.07382553 15.58131602 117.56512821 15.60523879 C102.6793521 15.62959904 87.79363543 15.63924535 72.90783978 15.63258606 C64.54584547 15.62908721 56.18394927 15.63136974 47.82196999 15.64883709 C40.7041651 15.66352065 33.58652739 15.66424509 26.46872592 15.64676618 C22.83490052 15.63822215 19.20137423 15.63618876 15.56756401 15.65141773 C11.63403256 15.66769921 7.70096843 15.6531903 3.76743507 15.63542652 C2.61093547 15.64503153 1.45443586 15.65463653 0.26289082 15.6645326 C-0.78625091 15.65471831 -1.83539263 15.64490402 -2.91632652 15.63479233 C-3.82488994 15.63468499 -4.73345335 15.63457765 -5.66954899 15.63446707 C-7.96230125 15.13422108 -7.96230125 15.13422108 -9.75423717 13.32559162 C-11.51338239 10.13458621 -11.35242165 7.71032468 -10.96230125 4.13422108 C-8.19062754 0.1746872 -4.54024766 0.00910079 0 0 Z " fill="#000000" transform="translate(57.96230125427246,390.86577892303467)"/>
<path d="M0 0 C1.56532392 -0.01564648 1.56532392 -0.01564648 3.16227055 -0.03160906 C4.30739329 -0.02268617 5.45251604 -0.01376328 6.63233948 -0.00457001 C8.45858054 -0.01392995 8.45858054 -0.01392995 10.32171535 -0.02347898 C13.70293777 -0.03669127 17.08327383 -0.03191277 20.46444273 -0.01953411 C24.11004942 -0.01049837 27.75557763 -0.02444597 31.40116882 -0.0354538 C38.54351914 -0.05325949 45.68570152 -0.04938997 52.82805848 -0.03780323 C58.63171917 -0.02877721 64.43533272 -0.0275413 70.23899841 -0.0318985 C71.06435921 -0.03251143 71.88972001 -0.03312436 72.74009174 -0.03375587 C74.41668869 -0.03503474 76.09328563 -0.0363316 77.76988256 -0.03764623 C93.49894265 -0.04905803 109.22790955 -0.03592894 124.95695436 -0.01444477 C138.45922902 0.00342677 151.96136613 0.00032283 165.46363831 -0.01811981 C181.13561932 -0.03951596 196.80751863 -0.04795934 212.47951221 -0.03567076 C214.15001232 -0.03439653 215.82051244 -0.03313905 217.49101257 -0.0318985 C218.31297463 -0.0312814 219.13493669 -0.03066429 219.9818067 -0.03002849 C225.77987815 -0.02657182 231.57789786 -0.03241076 237.3759613 -0.04181671 C244.43992381 -0.05302415 251.50370848 -0.05002324 258.56765056 -0.02869374 C262.17324791 -0.01816623 265.77854854 -0.01409004 269.38414383 -0.02729034 C273.28882161 -0.04136962 277.19301132 -0.02458237 281.09767151 -0.00457001 C282.24279426 -0.01349289 283.387917 -0.02241578 284.56774044 -0.03160906 C285.61128972 -0.02117807 286.654839 -0.01074708 287.73001099 0 C288.63157708 0.00064941 289.53314318 0.00129882 290.46202946 0.00196791 C293.67176337 0.67169987 294.87261544 1.94493737 296.86500549 4.50336456 C297.60134429 10.4992662 297.60134429 10.4992662 295.49000549 13.37836456 C292.49718149 15.45031964 290.61741967 15.63038253 287.0101347 15.63758564 C285.978151 15.64204348 284.94616731 15.64650133 283.88291138 15.65109426 C282.16918476 15.65081771 282.16918476 15.65081771 280.4208374 15.65053558 C278.61046862 15.65605062 278.61046862 15.65605062 276.76352674 15.66167706 C273.40281897 15.67081606 270.04216009 15.67541624 266.68144453 15.67806637 C263.06102892 15.68196497 259.44062751 15.69154357 255.82022095 15.70027924 C247.07197874 15.72005565 238.32373535 15.73011108 229.57547638 15.73900703 C225.45834001 15.74338777 221.34120494 15.74875511 217.2240696 15.7539959 C203.54237605 15.77100892 189.86068332 15.78550406 176.17898083 15.79274464 C172.62730089 15.79465461 169.07562095 15.79657493 165.52394104 15.79853058 C164.64116162 15.79901432 163.75838221 15.79949806 162.8488519 15.79999646 C148.54189383 15.80830037 134.23501927 15.83364304 119.92809769 15.86611126 C105.24801744 15.89915544 90.56797967 15.91719098 75.88786203 15.92038888 C67.64202816 15.92255637 59.3963161 15.93133988 51.15051842 15.95685005 C44.12938096 15.97852099 37.10839489 15.98662532 30.08722778 15.97688327 C26.50377959 15.97232809 22.92064395 15.97429482 19.33723831 15.99364471 C15.45473607 16.01442898 11.57266807 16.00432474 7.69012451 15.99111176 C6.55433226 16.002081 5.41854001 16.01305025 4.24832982 16.02435189 C-3.32417926 15.96186059 -3.32417926 15.96186059 -7.3389082 13.69163036 C-9.13499451 11.50336456 -9.13499451 11.50336456 -9.69749451 8.00336456 C-8.7530741 2.1269709 -5.82114309 0.00419304 0 0 Z " fill="#000000" transform="translate(56.13499450683594,353.4966354370117)"/>
<path d="M0 0 C1.28992355 -0.00700928 2.57984711 -0.01401855 3.90885925 -0.02124023 C7.43993146 -0.03944907 10.9705353 -0.03241655 14.50161552 -0.01972389 C18.20018636 -0.0095834 21.8987176 -0.01899247 25.59729004 -0.02526855 C31.80793443 -0.03254194 38.01838843 -0.02296551 44.22900391 -0.00390625 C51.4051783 0.01786208 58.5808981 0.01081048 65.75706148 -0.01121187 C71.92283403 -0.02937482 78.08846988 -0.03191988 84.25426054 -0.0214572 C87.93486703 -0.01522711 91.61525997 -0.01437307 95.29585266 -0.02760315 C99.39933106 -0.0413235 103.50202809 -0.02229756 107.60546875 0 C109.43219368 -0.01214539 109.43219368 -0.01214539 111.29582214 -0.02453613 C119.51779365 0.0583597 119.51779365 0.0583597 123.5592041 2.42272949 C125.46570159 4.71338296 125.93872762 5.63922414 125.80273438 8.58007812 C125.30273438 12.51757812 125.30273438 12.51757812 124.117836 14.23986244 C121.59532761 16.01554733 119.83386808 15.89506607 116.7611084 15.89852905 C115.60858078 15.90698853 114.45605316 15.915448 113.26860046 15.92416382 C112.00304825 15.91809113 110.73749603 15.91201843 109.43359375 15.90576172 C108.08827793 15.90982649 106.74296545 15.91516785 105.3976593 15.92169189 C101.74271034 15.9353827 98.08801507 15.93005972 94.4330616 15.92055464 C90.61076288 15.91296711 86.78848609 15.92000112 82.96618652 15.92471313 C76.54691665 15.93017335 70.12775026 15.92297216 63.70849609 15.90869141 C56.28359416 15.89236432 48.85893935 15.89765264 41.43404341 15.91417062 C35.06284197 15.92777798 28.69171499 15.92970885 22.32050371 15.92185462 C18.51365132 15.91717394 14.70691514 15.91656399 10.90007019 15.92646408 C7.32132061 15.93512063 3.74289009 15.92913625 0.16417503 15.91178131 C-1.77825607 15.90591239 -3.72071411 15.91484322 -5.66313171 15.92416382 C-6.81565933 15.91570435 -7.96818695 15.90724487 -9.15563965 15.89852905 C-10.66107456 15.89683244 -10.66107456 15.89683244 -12.1969223 15.89510155 C-14.69726562 15.51757812 -14.69726562 15.51757812 -16.51236725 14.23986244 C-18.17518812 11.82290386 -18.15832675 9.42213135 -18.29101562 6.55273438 C-15.94361396 -1.49329372 -6.63507047 -0.04411474 0 0 Z " fill="#000000" transform="translate(227.697265625,315.482421875)"/>
<path d="M0 0 C1.28992355 -0.00700928 2.57984711 -0.01401855 3.90885925 -0.02124023 C7.43993146 -0.03944907 10.9705353 -0.03241655 14.50161552 -0.01972389 C18.20018636 -0.0095834 21.8987176 -0.01899247 25.59729004 -0.02526855 C31.80793443 -0.03254194 38.01838843 -0.02296551 44.22900391 -0.00390625 C51.4051783 0.01786208 58.5808981 0.01081048 65.75706148 -0.01121187 C71.92283403 -0.02937482 78.08846988 -0.03191988 84.25426054 -0.0214572 C87.93486703 -0.01522711 91.61525997 -0.01437307 95.29585266 -0.02760315 C99.39933106 -0.0413235 103.50202809 -0.02229756 107.60546875 0 C109.43219368 -0.01214539 109.43219368 -0.01214539 111.29582214 -0.02453613 C119.51779365 0.0583597 119.51779365 0.0583597 123.5592041 2.42272949 C125.46570159 4.71338296 125.93872762 5.63922414 125.80273438 8.58007812 C125.30273438 12.51757812 125.30273438 12.51757812 124.117836 14.23986244 C121.59532761 16.01554733 119.83386808 15.89506607 116.7611084 15.89852905 C115.60858078 15.90698853 114.45605316 15.915448 113.26860046 15.92416382 C112.00304825 15.91809113 110.73749603 15.91201843 109.43359375 15.90576172 C108.08827793 15.90982649 106.74296545 15.91516785 105.3976593 15.92169189 C101.74271034 15.9353827 98.08801507 15.93005972 94.4330616 15.92055464 C90.61076288 15.91296711 86.78848609 15.92000112 82.96618652 15.92471313 C76.54691665 15.93017335 70.12775026 15.92297216 63.70849609 15.90869141 C56.28359416 15.89236432 48.85893935 15.89765264 41.43404341 15.91417062 C35.06284197 15.92777798 28.69171499 15.92970885 22.32050371 15.92185462 C18.51365132 15.91717394 14.70691514 15.91656399 10.90007019 15.92646408 C7.32132061 15.93512063 3.74289009 15.92913625 0.16417503 15.91178131 C-1.77825607 15.90591239 -3.72071411 15.91484322 -5.66313171 15.92416382 C-6.81565933 15.91570435 -7.96818695 15.90724487 -9.15563965 15.89852905 C-10.66107456 15.89683244 -10.66107456 15.89683244 -12.1969223 15.89510155 C-14.69726562 15.51757812 -14.69726562 15.51757812 -16.51236725 14.23986244 C-18.17518812 11.82290386 -18.15832675 9.42213135 -18.29101562 6.55273438 C-15.94361396 -1.49329372 -6.63507047 -0.04411474 0 0 Z " fill="#000000" transform="translate(227.697265625,240.482421875)"/>
<path d="M0 0 C1.13562881 -0.00990463 2.27125763 -0.01980927 3.44129944 -0.03001404 C4.68298386 -0.02551239 5.92466827 -0.02101074 7.20397949 -0.01637268 C8.51487045 -0.02323593 9.82576141 -0.03009918 11.17637634 -0.03717041 C14.76933956 -0.05511518 18.36205875 -0.05393121 21.95505333 -0.04822803 C24.95468611 -0.04513847 27.95427186 -0.05122591 30.95389795 -0.05726677 C38.0296485 -0.07131431 45.10527831 -0.06974847 52.18103027 -0.05836487 C59.48158716 -0.04687918 66.78177689 -0.06096609 74.0822854 -0.08776134 C80.3507682 -0.10990757 86.61913564 -0.11655831 92.88765478 -0.11068493 C96.63141517 -0.10731203 100.3749401 -0.1097524 104.1186676 -0.12693596 C108.29187334 -0.14525495 112.46436285 -0.13122929 116.63757324 -0.11402893 C118.50009987 -0.12853088 118.50009987 -0.12853088 120.4002533 -0.14332581 C121.53588211 -0.13349167 122.67151093 -0.12365753 123.84155273 -0.11352539 C124.82820671 -0.11331611 125.81486069 -0.11310682 126.83141327 -0.1128912 C130.17885363 0.53423025 131.36829507 1.70833271 133.42077637 4.38768005 C134.15711517 10.38358169 134.15711517 10.38358169 132.04577637 13.26268005 C128.92923232 15.42028747 126.92152311 15.51491569 123.1579895 15.52139282 C122.04193832 15.52565781 120.92588715 15.52992279 119.77601624 15.53431702 C118.54584274 15.53386383 117.31566925 15.53341064 116.04821777 15.53294373 C114.11158012 15.53798164 114.11158012 15.53798164 112.13581848 15.54312134 C108.5882561 15.55197179 105.04071782 15.55429991 101.49314547 15.55493712 C98.5333936 15.55588561 95.57364738 15.55956326 92.61389768 15.56310922 C85.63122674 15.57125798 78.6485687 15.5736931 71.66589355 15.57298279 C64.45977981 15.57238208 57.25374095 15.5829316 50.04764616 15.59872645 C43.86415142 15.61179758 37.68068117 15.61716686 31.49717271 15.61652738 C27.80262967 15.61627224 24.10815312 15.61913218 20.41362381 15.62970543 C16.29307174 15.64117537 12.17268761 15.63664221 8.05212402 15.63059998 C6.82599899 15.63621948 5.59987396 15.64183899 4.33659363 15.64762878 C3.2149028 15.6434343 2.09321198 15.63923981 0.93753052 15.63491821 C-0.52422387 15.63573536 -0.52422387 15.63573536 -2.01550865 15.63656902 C-4.70187287 15.3757731 -6.32170342 14.84592188 -8.57922363 13.38768005 C-10.13382668 10.27847396 -10.30643056 6.75684978 -9.57922363 3.38768005 C-6.46158126 0.41654286 -4.23954693 0.010441 0 0 Z " fill="#000000" transform="translate(219.5792236328125,203.61231994628906)"/>
<path d="M0 0 C1.70344322 -0.01691895 1.70344322 -0.01691895 3.44129944 -0.03417969 C4.68298386 -0.02608276 5.92466827 -0.01798584 7.20397949 -0.00964355 C9.17031593 -0.02015747 9.17031593 -0.02015747 11.17637634 -0.03088379 C14.76941917 -0.04911594 18.36200249 -0.04205044 21.95505333 -0.02936745 C25.71549084 -0.01923905 29.47588906 -0.02863267 33.23632812 -0.03491211 C39.55130069 -0.04218901 45.86608612 -0.03259981 52.18103027 -0.0135498 C59.4816012 0.00821919 66.7817253 0.00116784 74.0822854 -0.02085543 C80.35078077 -0.03900832 86.61914163 -0.04156835 92.88765478 -0.03110075 C96.63140023 -0.02486514 100.37493566 -0.02403183 104.1186676 -0.0372467 C108.29190528 -0.05094874 112.46437286 -0.03195748 116.63757324 -0.00964355 C118.50009987 -0.02178894 118.50009987 -0.02178894 120.4002533 -0.03417969 C121.53588211 -0.02290039 122.67151093 -0.01162109 123.84155273 0 C124.82820671 0.0015081 125.81486069 0.0030162 126.83141327 0.00457001 C130.17732504 0.6550054 131.36846257 1.82932007 133.42077637 4.50793457 C134.15711517 10.50383621 134.15711517 10.50383621 132.04577637 13.38293457 C128.92923232 15.54054199 126.92152311 15.63517021 123.1579895 15.64164734 C122.04193832 15.64591232 120.92588715 15.65017731 119.77601624 15.65457153 C118.54584274 15.65411835 117.31566925 15.65366516 116.04821777 15.65319824 C114.11158012 15.65823616 114.11158012 15.65823616 112.13581848 15.66337585 C108.5882561 15.67222631 105.04071782 15.67455442 101.49314547 15.67519164 C98.5333936 15.67614012 95.57364738 15.67981777 92.61389768 15.68336374 C85.63122674 15.69151249 78.6485687 15.69394761 71.66589355 15.6932373 C64.45977981 15.69263659 57.25374095 15.70318612 50.04764616 15.71898097 C43.86415142 15.7320521 37.68068117 15.73742137 31.49717271 15.7367819 C27.80262967 15.73652675 24.10815312 15.7393867 20.41362381 15.74995995 C16.29307174 15.76142989 12.17268761 15.75689673 8.05212402 15.75085449 C6.82599899 15.756474 5.59987396 15.76209351 4.33659363 15.7678833 C3.2149028 15.76368881 2.09321198 15.75949432 0.93753052 15.75517273 C-0.52422387 15.75598988 -0.52422387 15.75598988 -2.01550865 15.75682354 C-4.70187287 15.49602761 -6.32170342 14.9661764 -8.57922363 13.50793457 C-10.12509239 10.41619706 -9.87281885 7.91363905 -9.57922363 4.50793457 C-6.68885095 0.71111576 -4.69610453 0.007178 0 0 Z " fill="#000000" transform="translate(219.5792236328125,278.4920654296875)"/>
</svg>
