<?xml version="1.0" standalone="no"?>
<!DOCTYPE svg PUBLIC "-//W3C//DTD SVG 20010904//EN"
 "http://www.w3.org/TR/2001/REC-SVG-20010904/DTD/svg10.dtd">
<svg version="1.0" xmlns="http://www.w3.org/2000/svg"
 width="512.000000pt" height="512.000000pt" viewBox="0 0 512.000000 512.000000"
 preserveAspectRatio="xMidYMid meet">

<g transform="translate(0.000000,512.000000) scale(0.100000,-0.100000)"
fill="#000000" stroke="none">
<path d="M153 5100 c-68 -41 -68 -40 -68 -381 0 -295 1 -309 21 -336 30 -42
80 -63 147 -63 l57 0 0 -189 0 -190 26 -20 c35 -27 57 -26 91 3 l28 24 3 186
3 186 2100 0 2099 0 -2 -1652 -3 -1653 -665 -5 c-498 -4 -670 -8 -686 -17 -41
-23 -46 -78 -11 -111 l24 -22 690 2 691 3 38 30 c20 17 45 46 55 65 18 33 19
97 19 1697 l0 1663 58 0 c66 0 116 21 146 63 20 27 21 41 21 336 0 341 0 340
-68 381 -31 20 -71 20 -2407 20 -2336 0 -2376 0 -2407 -20z m4727 -215 l0 -85
-587 0 c-452 0 -594 -3 -613 -13 -52 -26 -52 -105 0 -132 25 -13 111 -15 615
-15 l585 0 0 -85 0 -85 -2320 0 -2320 0 0 85 0 85 560 0 c482 0 565 2 590 15
52 27 52 106 0 132 -19 10 -156 13 -587 13 l-563 0 0 85 0 85 2320 0 2320 0 0
-85z"/>
<path d="M1489 3909 c-434 -37 -775 -439 -745 -876 15 -219 101 -400 263 -553
112 -107 216 -164 374 -207 90 -25 299 -24 394 1 272 71 496 278 586 539 75
218 56 448 -52 658 -155 298 -473 468 -820 438z m11 -248 l0 -100 -57 -16
c-87 -25 -146 -61 -212 -129 -61 -64 -101 -132 -120 -204 l-12 -42 -100 0 -99
0 6 28 c36 163 83 252 194 362 96 97 183 147 310 180 41 10 78 19 83 19 4 1 7
-44 7 -98z m304 58 c134 -48 253 -142 332 -261 46 -69 104 -211 104 -256 0
-22 -2 -23 -96 -20 l-95 3 -18 51 c-48 143 -178 267 -323 309 l-58 16 0 98 0
98 48 -8 c26 -5 73 -18 106 -30z m-86 -343 c111 -56 172 -151 180 -276 8 -137
-58 -249 -183 -311 -160 -79 -351 -12 -436 153 -30 57 -38 178 -16 242 34 98
108 174 207 210 68 25 180 17 248 -18z m532 -363 c-1 -43 -38 -162 -71 -231
-33 -69 -58 -102 -128 -172 -107 -107 -216 -167 -358 -195 l-33 -7 0 100 0
100 43 10 c98 25 197 96 262 187 42 60 85 158 85 195 0 19 7 20 100 20 55 0
100 -3 100 -7z m-1142 -49 c22 -83 66 -158 127 -219 62 -62 159 -118 228 -130
l37 -7 0 -100 0 -101 -42 7 c-66 11 -174 51 -235 88 -74 44 -171 139 -218 212
-40 64 -88 185 -100 254 l-7 42 99 0 99 0 12 -46z"/>
<path d="M2922 3870 c-18 -4 -42 -16 -54 -26 -43 -38 -48 -71 -48 -296 0 -234
5 -260 63 -302 28 -21 36 -21 717 -21 681 0 689 0 717 21 58 42 63 67 63 304
0 237 -5 262 -63 304 -28 21 -38 21 -695 23 -367 1 -682 -2 -700 -7z m1308
-320 l0 -170 -630 0 -630 0 0 170 0 170 630 0 630 0 0 -170z"/>
<path d="M330 3730 c-20 -20 -20 -33 -20 -1378 0 -1303 1 -1359 19 -1392 10
-19 35 -48 55 -65 l38 -30 1029 -3 1029 -2 0 -189 0 -189 -45 -27 c-179 -104
-150 -371 47 -441 112 -39 234 9 293 117 60 112 25 248 -82 319 l-53 34 0 188
0 188 219 0 220 0 20 26 c27 34 27 64 1 92 -12 12 -22 23 -23 24 -1 2 -589 5
-1307 8 l-1305 5 -5 1348 -5 1349 -24 19 c-30 25 -76 24 -101 -1z m2298 -3426
c41 -47 25 -115 -34 -140 -84 -35 -160 60 -108 134 34 48 102 51 142 6z"/>
<path d="M2845 2825 c-14 -13 -25 -36 -25 -50 0 -14 11 -37 25 -50 l24 -25
706 0 c479 0 713 3 726 11 48 25 44 105 -7 128 -18 8 -226 11 -725 11 l-700 0
-24 -25z"/>
<path d="M2841 2464 c-12 -15 -21 -33 -21 -40 0 -27 24 -63 49 -74 18 -7 238
-10 724 -8 l699 3 24 28 c29 34 30 56 3 91 l-20 26 -719 0 -719 0 -20 -26z"/>
<path d="M2845 1915 c-14 -13 -25 -36 -25 -50 0 -14 11 -37 25 -50 l24 -25
709 0 c679 0 711 1 733 19 32 26 32 86 0 112 -22 18 -54 19 -733 19 l-709 0
-24 -25z"/>
<path d="M877 1908 c-42 -33 -37 -106 9 -127 18 -8 228 -11 745 -11 l720 0 24
25 c32 31 33 74 2 103 l-23 22 -730 0 c-569 0 -734 -3 -747 -12z"/>
<path d="M874 1577 c-34 -30 -36 -83 -3 -109 20 -17 70 -18 753 -18 l733 0 21
23 c29 31 28 72 -3 102 l-24 25 -725 0 -725 0 -27 -23z"/>
<path d="M2869 1579 c-25 -9 -49 -45 -49 -73 0 -7 9 -25 21 -40 l20 -26 719 0
719 0 20 26 c27 35 26 57 -3 91 l-24 28 -699 2 c-429 1 -708 -2 -724 -8z"/>
</g>
</svg>
