<?xml version="1.0" encoding="UTF-8"?>
<svg version="1.1" xmlns="http://www.w3.org/2000/svg" width="361" height="414">
<path d="M0 0 C6.83947333 5.32869926 10.05731624 11.96593168 13.30859375 19.84765625 C14.00065414 21.48003235 14.00065414 21.48003235 14.70669556 23.14538574 C15.96036868 26.10758306 17.20290135 29.07416088 18.44108963 32.04285431 C19.75868576 35.19340201 21.09136127 38.33754925 22.42358398 41.48193359 C22.96903967 42.76979309 23.51446492 44.05766547 24.05986023 45.34555054 C24.33171331 45.98747723 24.6035664 46.62940392 24.88365746 47.29078293 C25.71544555 49.25674871 26.54550358 51.22343661 27.37507629 53.19033813 C32.30835649 64.88222348 37.35451525 76.52364254 42.42797852 88.15536499 C51.5912788 109.17079137 60.62016486 130.24151744 69.58837891 151.34082031 C70.54848073 153.59961867 71.50860448 155.85840771 72.46875 158.1171875 C73.18398331 159.79985214 73.18398331 159.79985214 73.91366577 161.51651001 C81.81653266 180.10016779 89.78935197 198.65396601 97.75106812 217.21246338 C101.27877936 225.4365396 104.80073775 233.66306384 108.3203125 241.890625 C117.82126498 264.09522019 127.35364813 286.28489614 136.98718262 308.43234253 C140.68849998 316.94511324 144.38014861 325.46207739 148.06921387 333.98016357 C149.21435395 336.62295867 150.36145204 339.26489643 151.50878906 341.90673828 C153.1056728 345.58748736 154.69063176 349.27310949 156.26431274 352.96383667 C157.05366141 354.8086513 157.8540556 356.64872826 158.6550293 358.48852539 C162.92362594 368.57053702 165.93007461 378.05773986 162.28125 388.77734375 C158.94789737 395.19713401 153.81431839 400.06773988 147.03125 402.65234375 C139.97467406 404.671943 132.03474575 405.00303613 125.24658203 401.89868164 C118.46492618 398.02934682 114.90601102 391.9440698 111.96875 384.96484375 C111.57703613 384.06991211 111.18532227 383.17498047 110.78173828 382.25292969 C109.57112661 379.47294049 108.37837624 376.68579982 107.18902588 373.89666748 C105.76098114 370.56270678 104.31490126 367.23659571 102.87123108 363.90937805 C100.7935038 359.11798305 98.724285 354.3229285 96.65625 349.52734375 C96.24281342 348.56968109 95.82937683 347.61201843 95.40341187 346.62533569 C94.22055096 343.88087632 93.04300532 341.13420178 91.8671875 338.38671875 C91.50517746 337.54806778 91.14316742 336.70941681 90.77018738 335.84535217 C90.44174332 335.07493088 90.11329926 334.30450958 89.77490234 333.51074219 C89.48529633 332.83541443 89.19569031 332.16008667 88.89730835 331.46429443 C88.28125 329.77734375 88.28125 329.77734375 88.28125 327.77734375 C20.30125 327.77734375 -47.67875 327.77734375 -117.71875 327.77734375 C-118.70875 330.74734375 -119.69875 333.71734375 -120.71875 336.77734375 C-121.42209175 338.58014975 -122.14824283 340.37440885 -122.90771484 342.15429688 C-123.31178558 343.10558472 -123.71585632 344.05687256 -124.13217163 345.0369873 C-124.56035187 346.03411743 -124.9885321 347.03124756 -125.4296875 348.05859375 C-125.87970123 349.11212036 -126.32971497 350.16564697 -126.79336548 351.25109863 C-127.74128368 353.46716908 -128.6910526 355.68244871 -129.64257812 357.89697266 C-131.08828562 361.26461498 -132.52494024 364.63602016 -133.9609375 368.0078125 C-134.8874745 370.17080703 -135.81454035 372.33357511 -136.7421875 374.49609375 C-137.16631927 375.49322388 -137.59045105 376.490354 -138.0274353 377.5177002 C-146.5703487 397.32097389 -146.5703487 397.32097389 -155.8515625 401.80859375 C-164.21863722 404.95717936 -171.29460971 404.60031441 -179.4296875 400.9609375 C-186.49600425 397.30719352 -190.31146638 392.25420346 -192.71875 384.77734375 C-195.44611867 367.42336087 -183.5689653 348.93713764 -176.90625 333.46484375 C-175.83473328 330.97224275 -174.7640179 328.47929785 -173.69335938 325.98632812 C-171.75131601 321.46495269 -169.80851178 316.94390582 -167.86468697 312.42329597 C-162.96630827 301.03117143 -158.08254739 289.63279202 -153.19961548 278.23403931 C-150.70665005 272.41485948 -148.21264394 266.5961257 -145.71875 260.77734375 C-144.71874509 258.44401252 -143.71874509 256.11067919 -142.71875 253.77734375 C-112.33203125 182.875 -81.9453125 111.97265625 -51.55859375 41.0703125 C-51.08067383 39.95497635 -50.60275391 38.8396402 -50.11035156 37.69050598 C-49.19326557 35.55101533 -48.27564189 33.41175506 -47.35742188 31.27275085 C-45.49502179 26.93295451 -43.63618255 22.59213534 -41.80859375 18.23754883 C-41.53226105 17.58215118 -41.25592834 16.92675354 -40.97122192 16.25149536 C-40.28330185 14.61722612 -39.60011174 12.98096785 -38.91748047 11.34448242 C-35.80449045 4.6778653 -31.3061158 0.69270084 -24.625 -2.3359375 C-16.09367176 -4.93890996 -7.84339221 -4.10121036 0 0 Z M-15.71875 89.77734375 C-28.25735072 118.55319404 -40.70939701 147.36201248 -52.98706055 176.25024414 C-53.94056131 178.49366558 -54.89409336 180.73707372 -55.84765625 182.98046875 C-56.32150253 184.09530136 -56.79534882 185.21013397 -57.28355408 186.35874939 C-63.02680421 199.86392843 -68.80965531 213.35212147 -74.59375 226.83984375 C-75.09067352 227.99868073 -75.58759705 229.1575177 -76.09957886 230.35147095 C-77.06573289 232.60444801 -78.03198342 234.8573837 -78.99833679 237.11027527 C-79.91956966 239.25838627 -80.84040778 241.4066666 -81.76081848 243.55513 C-83.96726914 248.70388453 -86.18136829 253.84908746 -88.41113281 258.98779297 C-89.04500412 260.4532682 -89.04500412 260.4532682 -89.69168091 261.948349 C-90.48661458 263.78554779 -91.28437579 265.62152662 -92.0854187 267.45606995 C-92.43379791 268.2626152 -92.78217712 269.06916046 -93.14111328 269.90014648 C-93.44735626 270.60437241 -93.75359924 271.30859833 -94.06912231 272.03416443 C-94.83515239 273.77964342 -94.83515239 273.77964342 -94.71875 275.77734375 C-41.91875 275.77734375 10.88125 275.77734375 65.28125 275.77734375 C62.8929005 268.52951505 62.8929005 268.52951505 60.1184082 261.50366211 C59.71463455 260.56167465 59.3108609 259.61968719 58.89485168 258.64915466 C58.46162094 257.6486055 58.0283902 256.64805634 57.58203125 255.6171875 C57.11919235 254.54005997 56.65635345 253.46293243 56.17948914 252.35316467 C54.65425109 248.80560939 53.12396453 245.26025495 51.59375 241.71484375 C50.51284994 239.20412932 49.43313928 236.69290413 48.35351562 234.18164062 C46.39328521 229.62288216 44.43191726 225.06461665 42.46903801 220.50699806 C37.54932717 209.08341701 32.65127005 197.65057923 27.75460815 186.21710205 C25.786299 181.62181222 23.81680124 177.02703225 21.8473053 172.43225098 C17.65268135 162.64627199 13.45961451 152.85962762 9.26843262 143.07217407 C7.32611711 138.53640186 5.38340489 134.00079959 3.44060516 129.46523476 C2.11534151 126.37125365 0.79037777 123.27714489 -0.53417969 120.18286133 C-1.9961937 116.76750457 -3.45895738 113.35246978 -4.921875 109.9375 C-5.34994446 108.93695084 -5.77801392 107.93640167 -6.21905518 106.90553284 C-8.67455081 101.17588989 -11.16974373 95.46602401 -13.71875 89.77734375 C-14.37875 89.77734375 -15.03875 89.77734375 -15.71875 89.77734375 Z " fill="#000000" transform="translate(196.71875,5.22265625)"/>
</svg>
