<?xml version="1.0" standalone="no"?>
<!DOCTYPE svg PUBLIC "-//W3C//DTD SVG 20010904//EN"
 "http://www.w3.org/TR/2001/REC-SVG-20010904/DTD/svg10.dtd">
<svg version="1.0" xmlns="http://www.w3.org/2000/svg"
 width="512.000000pt" height="512.000000pt" viewBox="0 0 512.000000 512.000000"
 preserveAspectRatio="xMidYMid meet">

<g transform="translate(0.000000,512.000000) scale(0.100000,-0.100000)"
fill="#000000" stroke="none">
<path d="M433 5101 c-423 -115 -572 -622 -278 -949 41 -45 142 -118 188 -135
16 -6 17 -85 17 -1457 0 -1372 -1 -1451 -17 -1457 -46 -17 -147 -90 -189 -136
-103 -115 -148 -232 -149 -387 0 -165 53 -298 165 -410 112 -112 245 -165 410
-165 155 1 272 46 387 149 46 42 119 143 136 188 6 17 85 18 1457 18 1372 0
1451 -1 1457 -17 4 -10 24 -46 45 -80 68 -107 175 -189 308 -235 92 -32 246
-32 345 -1 175 55 323 203 378 378 29 92 31 253 3 335 -49 146 -163 286 -279
344 l-57 28 0 1449 0 1449 25 10 c85 32 201 139 256 235 54 94 74 169 74 285
0 165 -53 298 -165 410 -112 112 -245 165 -410 165 -155 -1 -272 -46 -387
-149 -46 -42 -119 -143 -136 -188 -6 -17 -85 -18 -1457 -18 -1372 0 -1451 1
-1457 18 -4 9 -24 45 -46 79 -66 107 -188 199 -314 239 -80 25 -226 27 -310 5z
m263 -309 c169 -86 207 -310 74 -442 -202 -203 -545 9 -455 281 23 67 101 149
165 172 60 22 161 17 216 -11z m3940 11 c73 -25 148 -104 170 -178 64 -222
-140 -414 -361 -338 -142 48 -216 229 -151 368 62 135 203 196 342 148z m-649
-403 c49 -197 216 -364 413 -413 l55 -14 0 -1413 0 -1413 -55 -14 c-197 -49
-364 -216 -413 -413 l-14 -55 -1413 0 -1413 0 -14 55 c-49 197 -216 364 -413
413 l-55 14 0 1413 0 1413 55 14 c133 33 265 128 342 247 31 48 59 119 84 214
3 10 290 12 1415 10 l1412 -3 14 -55z m-3312 -3567 c31 -10 67 -34 95 -63 162
-161 63 -444 -165 -467 -84 -9 -157 18 -220 80 -210 211 6 547 290 450z m3980
-7 c131 -60 191 -192 151 -331 -24 -81 -100 -157 -181 -181 -140 -40 -271 21
-333 155 -21 46 -24 64 -20 127 6 84 37 146 99 196 77 62 194 76 284 34z"/>
<path d="M1350 3425 l0 -275 150 0 150 0 0 125 0 125 380 0 380 0 0 -855 0
-855 -130 0 -130 0 0 -150 0 -150 410 0 410 0 0 150 0 150 -130 0 -130 0 0
855 0 855 380 0 380 0 0 -125 0 -125 150 0 150 0 0 275 0 275 -1210 0 -1210 0
0 -275z"/>
</g>
</svg>
