<svg width="192" height="570" viewBox="0 0 192 570" fill="none" xmlns="http://www.w3.org/2000/svg">
<g filter="url(#filter0_d_184_125)">
<mask id="path-1-inside-1_184_125" fill="white">
<path d="M10 8.00001C10 3.58174 13.5817 0 18 0H180C184.418 0 188 3.58172 188 8V554C188 558.418 184.418 562 180 562H18C13.5817 562 10 558.418 10 554V8.00001Z"/>
</mask>
<path d="M10 8.00001C10 3.58174 13.5817 0 18 0H180C184.418 0 188 3.58172 188 8V554C188 558.418 184.418 562 180 562H18C13.5817 562 10 558.418 10 554V8.00001Z" fill="white" shape-rendering="crispEdges"/>
<path d="M18 1H180V-1H18V1ZM187 8V554H189V8H187ZM180 561H18V563H180V561ZM11 554V8.00001H9V554H11ZM18 561C14.134 561 11 557.866 11 554H9C9 558.971 13.0294 563 18 563V561ZM187 554C187 557.866 183.866 561 180 561V563C184.971 563 189 558.971 189 554H187ZM180 1C183.866 1 187 4.13401 187 8H189C189 3.02944 184.971 -1 180 -1V1ZM18 -1C13.0294 -1 9 3.02945 9 8.00001H11C11 4.13402 14.134 1 18 1V-1Z" fill="#D9D9D9" mask="url(#path-1-inside-1_184_125)"/>
<path d="M15.9502 281L10.2933 286.657L4.63649 281L10.2933 275.343L15.9502 281Z" fill="white"/>
<path fill-rule="evenodd" clip-rule="evenodd" d="M10.2933 275.343L4.63649 281L10.2933 286.657L11.0005 285.95L6.05071 281L11.0005 276.05L10.2933 275.343Z" fill="#D9D9D9"/>
<path d="M22.9453 21.0938C22.9453 20.3438 23.026 19.6667 23.1875 19.0625C23.3542 18.4531 23.5807 17.9115 23.8672 17.4375C24.1536 16.9635 24.4896 16.5547 24.875 16.2109C25.2604 15.8672 25.6771 15.5833 26.125 15.3594C26.5729 15.1354 27.0391 14.9714 27.5234 14.8672C28.013 14.7578 28.5 14.7031 28.9844 14.7031C29.4271 14.7031 29.862 14.7448 30.2891 14.8281C30.7161 14.9062 31.138 15.0182 31.5547 15.1641C31.6797 15.2109 31.8047 15.2578 31.9297 15.3047C32.0599 15.3464 32.1745 15.401 32.2734 15.4688C32.3776 15.5365 32.4609 15.6224 32.5234 15.7266C32.5859 15.8307 32.6172 15.9635 32.6172 16.125C32.6172 16.3125 32.5859 16.4688 32.5234 16.5938C32.4661 16.7135 32.3906 16.8099 32.2969 16.8828C32.2031 16.9557 32.099 17.0078 31.9844 17.0391C31.875 17.0703 31.7682 17.0859 31.6641 17.0859C31.5911 17.0859 31.513 17.0755 31.4297 17.0547C31.3464 17.0286 31.2604 16.9974 31.1719 16.9609C31.0833 16.9245 30.9974 16.8828 30.9141 16.8359C30.8307 16.7839 30.7552 16.7344 30.6875 16.6875C30.5 16.6094 30.3229 16.5521 30.1562 16.5156C29.9948 16.474 29.8385 16.4453 29.6875 16.4297C29.5365 16.4089 29.388 16.3984 29.2422 16.3984C29.0964 16.3932 28.9505 16.3906 28.8047 16.3906C28.4766 16.3906 28.1484 16.4297 27.8203 16.5078C27.4922 16.5807 27.1745 16.6979 26.8672 16.8594C26.5651 17.0156 26.2812 17.2135 26.0156 17.4531C25.75 17.6927 25.5182 17.9792 25.3203 18.3125C25.1276 18.6406 24.974 19.0156 24.8594 19.4375C24.75 19.8594 24.6953 20.3307 24.6953 20.8516C24.6953 21.7161 24.8177 22.4479 25.0625 23.0469C25.3125 23.6406 25.6354 24.1224 26.0312 24.4922C26.4323 24.862 26.8828 25.1302 27.3828 25.2969C27.8828 25.4583 28.388 25.5391 28.8984 25.5391C29.1328 25.5391 29.362 25.526 29.5859 25.5C29.8151 25.4688 30.026 25.4323 30.2188 25.3906C30.4167 25.3438 30.5911 25.2943 30.7422 25.2422C30.8932 25.1849 31.0078 25.1276 31.0859 25.0703C31.2422 24.9349 31.3802 24.8333 31.5 24.7656C31.6198 24.6927 31.7578 24.6562 31.9141 24.6562C32.0339 24.6562 32.1458 24.6693 32.25 24.6953C32.3594 24.7214 32.4531 24.7682 32.5312 24.8359C32.6094 24.8984 32.6719 24.9818 32.7188 25.0859C32.7656 25.1901 32.7891 25.3203 32.7891 25.4766C32.7891 25.6953 32.7135 25.8958 32.5625 26.0781C32.4167 26.2552 32.1797 26.4219 31.8516 26.5781V26.5703C31.7422 26.6328 31.5807 26.7031 31.3672 26.7812C31.1589 26.8594 30.9219 26.9323 30.6562 27C30.3958 27.0625 30.1198 27.1146 29.8281 27.1562C29.5365 27.2031 29.25 27.2266 28.9688 27.2266C28.3281 27.2266 27.7344 27.151 27.1875 27C26.6458 26.8438 26.151 26.6302 25.7031 26.3594C25.2604 26.0833 24.8672 25.7552 24.5234 25.375C24.1797 24.9948 23.8906 24.5781 23.6562 24.125C23.4219 23.6719 23.2448 23.1901 23.125 22.6797C23.0052 22.1641 22.9453 21.6354 22.9453 21.0938ZM34.6328 22.2891C34.6328 21.612 34.7578 20.9766 35.0078 20.3828C35.263 19.7839 35.6094 19.263 36.0469 18.8203C36.4896 18.3724 37.0052 18.0208 37.5938 17.7656C38.1823 17.5052 38.8125 17.375 39.4844 17.375C40.2188 17.375 40.8828 17.5052 41.4766 17.7656C42.0755 18.0208 42.5859 18.3724 43.0078 18.8203C43.4349 19.263 43.763 19.7839 43.9922 20.3828C44.2214 20.9766 44.3359 21.612 44.3359 22.2891C44.3359 22.7839 44.276 23.25 44.1562 23.6875C44.0417 24.125 43.8776 24.526 43.6641 24.8906C43.4505 25.2552 43.1927 25.5833 42.8906 25.875C42.5938 26.1615 42.2656 26.4062 41.9062 26.6094C41.5469 26.8073 41.1615 26.9583 40.75 27.0625C40.3438 27.1719 39.9219 27.2266 39.4844 27.2266C38.8281 27.2266 38.2057 27.1094 37.6172 26.875C37.0286 26.6354 36.513 26.3021 36.0703 25.875C35.6276 25.4427 35.276 24.9245 35.0156 24.3203C34.7604 23.7109 34.6328 23.0339 34.6328 22.2891ZM36.4375 22.2891C36.4375 22.7839 36.5078 23.2318 36.6484 23.6328C36.7891 24.0339 36.9896 24.3776 37.25 24.6641C37.5156 24.9453 37.8359 25.1641 38.2109 25.3203C38.5859 25.4714 39.0078 25.5469 39.4766 25.5469C39.8932 25.5469 40.2865 25.4766 40.6562 25.3359C41.026 25.1953 41.349 24.9896 41.625 24.7188C41.9062 24.4427 42.1276 24.1016 42.2891 23.6953C42.4557 23.2891 42.5391 22.8203 42.5391 22.2891C42.5391 21.8516 42.4688 21.4375 42.3281 21.0469C42.1927 20.651 41.9948 20.3073 41.7344 20.0156C41.474 19.724 41.1536 19.4922 40.7734 19.3203C40.3932 19.1484 39.9609 19.0625 39.4766 19.0625C38.9922 19.0625 38.5625 19.1484 38.1875 19.3203C37.8125 19.4922 37.4948 19.724 37.2344 20.0156C36.974 20.3073 36.776 20.651 36.6406 21.0469C36.5052 21.4375 36.4375 21.8516 36.4375 22.2891ZM47.3906 26.4297C47.3906 26.1641 47.4089 25.9036 47.4453 25.6484C47.487 25.3932 47.5078 25.1224 47.5078 24.8359C47.5078 24.6224 47.5052 24.4115 47.5 24.2031C47.5 23.9948 47.4974 23.7734 47.4922 23.5391C47.4922 23.3047 47.4896 23.0495 47.4844 22.7734C47.4792 22.4922 47.4714 22.1745 47.4609 21.8203C47.4557 21.4661 47.4479 21.0651 47.4375 20.6172C47.4271 20.1693 47.4167 19.6562 47.4062 19.0781C47.3385 19.0885 47.2604 19.099 47.1719 19.1094C47.0885 19.1146 46.9818 19.1172 46.8516 19.1172C46.7578 19.1172 46.6615 19.1016 46.5625 19.0703C46.4635 19.0391 46.375 18.9922 46.2969 18.9297C46.2188 18.862 46.1536 18.776 46.1016 18.6719C46.0495 18.5625 46.0234 18.4297 46.0234 18.2734C46.0234 17.9922 46.0964 17.7812 46.2422 17.6406C46.388 17.4948 46.5651 17.4219 46.7734 17.4219C46.8568 17.4219 46.9375 17.4323 47.0156 17.4531C47.0938 17.474 47.1771 17.4844 47.2656 17.4844C47.474 17.4844 47.6797 17.474 47.8828 17.4531C48.0911 17.4323 48.3099 17.4219 48.5391 17.4219C48.763 17.4219 48.9167 17.4922 49 17.6328C49.0885 17.7734 49.1328 17.9714 49.1328 18.2266V18.3828C49.5443 18.0391 49.9792 17.7865 50.4375 17.625C50.8958 17.4583 51.3229 17.375 51.7188 17.375C52.3698 17.375 52.9479 17.4688 53.4531 17.6562C53.9583 17.8438 54.388 18.1224 54.7422 18.4922C54.9609 18.3151 55.1901 18.1562 55.4297 18.0156C55.6693 17.875 55.9089 17.7578 56.1484 17.6641C56.3932 17.5703 56.6328 17.5 56.8672 17.4531C57.1016 17.401 57.3255 17.375 57.5391 17.375C58.1953 17.375 58.7917 17.474 59.3281 17.6719C59.8646 17.8646 60.3229 18.151 60.7031 18.5312C61.0885 18.9115 61.3854 19.3802 61.5938 19.9375C61.8021 20.4896 61.9062 21.1276 61.9062 21.8516C61.9062 22.0807 61.8906 22.3411 61.8594 22.6328C61.8333 22.9193 61.7943 23.2161 61.7422 23.5234C61.6901 23.8255 61.6276 24.125 61.5547 24.4219C61.4818 24.7135 61.4036 24.9766 61.3203 25.2109C61.388 25.1901 61.4427 25.1771 61.4844 25.1719C61.526 25.1667 61.5625 25.1641 61.5938 25.1641C61.776 25.1641 61.9219 25.1979 62.0312 25.2656C62.1406 25.3333 62.224 25.4141 62.2812 25.5078C62.3438 25.6016 62.3828 25.7005 62.3984 25.8047C62.4193 25.9036 62.4297 25.987 62.4297 26.0547C62.4297 26.2161 62.401 26.349 62.3438 26.4531C62.2865 26.5521 62.1849 26.638 62.0391 26.7109C61.8984 26.7786 61.7057 26.8411 61.4609 26.8984C61.2214 26.9557 60.9167 27.0234 60.5469 27.1016C60.3854 27.1432 60.2526 27.1771 60.1484 27.2031C60.0495 27.2292 59.9583 27.2422 59.875 27.2422C59.7083 27.2422 59.5651 27.2161 59.4453 27.1641C59.3255 27.1172 59.2266 27.0547 59.1484 26.9766C59.0755 26.8932 59.0208 26.7969 58.9844 26.6875C58.9479 26.5729 58.9297 26.4531 58.9297 26.3281C58.9297 26.1927 58.9661 26.0417 59.0391 25.875C59.112 25.7031 59.2083 25.5495 59.3281 25.4141C59.4479 25.2161 59.5573 24.9766 59.6562 24.6953C59.7552 24.4089 59.8385 24.1042 59.9062 23.7812C59.9792 23.4583 60.0339 23.1302 60.0703 22.7969C60.1068 22.4635 60.125 22.1484 60.125 21.8516C60.125 21.4349 60.0729 21.0547 59.9688 20.7109C59.8698 20.3672 59.7109 20.0729 59.4922 19.8281C59.2786 19.5833 59.0052 19.3932 58.6719 19.2578C58.3438 19.1224 57.9531 19.0547 57.5 19.0547C57.2708 19.0547 57.0651 19.0729 56.8828 19.1094C56.7057 19.1406 56.5391 19.1875 56.3828 19.25C56.2318 19.3125 56.0885 19.3906 55.9531 19.4844C55.8177 19.5781 55.6823 19.6875 55.5469 19.8125C55.7604 20.3958 55.8672 21.0755 55.8672 21.8516C55.8672 22.0859 55.8516 22.3516 55.8203 22.6484C55.7891 22.9453 55.7448 23.25 55.6875 23.5625C55.6302 23.875 55.5573 24.1823 55.4688 24.4844C55.3802 24.7865 55.2812 25.0625 55.1719 25.3125C55.2552 25.2969 55.3411 25.2734 55.4297 25.2422C55.5182 25.2057 55.6146 25.1875 55.7188 25.1875C55.8906 25.1875 56.0286 25.2214 56.1328 25.2891C56.2422 25.3568 56.3229 25.4401 56.375 25.5391C56.4323 25.6328 56.4688 25.737 56.4844 25.8516C56.5052 25.9609 56.5156 26.0599 56.5156 26.1484C56.5156 26.3151 56.4818 26.4479 56.4141 26.5469C56.3516 26.6406 56.2682 26.7161 56.1641 26.7734C56.0599 26.8255 55.9401 26.8646 55.8047 26.8906C55.6693 26.9115 55.5312 26.9297 55.3906 26.9453C55.25 26.9609 55.112 26.9792 54.9766 27C54.8464 27.026 54.7292 27.0651 54.625 27.1172C54.6094 27.1276 54.5729 27.138 54.5156 27.1484C54.4583 27.1641 54.3958 27.1771 54.3281 27.1875C54.2656 27.2031 54.2005 27.2161 54.1328 27.2266C54.0703 27.237 54.0208 27.2422 53.9844 27.2422C53.8125 27.2422 53.6667 27.2109 53.5469 27.1484C53.4271 27.0859 53.3281 27.0052 53.25 26.9062C53.1771 26.8073 53.1224 26.6979 53.0859 26.5781C53.0547 26.4583 53.0391 26.3411 53.0391 26.2266C53.0391 26.0911 53.0599 25.9557 53.1016 25.8203C53.1432 25.6797 53.2005 25.5495 53.2734 25.4297C53.388 25.2214 53.4948 24.974 53.5938 24.6875C53.6927 24.3958 53.776 24.0911 53.8438 23.7734C53.9167 23.4505 53.974 23.125 54.0156 22.7969C54.0573 22.4635 54.0781 22.1484 54.0781 21.8516C54.0781 21.4349 54.0365 21.0547 53.9531 20.7109C53.875 20.3672 53.7422 20.0729 53.5547 19.8281C53.3672 19.5833 53.1198 19.3932 52.8125 19.2578C52.5104 19.1224 52.1354 19.0547 51.6875 19.0547C51.2448 19.0547 50.8099 19.151 50.3828 19.3438C49.9609 19.5312 49.5443 19.8333 49.1328 20.25C49.1328 20.4844 49.1302 20.776 49.125 21.125C49.125 21.4688 49.125 21.8333 49.125 22.2188C49.125 22.6042 49.125 22.987 49.125 23.3672C49.125 23.7474 49.125 24.0885 49.125 24.3906C49.1302 24.6927 49.1328 24.9375 49.1328 25.125C49.138 25.3073 49.1432 25.3906 49.1484 25.375C49.2422 25.349 49.3177 25.3281 49.375 25.3125C49.4375 25.2917 49.487 25.276 49.5234 25.2656C49.5651 25.2552 49.5964 25.25 49.6172 25.25C49.638 25.2448 49.6615 25.2422 49.6875 25.2422C49.9688 25.2422 50.1823 25.3125 50.3281 25.4531C50.474 25.5885 50.5469 25.7891 50.5469 26.0547C50.5469 26.2526 50.5078 26.4089 50.4297 26.5234C50.3516 26.638 50.2526 26.7292 50.1328 26.7969C50.013 26.8646 49.8776 26.9141 49.7266 26.9453C49.5755 26.9714 49.4297 26.9922 49.2891 27.0078C49.2005 27.0182 49.1094 27.0365 49.0156 27.0625C48.9219 27.0885 48.8281 27.1146 48.7344 27.1406C48.6406 27.1667 48.5469 27.1901 48.4531 27.2109C48.3594 27.2318 48.2734 27.2422 48.1953 27.2422C47.888 27.2422 47.6771 27.1693 47.5625 27.0234C47.4479 26.8828 47.3906 26.6849 47.3906 26.4297ZM65.75 26.4297C65.75 26.1641 65.7682 25.9036 65.8047 25.6484C65.8464 25.3932 65.8672 25.1224 65.8672 24.8359C65.8672 24.6224 65.8646 24.4115 65.8594 24.2031C65.8594 23.9948 65.8568 23.7734 65.8516 23.5391C65.8516 23.3047 65.849 23.0495 65.8438 22.7734C65.8385 22.4922 65.8307 22.1745 65.8203 21.8203C65.8151 21.4661 65.8073 21.0651 65.7969 20.6172C65.7865 20.1693 65.776 19.6562 65.7656 19.0781C65.6979 19.0885 65.6198 19.099 65.5312 19.1094C65.4479 19.1146 65.3411 19.1172 65.2109 19.1172C65.1172 19.1172 65.0208 19.1016 64.9219 19.0703C64.8229 19.0391 64.7344 18.9922 64.6562 18.9297C64.5781 18.862 64.513 18.776 64.4609 18.6719C64.4089 18.5625 64.3828 18.4297 64.3828 18.2734C64.3828 17.9922 64.4557 17.7812 64.6016 17.6406C64.7474 17.4948 64.9245 17.4219 65.1328 17.4219C65.2161 17.4219 65.2969 17.4323 65.375 17.4531C65.4531 17.474 65.5365 17.4844 65.625 17.4844C65.8333 17.4844 66.0391 17.474 66.2422 17.4531C66.4505 17.4323 66.6693 17.4219 66.8984 17.4219C67.1224 17.4219 67.276 17.4922 67.3594 17.6328C67.4479 17.7734 67.4922 17.9714 67.4922 18.2266V18.3828C67.9036 18.0391 68.3385 17.7865 68.7969 17.625C69.2552 17.4583 69.6823 17.375 70.0781 17.375C70.7292 17.375 71.3073 17.4688 71.8125 17.6562C72.3177 17.8438 72.7474 18.1224 73.1016 18.4922C73.3203 18.3151 73.5495 18.1562 73.7891 18.0156C74.0286 17.875 74.2682 17.7578 74.5078 17.6641C74.7526 17.5703 74.9922 17.5 75.2266 17.4531C75.4609 17.401 75.6849 17.375 75.8984 17.375C76.5547 17.375 77.151 17.474 77.6875 17.6719C78.224 17.8646 78.6823 18.151 79.0625 18.5312C79.4479 18.9115 79.7448 19.3802 79.9531 19.9375C80.1615 20.4896 80.2656 21.1276 80.2656 21.8516C80.2656 22.0807 80.25 22.3411 80.2188 22.6328C80.1927 22.9193 80.1536 23.2161 80.1016 23.5234C80.0495 23.8255 79.987 24.125 79.9141 24.4219C79.8411 24.7135 79.763 24.9766 79.6797 25.2109C79.7474 25.1901 79.8021 25.1771 79.8438 25.1719C79.8854 25.1667 79.9219 25.1641 79.9531 25.1641C80.1354 25.1641 80.2812 25.1979 80.3906 25.2656C80.5 25.3333 80.5833 25.4141 80.6406 25.5078C80.7031 25.6016 80.7422 25.7005 80.7578 25.8047C80.7786 25.9036 80.7891 25.987 80.7891 26.0547C80.7891 26.2161 80.7604 26.349 80.7031 26.4531C80.6458 26.5521 80.5443 26.638 80.3984 26.7109C80.2578 26.7786 80.0651 26.8411 79.8203 26.8984C79.5807 26.9557 79.276 27.0234 78.9062 27.1016C78.7448 27.1432 78.612 27.1771 78.5078 27.2031C78.4089 27.2292 78.3177 27.2422 78.2344 27.2422C78.0677 27.2422 77.9245 27.2161 77.8047 27.1641C77.6849 27.1172 77.5859 27.0547 77.5078 26.9766C77.4349 26.8932 77.3802 26.7969 77.3438 26.6875C77.3073 26.5729 77.2891 26.4531 77.2891 26.3281C77.2891 26.1927 77.3255 26.0417 77.3984 25.875C77.4714 25.7031 77.5677 25.5495 77.6875 25.4141C77.8073 25.2161 77.9167 24.9766 78.0156 24.6953C78.1146 24.4089 78.1979 24.1042 78.2656 23.7812C78.3385 23.4583 78.3932 23.1302 78.4297 22.7969C78.4661 22.4635 78.4844 22.1484 78.4844 21.8516C78.4844 21.4349 78.4323 21.0547 78.3281 20.7109C78.2292 20.3672 78.0703 20.0729 77.8516 19.8281C77.638 19.5833 77.3646 19.3932 77.0312 19.2578C76.7031 19.1224 76.3125 19.0547 75.8594 19.0547C75.6302 19.0547 75.4245 19.0729 75.2422 19.1094C75.0651 19.1406 74.8984 19.1875 74.7422 19.25C74.5911 19.3125 74.4479 19.3906 74.3125 19.4844C74.1771 19.5781 74.0417 19.6875 73.9062 19.8125C74.1198 20.3958 74.2266 21.0755 74.2266 21.8516C74.2266 22.0859 74.2109 22.3516 74.1797 22.6484C74.1484 22.9453 74.1042 23.25 74.0469 23.5625C73.9896 23.875 73.9167 24.1823 73.8281 24.4844C73.7396 24.7865 73.6406 25.0625 73.5312 25.3125C73.6146 25.2969 73.7005 25.2734 73.7891 25.2422C73.8776 25.2057 73.974 25.1875 74.0781 25.1875C74.25 25.1875 74.388 25.2214 74.4922 25.2891C74.6016 25.3568 74.6823 25.4401 74.7344 25.5391C74.7917 25.6328 74.8281 25.737 74.8438 25.8516C74.8646 25.9609 74.875 26.0599 74.875 26.1484C74.875 26.3151 74.8411 26.4479 74.7734 26.5469C74.7109 26.6406 74.6276 26.7161 74.5234 26.7734C74.4193 26.8255 74.2995 26.8646 74.1641 26.8906C74.0286 26.9115 73.8906 26.9297 73.75 26.9453C73.6094 26.9609 73.4714 26.9792 73.3359 27C73.2057 27.026 73.0885 27.0651 72.9844 27.1172C72.9688 27.1276 72.9323 27.138 72.875 27.1484C72.8177 27.1641 72.7552 27.1771 72.6875 27.1875C72.625 27.2031 72.5599 27.2161 72.4922 27.2266C72.4297 27.237 72.3802 27.2422 72.3438 27.2422C72.1719 27.2422 72.026 27.2109 71.9062 27.1484C71.7865 27.0859 71.6875 27.0052 71.6094 26.9062C71.5365 26.8073 71.4818 26.6979 71.4453 26.5781C71.4141 26.4583 71.3984 26.3411 71.3984 26.2266C71.3984 26.0911 71.4193 25.9557 71.4609 25.8203C71.5026 25.6797 71.5599 25.5495 71.6328 25.4297C71.7474 25.2214 71.8542 24.974 71.9531 24.6875C72.0521 24.3958 72.1354 24.0911 72.2031 23.7734C72.276 23.4505 72.3333 23.125 72.375 22.7969C72.4167 22.4635 72.4375 22.1484 72.4375 21.8516C72.4375 21.4349 72.3958 21.0547 72.3125 20.7109C72.2344 20.3672 72.1016 20.0729 71.9141 19.8281C71.7266 19.5833 71.4792 19.3932 71.1719 19.2578C70.8698 19.1224 70.4948 19.0547 70.0469 19.0547C69.6042 19.0547 69.1693 19.151 68.7422 19.3438C68.3203 19.5312 67.9036 19.8333 67.4922 20.25C67.4922 20.4844 67.4896 20.776 67.4844 21.125C67.4844 21.4688 67.4844 21.8333 67.4844 22.2188C67.4844 22.6042 67.4844 22.987 67.4844 23.3672C67.4844 23.7474 67.4844 24.0885 67.4844 24.3906C67.4896 24.6927 67.4922 24.9375 67.4922 25.125C67.4974 25.3073 67.5026 25.3906 67.5078 25.375C67.6016 25.349 67.6771 25.3281 67.7344 25.3125C67.7969 25.2917 67.8464 25.276 67.8828 25.2656C67.9245 25.2552 67.9557 25.25 67.9766 25.25C67.9974 25.2448 68.0208 25.2422 68.0469 25.2422C68.3281 25.2422 68.5417 25.3125 68.6875 25.4531C68.8333 25.5885 68.9062 25.7891 68.9062 26.0547C68.9062 26.2526 68.8672 26.4089 68.7891 26.5234C68.7109 26.638 68.612 26.7292 68.4922 26.7969C68.3724 26.8646 68.237 26.9141 68.0859 26.9453C67.9349 26.9714 67.7891 26.9922 67.6484 27.0078C67.5599 27.0182 67.4688 27.0365 67.375 27.0625C67.2812 27.0885 67.1875 27.1146 67.0938 27.1406C67 27.1667 66.9062 27.1901 66.8125 27.2109C66.7188 27.2318 66.6328 27.2422 66.5547 27.2422C66.2474 27.2422 66.0365 27.1693 65.9219 27.0234C65.8073 26.8828 65.75 26.6849 65.75 26.4297ZM84.6953 23.4766C84.7943 23.8672 84.9401 24.1953 85.1328 24.4609C85.3307 24.7214 85.5521 24.9323 85.7969 25.0938C86.0417 25.2552 86.2995 25.3724 86.5703 25.4453C86.8464 25.513 87.1146 25.5469 87.375 25.5469C87.7812 25.5469 88.1432 25.513 88.4609 25.4453C88.7786 25.3724 89.0495 25.2865 89.2734 25.1875C89.5026 25.0833 89.6875 24.9766 89.8281 24.8672C89.9688 24.7578 90.0677 24.6615 90.125 24.5781C90.1771 24.5 90.2344 24.4271 90.2969 24.3594C90.3646 24.2865 90.4349 24.224 90.5078 24.1719C90.5859 24.1146 90.6615 24.0703 90.7344 24.0391C90.8125 24.0078 90.8854 23.9922 90.9531 23.9922C91.2135 23.9922 91.4141 24.0703 91.5547 24.2266C91.7005 24.3776 91.7734 24.5833 91.7734 24.8438C91.7734 24.9427 91.737 25.0677 91.6641 25.2188C91.5911 25.3698 91.4557 25.5365 91.2578 25.7188C91.0391 25.9219 90.7943 26.1146 90.5234 26.2969C90.2578 26.4792 89.9635 26.6406 89.6406 26.7812C89.3177 26.9167 88.9661 27.0234 88.5859 27.1016C88.2109 27.1849 87.8047 27.2266 87.3672 27.2266C86.8516 27.2266 86.3802 27.1562 85.9531 27.0156C85.526 26.8802 85.1432 26.6953 84.8047 26.4609C84.4661 26.2214 84.1719 25.9453 83.9219 25.6328C83.6719 25.3203 83.4635 24.987 83.2969 24.6328C83.1302 24.2786 83.0052 23.9141 82.9219 23.5391C82.8385 23.1641 82.7969 22.7995 82.7969 22.4453C82.7969 21.6745 82.9219 20.9792 83.1719 20.3594C83.4219 19.7344 83.7656 19.2005 84.2031 18.7578C84.6406 18.3151 85.1589 17.974 85.7578 17.7344C86.3568 17.4948 87.0052 17.375 87.7031 17.375C88.2031 17.375 88.6719 17.4505 89.1094 17.6016C89.5469 17.7474 89.9349 17.9557 90.2734 18.2266C90.6172 18.4922 90.9036 18.8125 91.1328 19.1875C91.3672 19.5573 91.5312 19.9661 91.625 20.4141C91.7292 20.5026 91.8047 20.6198 91.8516 20.7656C91.9036 20.9062 91.9297 21.0469 91.9297 21.1875C91.9297 21.4219 91.849 21.6146 91.6875 21.7656C91.5312 21.9115 91.3333 22.013 91.0938 22.0703C90.5677 22.2057 90.0417 22.3307 89.5156 22.4453C88.9896 22.5599 88.4609 22.6719 87.9297 22.7812C87.3984 22.8906 86.862 23.0026 86.3203 23.1172C85.7839 23.2318 85.2422 23.3516 84.6953 23.4766ZM84.5625 22.0312C85.4479 21.8229 86.3438 21.6276 87.25 21.4453C88.1562 21.263 89.0781 21.0599 90.0156 20.8359C89.9271 20.5964 89.8073 20.3698 89.6562 20.1562C89.5052 19.9375 89.3281 19.7474 89.125 19.5859C88.9219 19.4245 88.6953 19.2969 88.4453 19.2031C88.2005 19.1094 87.9349 19.0625 87.6484 19.0625C87.2057 19.0625 86.8021 19.1354 86.4375 19.2812C86.0781 19.4219 85.7656 19.6224 85.5 19.8828C85.2344 20.138 85.0208 20.4505 84.8594 20.8203C84.6979 21.1849 84.599 21.5885 84.5625 22.0312ZM95.0703 26.4219C95.0703 26.3281 95.0729 26.2318 95.0781 26.1328C95.0885 26.0339 95.099 25.9375 95.1094 25.8438C95.125 25.7031 95.1406 25.5495 95.1562 25.3828C95.1719 25.2161 95.1797 25.0286 95.1797 24.8203C95.1797 24.4141 95.1771 24.0312 95.1719 23.6719C95.1719 23.3073 95.1667 22.9323 95.1562 22.5469C95.1562 22.5365 95.1562 22.5208 95.1562 22.5C95.1562 22.474 95.1536 22.4245 95.1484 22.3516C95.1484 22.2786 95.1458 22.1719 95.1406 22.0312C95.1406 21.8906 95.138 21.6927 95.1328 21.4375C95.1276 21.1823 95.1198 20.8646 95.1094 20.4844C95.1042 20.099 95.0964 19.6302 95.0859 19.0781C95.0182 19.0885 94.9375 19.099 94.8438 19.1094C94.7552 19.1146 94.6484 19.1172 94.5234 19.1172C94.4297 19.1172 94.3333 19.1016 94.2344 19.0703C94.1406 19.0391 94.0521 18.9922 93.9688 18.9297C93.8906 18.862 93.8255 18.776 93.7734 18.6719C93.7266 18.5625 93.7031 18.4297 93.7031 18.2734C93.7031 17.9922 93.7734 17.7812 93.9141 17.6406C94.0599 17.4948 94.237 17.4219 94.4453 17.4219C94.5286 17.4219 94.6094 17.4323 94.6875 17.4531C94.7656 17.474 94.849 17.4844 94.9375 17.4844C95.0417 17.4844 95.1484 17.4818 95.2578 17.4766C95.3672 17.4714 95.474 17.4635 95.5781 17.4531C95.6927 17.4427 95.8047 17.4349 95.9141 17.4297C96.0286 17.4245 96.1302 17.4219 96.2188 17.4219C96.4323 17.4219 96.6094 17.4922 96.75 17.6328C96.8906 17.7734 96.9609 17.9714 96.9609 18.2266C96.9609 18.2891 96.9583 18.362 96.9531 18.4453C96.9531 18.5286 96.9479 18.6094 96.9375 18.6875C97.1146 18.5156 97.3151 18.3516 97.5391 18.1953C97.763 18.0391 98.0052 17.901 98.2656 17.7812C98.5312 17.6562 98.8151 17.5573 99.1172 17.4844C99.4193 17.4115 99.7396 17.375 100.078 17.375C100.74 17.375 101.318 17.4844 101.812 17.7031C102.312 17.9167 102.729 18.2292 103.062 18.6406C103.401 19.0469 103.654 19.5469 103.82 20.1406C103.992 20.7344 104.078 21.4089 104.078 22.1641C104.078 22.3932 104.062 22.6328 104.031 22.8828C104 23.1328 103.956 23.3828 103.898 23.6328C103.846 23.8828 103.781 24.1328 103.703 24.3828C103.63 24.6276 103.547 24.8594 103.453 25.0781C103.573 25.0417 103.688 25.0104 103.797 24.9844C103.906 24.9583 103.997 24.9401 104.07 24.9297C104.654 24.8724 104.945 25.138 104.945 25.7266C104.945 25.7995 104.938 25.8802 104.922 25.9688C104.906 26.0521 104.875 26.1354 104.828 26.2188C104.781 26.2969 104.716 26.3724 104.633 26.4453C104.549 26.513 104.443 26.5703 104.312 26.6172L103.469 26.8125C103.208 26.8906 102.997 26.9557 102.836 27.0078C102.68 27.0651 102.547 27.1094 102.438 27.1406C102.333 27.1771 102.245 27.2005 102.172 27.2109C102.099 27.2266 102.018 27.2318 101.93 27.2266C101.805 27.2266 101.695 27.1953 101.602 27.1328C101.508 27.0755 101.43 27.0026 101.367 26.9141C101.305 26.8203 101.258 26.7188 101.227 26.6094C101.195 26.5 101.18 26.3932 101.18 26.2891C101.18 26.1224 101.203 25.9531 101.25 25.7812C101.297 25.6094 101.38 25.4531 101.5 25.3125C101.646 25.125 101.768 24.9141 101.867 24.6797C101.971 24.4453 102.055 24.1927 102.117 23.9219C102.18 23.651 102.224 23.3672 102.25 23.0703C102.281 22.7734 102.297 22.4714 102.297 22.1641C102.297 21.8099 102.258 21.4505 102.18 21.0859C102.107 20.7161 101.979 20.3828 101.797 20.0859C101.62 19.7839 101.383 19.5391 101.086 19.3516C100.794 19.1589 100.427 19.0625 99.9844 19.0625C99.6771 19.0625 99.375 19.112 99.0781 19.2109C98.7865 19.3047 98.5052 19.4323 98.2344 19.5938C97.9688 19.75 97.7188 19.9297 97.4844 20.1328C97.25 20.3359 97.0443 20.5443 96.8672 20.7578C96.862 20.9922 96.8568 21.2292 96.8516 21.4688C96.8516 21.7031 96.8516 21.9401 96.8516 22.1797C96.8411 22.5859 96.8333 22.9896 96.8281 23.3906C96.8229 23.7917 96.8203 24.1979 96.8203 24.6094C96.8203 24.7292 96.8203 24.8516 96.8203 24.9766C96.8203 25.0964 96.8255 25.224 96.8359 25.3594L97.0469 25.2969C97.1042 25.2812 97.1589 25.2682 97.2109 25.2578C97.2682 25.2422 97.3177 25.2344 97.3594 25.2344C97.6406 25.2344 97.8542 25.3047 98 25.4453C98.1458 25.5807 98.2188 25.7812 98.2188 26.0469C98.2188 26.2448 98.1797 26.4036 98.1016 26.5234C98.0234 26.638 97.9245 26.7292 97.8047 26.7969C97.6849 26.8594 97.5521 26.9036 97.4062 26.9297C97.2656 26.9557 97.1276 26.9766 96.9922 26.9922C96.9193 27.0026 96.849 27.0104 96.7812 27.0156C96.7135 27.026 96.6562 27.0391 96.6094 27.0547C96.4427 27.1016 96.2995 27.1406 96.1797 27.1719C96.0599 27.2083 95.9557 27.2266 95.8672 27.2266C95.5599 27.2266 95.349 27.1562 95.2344 27.0156C95.125 26.875 95.0703 26.6771 95.0703 26.4219ZM107.758 24.7344L107.711 19.2266L106.766 19.2344C106.646 19.2344 106.542 19.2109 106.453 19.1641C106.365 19.112 106.289 19.0443 106.227 18.9609C106.169 18.8724 106.125 18.7734 106.094 18.6641C106.062 18.5547 106.047 18.4401 106.047 18.3203C106.047 18.1172 106.07 17.9635 106.117 17.8594C106.169 17.75 106.242 17.6719 106.336 17.625C106.43 17.5729 106.544 17.5443 106.68 17.5391C106.815 17.5286 106.971 17.5234 107.148 17.5234H107.703V17.2344C107.703 17.0417 107.701 16.8854 107.695 16.7656C107.695 16.6458 107.695 16.5651 107.695 16.5234C107.695 16.3724 107.68 16.2214 107.648 16.0703C107.622 15.9193 107.609 15.7656 107.609 15.6094C107.609 15.4792 107.625 15.3646 107.656 15.2656C107.688 15.1667 107.74 15.0833 107.812 15.0156C107.891 14.9427 107.992 14.888 108.117 14.8516C108.242 14.8151 108.396 14.7969 108.578 14.7969C108.703 14.7969 108.82 14.8073 108.93 14.8281C109.044 14.849 109.143 14.8906 109.227 14.9531C109.315 15.0104 109.385 15.0911 109.438 15.1953C109.49 15.2995 109.516 15.4349 109.516 15.6016C109.516 15.8255 109.495 16.0469 109.453 16.2656C109.417 16.4844 109.401 16.7109 109.406 16.9453V17.5156C109.812 17.5052 110.128 17.4974 110.352 17.4922C110.581 17.487 110.766 17.4818 110.906 17.4766C110.927 17.4766 110.945 17.4766 110.961 17.4766C110.982 17.4714 111 17.4688 111.016 17.4688C111.078 17.4635 111.148 17.4609 111.227 17.4609C111.305 17.4609 111.367 17.4609 111.414 17.4609C111.513 17.4609 111.609 17.4766 111.703 17.5078C111.797 17.5391 111.878 17.5911 111.945 17.6641C112.018 17.737 112.076 17.8307 112.117 17.9453C112.159 18.0599 112.18 18.1979 112.18 18.3594C112.18 18.4844 112.169 18.6016 112.148 18.7109C112.128 18.8203 112.089 18.9167 112.031 19C111.974 19.0833 111.891 19.151 111.781 19.2031C111.672 19.25 111.531 19.2734 111.359 19.2734C111.198 19.2734 111.034 19.2656 110.867 19.25C110.706 19.2292 110.539 19.2161 110.367 19.2109L109.422 19.2188L109.477 25.3828C109.69 25.3464 109.878 25.3125 110.039 25.2812C110.201 25.25 110.352 25.2188 110.492 25.1875C110.633 25.1562 110.771 25.1198 110.906 25.0781C111.042 25.0365 111.19 24.9844 111.352 24.9219C111.44 24.875 111.544 24.8281 111.664 24.7812C111.784 24.7292 111.909 24.7031 112.039 24.7031C112.294 24.7031 112.495 24.7917 112.641 24.9688C112.786 25.1406 112.859 25.3672 112.859 25.6484C112.859 25.7214 112.841 25.8021 112.805 25.8906C112.773 25.9792 112.724 26.0677 112.656 26.1562C112.589 26.2396 112.5 26.3177 112.391 26.3906C112.286 26.4583 112.161 26.5078 112.016 26.5391C111.859 26.5703 111.68 26.6094 111.477 26.6562C111.273 26.7031 111.06 26.7526 110.836 26.8047C110.612 26.8568 110.388 26.9089 110.164 26.9609C109.94 27.013 109.729 27.0573 109.531 27.0938C109.333 27.1354 109.159 27.1693 109.008 27.1953C108.857 27.2214 108.742 27.2318 108.664 27.2266C108.57 27.2266 108.466 27.2135 108.352 27.1875C108.242 27.1667 108.141 27.125 108.047 27.0625C107.953 27.0052 107.875 26.9245 107.812 26.8203C107.755 26.7109 107.727 26.5729 107.727 26.4062L107.758 24.7344ZM115.008 27.096C114.933 27.096 114.837 27.0533 114.72 26.968C114.613 26.872 114.506 26.76 114.4 26.632C114.293 26.4933 114.202 26.36 114.128 26.232C114.053 26.0933 114.016 25.9813 114.016 25.896C114.016 25.8213 114.064 25.7307 114.16 25.624C114.266 25.5173 114.389 25.416 114.528 25.32C114.677 25.224 114.821 25.144 114.96 25.08C115.098 25.016 115.205 24.984 115.28 24.984C115.365 24.984 115.461 25.032 115.568 25.128C115.674 25.224 115.776 25.3413 115.872 25.48C115.978 25.608 116.064 25.7413 116.128 25.88C116.192 26.008 116.224 26.1147 116.224 26.2C116.224 26.2747 116.181 26.3653 116.096 26.472C116.01 26.568 115.898 26.664 115.76 26.76C115.632 26.856 115.498 26.936 115.36 27C115.221 27.064 115.104 27.096 115.008 27.096ZM115.008 20.888C114.933 20.888 114.837 20.8453 114.72 20.76C114.613 20.664 114.506 20.552 114.4 20.424C114.293 20.2853 114.202 20.152 114.128 20.024C114.053 19.8853 114.016 19.7733 114.016 19.688C114.016 19.6133 114.064 19.5227 114.16 19.416C114.266 19.3093 114.389 19.208 114.528 19.112C114.677 19.016 114.821 18.936 114.96 18.872C115.098 18.808 115.205 18.776 115.28 18.776C115.365 18.776 115.461 18.824 115.568 18.92C115.674 19.016 115.776 19.1333 115.872 19.272C115.978 19.4 116.064 19.5333 116.128 19.672C116.192 19.8 116.224 19.9067 116.224 19.992C116.224 20.0667 116.181 20.1573 116.096 20.264C116.01 20.36 115.898 20.456 115.76 20.552C115.632 20.648 115.498 20.728 115.36 20.792C115.221 20.856 115.104 20.888 115.008 20.888Z" fill="black"/>
</g>
<defs>
<filter id="filter0_d_184_125" x="0.636719" y="0" width="191.363" height="570" filterUnits="userSpaceOnUse" color-interpolation-filters="sRGB">
<feFlood flood-opacity="0" result="BackgroundImageFix"/>
<feColorMatrix in="SourceAlpha" type="matrix" values="0 0 0 0 0 0 0 0 0 0 0 0 0 0 0 0 0 0 127 0" result="hardAlpha"/>
<feOffset dy="4"/>
<feGaussianBlur stdDeviation="2"/>
<feComposite in2="hardAlpha" operator="out"/>
<feColorMatrix type="matrix" values="0 0 0 0 0 0 0 0 0 0 0 0 0 0 0 0 0 0 0.25 0"/>
<feBlend mode="normal" in2="BackgroundImageFix" result="effect1_dropShadow_184_125"/>
<feBlend mode="normal" in="SourceGraphic" in2="effect1_dropShadow_184_125" result="shape"/>
</filter>
</defs>
</svg>
