<svg width="124" height="124" viewBox="0 0 124 124" fill="none" xmlns="http://www.w3.org/2000/svg">
<path d="M15.5 31H25.8333M25.8333 31H108.5M25.8333 31V103.333C25.8333 106.074 26.922 108.702 28.8599 110.64C30.7978 112.578 33.4261 113.667 36.1667 113.667H87.8333C90.5739 113.667 93.2022 112.578 95.1401 110.64C97.078 108.702 98.1667 106.074 98.1667 103.333V31M41.3333 31V20.6667C41.3333 17.9261 42.422 15.2978 44.3599 13.3599C46.2978 11.4221 48.9261 10.3334 51.6667 10.3334H72.3333C75.0739 10.3334 77.7022 11.4221 79.6401 13.3599C81.578 15.2978 82.6667 17.9261 82.6667 20.6667V31M51.6667 56.8334V87.8334M72.3333 56.8334V87.8334" stroke="#1E1E1E" stroke-width="4" stroke-linecap="round" stroke-linejoin="round"/>
</svg>
