<?xml version="1.0" encoding="UTF-8"?>
<svg version="1.1" xmlns="http://www.w3.org/2000/svg" width="512" height="512">
<path d="M0 0 C6.51706474 4.03234507 11.13468988 9.07875741 13.5 16.4375 C14.51114717 22.04059131 14.64485463 27.46786842 14.63803101 33.13781738 C14.64085229 34.09693323 14.64367357 35.05604907 14.64658034 36.04422903 C14.65489408 39.24889533 14.65626184 42.45352694 14.65771484 45.65820312 C14.66238554 47.95999244 14.66752953 50.26178083 14.67311096 52.56356812 C14.68437729 57.51750095 14.69281864 62.47142781 14.69923019 67.42536926 C14.70993111 75.26842473 14.73018256 83.11143738 14.75234985 90.95446777 C14.7598289 93.64252458 14.76724279 96.33058157 14.77463722 99.01863861 C14.77741307 100.02624526 14.77741307 100.02624526 14.780245 101.05420759 C14.8011536 108.69336089 14.81998905 116.3325188 14.83789062 123.97167969 C14.83952881 124.66957161 14.84116699 125.36746353 14.84285481 126.08650368 C14.86910299 137.3794065 14.88776838 148.67231256 14.90448253 159.96523291 C14.92195421 171.58322333 14.95104124 183.20114728 14.9893719 194.81908751 C15.0103857 201.33249926 15.02589119 207.84582076 15.02817917 214.35926819 C15.03033609 220.49232643 15.04631166 226.62519684 15.07256889 232.75819778 C15.0797238 234.99979744 15.08188152 237.24141994 15.07846642 239.48302841 C15.06306601 251.5210218 15.45858314 262.74360994 18.5 274.4375 C18.68662893 275.18550117 18.87325787 275.93350235 19.06554222 276.70417023 C23.16058321 291.97035057 30.95873302 305.75364814 41.5 317.4375 C42.19609375 318.27539062 42.8921875 319.11328125 43.609375 319.9765625 C49.48822811 326.90674335 56.12507077 332.21131558 63.5 337.4375 C64.27601563 337.99179687 65.05203125 338.54609375 65.8515625 339.1171875 C78.08040144 347.11130483 93.12948393 352.22957965 107.5 354.4375 C108.63501953 354.63085938 108.63501953 354.63085938 109.79296875 354.828125 C137.70113899 358.80752638 167.01373141 350.98323453 189.60498047 334.28369141 C207.27211777 320.77593813 220.30380741 303.84807373 227.875 282.875 C228.10155273 282.25206055 228.32810547 281.62912109 228.56152344 280.98730469 C233.56121135 266.13860751 233.93566532 251.73829053 233.90063477 236.22924805 C233.90638713 233.91816352 233.91347391 231.60708199 233.92178345 229.29600525 C233.93681806 224.34762983 233.94267763 219.39936176 233.94125557 214.45096397 C233.93921149 206.62120511 233.95885664 198.79158941 233.98143005 190.96186829 C234.01139001 179.98296665 234.03159057 169.00408195 234.04370117 158.02514648 C234.04485541 156.9831273 234.04485541 156.9831273 234.04603296 155.92005721 C234.04913534 153.10523124 234.05221815 150.29040524 234.055273 147.47557921 C234.06381404 139.71638263 234.07471475 131.95719007 234.08666992 124.19799805 C234.08773794 123.50266197 234.08880596 122.8073259 234.08990634 122.09091904 C234.10802323 110.4806301 234.13407152 98.87036946 234.16480106 87.26010734 C234.18468359 79.48119364 234.19430001 71.70235557 234.19575322 63.92341745 C234.19850817 59.0838975 234.20934779 54.24441922 234.22226334 49.40491676 C234.22653348 47.16604118 234.22740948 44.92715608 234.22458839 42.6882782 C234.2211719 39.62495006 234.230006 36.56188334 234.24171448 33.49858093 C234.23773338 32.61967735 234.23375229 31.74077376 234.22965056 30.83523673 C234.29471645 21.18621812 235.24744119 12.6460122 242.36328125 5.58984375 C249.5286064 -0.98174447 255.14621763 -2.13712257 264.83203125 -1.87109375 C272.33498228 -1.23985506 276.96184585 2.17800423 282.02734375 7.578125 C287.57622893 14.58414449 287.64934976 23.03971049 287.63371277 31.58409119 C287.63597833 32.49587256 287.63824388 33.40765392 287.64057809 34.34706503 C287.64690055 37.39797491 287.64608981 40.44884016 287.64526367 43.49975586 C287.64825655 45.68989621 287.65165938 47.88003604 287.65544128 50.07017517 C287.66427963 56.02159043 287.66661954 61.9729913 287.66725707 67.92441249 C287.6679685 71.65104684 287.67010476 75.37767755 287.67275429 79.10431099 C287.68153444 91.45863483 287.68617405 103.81295102 287.68542381 116.16727787 C287.68536388 117.16571678 287.68536388 117.16571678 287.68530273 118.18432617 C287.68526185 118.85077896 287.68522097 119.51723175 287.68517885 120.20388008 C287.68479909 130.29405523 287.69255594 140.38419923 287.70581055 150.47436523 C287.72118828 162.22159387 287.72956527 173.96879953 287.72884732 185.71603876 C287.72859394 191.92231578 287.73135504 198.12855302 287.74202538 204.3348217 C287.7518153 210.18959157 287.75171213 216.04428457 287.74450874 221.89905739 C287.74347577 224.02926625 287.74574753 226.15948017 287.7518692 228.28968048 C287.80718045 248.89946793 287.08535819 269.49039758 281.5 289.4375 C281.2721582 290.25395996 281.04431641 291.07041992 280.80957031 291.91162109 C270.0454977 329.31570698 245.83796194 360.99131063 213.5 382.4375 C212.58347656 383.06269531 211.66695312 383.68789063 210.72265625 384.33203125 C175.78074257 407.1319672 131.04297657 413.68726781 90.5 405.4375 C49.53679565 396.14036542 11.44969489 372.02258469 -11.39404297 336.22070312 C-33.02883516 301.33758565 -38.6562955 266.46203838 -38.64526367 226.01782227 C-38.64826208 223.80349166 -38.65166616 221.58916157 -38.65544128 219.37483215 C-38.66420948 213.40842065 -38.66661616 207.44202353 -38.66725707 201.4756062 C-38.6679709 197.74266173 -38.67011134 194.00972084 -38.67275429 190.27677727 C-38.68150482 177.91061565 -38.68617699 165.54446165 -38.68542381 153.17829705 C-38.68538386 152.51464701 -38.6853439 151.85099697 -38.68530273 151.16723633 C-38.68526185 150.50276621 -38.68522097 149.83829609 -38.68517885 149.15369051 C-38.68477153 138.36167368 -38.69436962 127.56969159 -38.7084411 116.77768482 C-38.72281734 105.66346136 -38.72952777 94.54925225 -38.72884732 83.43501896 C-38.72859268 77.20809837 -38.73142659 70.98121728 -38.74202538 64.75430489 C-38.75171066 58.90601215 -38.75178256 53.05779673 -38.74450874 47.20950127 C-38.74346392 45.06695314 -38.74581971 42.92440019 -38.7518692 40.78186035 C-38.75960549 37.85180257 -38.75493368 34.92201082 -38.74723816 31.99195862 C-38.75238172 31.14973379 -38.75752529 30.30750897 -38.76282471 29.43976218 C-38.70926443 20.17723349 -37.44103015 12.34745449 -30.63671875 5.5859375 C-22.40445837 -1.94867369 -10.64773847 -4.87411211 0 0 Z " fill="#000000" transform="translate(131.5,1.5625)"/>
<path d="M0 0 C1.1350073 -0.00382555 2.27001459 -0.00765109 3.43941605 -0.01159257 C7.23310583 -0.02189064 11.02664335 -0.01793642 14.82034302 -0.01396179 C17.54418371 -0.01721748 20.26801601 -0.0234293 22.99185181 -0.02944946 C29.61692221 -0.04217928 36.24195205 -0.0439923 42.86703263 -0.0416492 C48.25386989 -0.03986395 53.64069487 -0.04162012 59.02753067 -0.04587364 C59.79510995 -0.04646883 60.56268922 -0.04706402 61.35352848 -0.04767724 C62.91302489 -0.04888904 64.47252131 -0.05010317 66.03201772 -0.05131962 C80.64722634 -0.06218856 95.26241187 -0.06003574 109.87762178 -0.05393478 C123.23669684 -0.04876628 136.59569896 -0.06002043 149.95475958 -0.07903299 C163.68471871 -0.09842304 177.41464335 -0.10666534 191.14461625 -0.10290974 C198.84778693 -0.10099946 206.55089554 -0.10346841 214.25405502 -0.11762428 C220.81193424 -0.12955394 227.36971318 -0.13092526 233.92759381 -0.11883412 C237.2706853 -0.11295641 240.6134437 -0.11345086 243.95654678 -0.12383652 C247.5874113 -0.13430153 251.21778577 -0.12620452 254.84863281 -0.11352539 C255.89573107 -0.12089968 256.94282932 -0.12827396 258.02165782 -0.13587171 C267.36326281 -0.06741192 276.62973125 1.51569825 283.55130005 8.26069641 C288.61879489 14.05596977 290.16189555 20.68228587 290.55130005 28.26069641 C289.87018563 37.36538915 285.30409223 42.87055779 278.6489563 48.74507141 C274.76311364 51.55271936 271.21669909 52.5102514 266.46060467 52.51796532 C264.9482453 52.52763866 264.9482453 52.52763866 263.40533322 52.53750741 C262.30476128 52.53441021 261.20418933 52.53131301 260.07026672 52.52812195 C258.89557605 52.53265306 257.72088537 52.53718417 256.510598 52.54185259 C253.25364397 52.55232298 249.99682879 52.5538224 246.73986328 52.55146384 C243.22577513 52.55105562 239.7117199 52.56209535 236.19764709 52.57157898 C229.31415917 52.58818888 222.4307055 52.59368852 215.54719921 52.59480374 C209.95146253 52.59575423 204.35573715 52.59986462 198.76000404 52.60620499 C182.89285617 52.62381753 167.02573536 52.63304386 151.15857764 52.63154404 C150.30325172 52.63146413 149.4479258 52.63138421 148.56668091 52.63130188 C147.71030984 52.63122012 146.85393878 52.63113836 145.97161708 52.63105412 C132.09366053 52.63024126 118.21581252 52.64937885 104.33788737 52.67757861 C90.08596631 52.70630966 75.83409818 52.72011878 61.58214742 52.71839106 C53.58163165 52.71772722 45.58122966 52.72321664 37.58073997 52.74474716 C30.76872454 52.7629619 23.95687446 52.76730398 17.14484521 52.75372832 C13.67037141 52.74719999 10.19621483 52.74707605 6.72177124 52.76443481 C2.9519915 52.7798418 -0.81695426 52.77060769 -4.5867157 52.75517273 C-5.68059548 52.76545986 -6.77447526 52.77574698 -7.90150291 52.78634584 C-15.53610432 52.71723599 -20.48304299 51.27178816 -26.6557312 46.58491516 C-32.72514382 40.39736312 -35.4194799 33.93905043 -35.44869995 25.26069641 C-34.88679668 18.20025967 -32.10304792 12.56376987 -27.44869995 7.26069641 C-19.3911825 0.41846569 -10.13016688 -0.03640799 0 0 Z " fill="#000000" transform="translate(128.44869995117188,459.7393035888672)"/>
</svg>
