<?xml version="1.0" encoding="UTF-8"?>
<svg version="1.1" xmlns="http://www.w3.org/2000/svg" width="512" height="512">
<path d="M0 0 C1.24387708 -0.00384115 2.48775416 -0.00768229 3.76932448 -0.01163983 C5.14689241 -0.01085964 6.52446028 -0.00998087 7.90202808 -0.00901413 C9.36764616 -0.01159857 10.83326353 -0.01461195 12.29887992 -0.01801753 C16.32724086 -0.02608157 20.35558397 -0.02787677 24.38395202 -0.028615 C28.72834079 -0.03046659 33.07272034 -0.03801447 37.41710377 -0.04475021 C46.91717488 -0.05832984 56.41724177 -0.06435768 65.91732097 -0.06876087 C71.84978338 -0.07152393 77.78224416 -0.0757614 83.71470547 -0.08026505 C100.14158717 -0.09245724 116.56846757 -0.10275664 132.9953537 -0.10614014 C134.57227127 -0.10646949 134.57227127 -0.10646949 136.18104576 -0.10680549 C137.23483215 -0.10702377 138.28861854 -0.10724204 139.37433785 -0.10746694 C141.50969199 -0.1079104 143.64504614 -0.10835696 145.78040028 -0.10880661 C146.83960852 -0.10902804 147.89881677 -0.10924947 148.99012224 -0.10947761 C166.15169607 -0.11342532 183.31322744 -0.13087875 200.47478487 -0.15416613 C218.09640652 -0.17788469 235.71800686 -0.19034222 253.33964473 -0.19150805 C263.23268243 -0.19242453 273.1256648 -0.19817 283.01868725 -0.21632767 C291.44311448 -0.23173544 299.86746928 -0.23684511 308.29190793 -0.22858956 C312.58882653 -0.22468547 316.88559928 -0.22560092 321.18249989 -0.23964691 C325.11999199 -0.25240014 329.05722886 -0.25117592 332.99472068 -0.2390562 C334.41533438 -0.23710166 335.83596625 -0.24016638 337.25655445 -0.24890056 C351.81718449 -0.33271944 363.1822423 2.77003768 374.10291004 12.75642776 C382.49053802 21.63644686 386.41724831 33.38888746 386.09900379 45.46345901 C384.97976146 57.59746713 380.17709277 67.82473453 371.33337879 76.24080276 C363.10182128 82.51493479 354.06219556 86.25083718 343.70582008 86.26285553 C341.84000447 86.26861725 341.84000447 86.26861725 339.9364956 86.27449536 C338.55892768 86.27371517 337.18135981 86.2728364 335.803792 86.27186966 C334.33817393 86.2744541 332.87255656 86.27746748 331.40694016 86.28087306 C327.37857923 86.2889371 323.35023611 86.2907323 319.32186806 86.29147053 C314.97747929 86.29332212 310.63309975 86.30087 306.28871632 86.30760574 C296.78864521 86.32118537 287.28857832 86.32721321 277.78849912 86.3316164 C271.85603671 86.33437946 265.92357593 86.33861693 259.99111462 86.34312057 C243.56423291 86.35531277 227.13735251 86.36561217 210.71046638 86.36899567 C209.659188 86.36921523 208.60790962 86.3694348 207.52477432 86.36966102 C206.47098793 86.3698793 205.41720154 86.37009757 204.33148223 86.37032247 C202.19612809 86.37076593 200.06077395 86.37121249 197.92541981 86.37166214 C196.86621156 86.37188357 195.80700331 86.372105 194.71569785 86.37233314 C177.55412401 86.37628085 160.39259264 86.39373428 143.23103521 86.41702166 C125.60941356 86.44074022 107.98781322 86.45319775 90.36617535 86.45436358 C80.47313765 86.45528006 70.58015529 86.46102552 60.68713284 86.4791832 C52.2627056 86.49459097 43.8383508 86.49970064 35.41391215 86.49144509 C31.11699356 86.487541 26.82022081 86.48845645 22.5233202 86.50250244 C18.5858281 86.51525567 14.64859123 86.51403145 10.71109941 86.50191173 C9.29048571 86.49995719 7.86985383 86.50302191 6.44926564 86.51175609 C-8.1113644 86.59557497 -19.47642221 83.49281785 -30.39708996 73.50642776 C-38.78471794 64.62640867 -42.71142823 52.87396807 -42.39318371 40.79939651 C-41.27394138 28.6653884 -36.47127269 18.438121 -27.62755871 10.02205276 C-19.39600119 3.74792074 -10.35637547 0.01201835 0 0 Z " fill="#231F20" transform="translate(84.14708995819092,340.8685722351074)"/>
<path d="M0 0 C1.23579489 -0.00445784 2.47158978 -0.00891569 3.74483299 -0.01350862 C5.12366614 -0.01341932 6.50249928 -0.01322946 7.8813324 -0.01294994 C9.34038707 -0.01624859 10.79944083 -0.01997416 12.25849342 -0.02409142 C16.27803871 -0.03411984 20.29756906 -0.03782958 24.31712508 -0.04048073 C28.64861802 -0.04438139 32.9800991 -0.05396002 37.31158447 -0.0626936 C47.77840401 -0.08246665 58.24522452 -0.09252612 68.71205807 -0.10142139 C73.64081828 -0.10580365 78.56957743 -0.11117069 83.49833679 -0.11641026 C99.88310015 -0.13342478 116.26786283 -0.14791832 132.65263367 -0.155159 C136.90570578 -0.15706891 141.15877788 -0.15898923 145.41184998 -0.16094494 C146.4689363 -0.16142868 147.52602262 -0.16191242 148.61514187 -0.16241082 C165.73414873 -0.17070872 182.85308566 -0.19604059 199.97206199 -0.22852562 C217.54729436 -0.26160447 235.1224912 -0.27960858 252.69775486 -0.28280324 C262.56572364 -0.28496777 272.4335905 -0.29370788 282.30152893 -0.31926441 C290.70695879 -0.34098282 299.11226197 -0.34901627 307.51771671 -0.33929763 C311.80466342 -0.33475599 316.09134886 -0.33663106 320.37825966 -0.35605907 C324.30792906 -0.37371381 328.23714701 -0.37267455 332.16682136 -0.35716178 C333.58347804 -0.35478917 335.00016617 -0.35909125 336.41677487 -0.37099043 C348.46190986 -0.46584593 358.26576257 1.33394065 367.17210388 9.84125233 C374.64251407 18.64673582 375.76470064 27.95940793 375.11741638 39.13422108 C373.79421393 47.23124892 369.20760676 54.01661668 362.71897888 58.96234608 C353.04743558 65.0926166 344.12111972 65.42814513 332.93531799 65.39491749 C331.49185834 65.39794078 330.0484003 65.40183115 328.60494506 65.40651006 C324.65174739 65.41677594 320.69864055 65.41461184 316.74543548 65.41032946 C312.4767597 65.40785968 308.20810565 65.41687953 303.93943787 65.42436695 C295.58179988 65.43710893 287.22419402 65.43890827 278.86654796 65.43656669 C272.07238876 65.43478282 265.2782393 65.43653465 258.48408127 65.44079113 C257.51667598 65.44138632 256.5492707 65.44198151 255.5525501 65.44259473 C253.58718968 65.4438065 251.62182927 65.44502063 249.65646885 65.44623711 C231.22993285 65.45711071 212.80341516 65.454951 194.37687813 65.44885226 C177.52588483 65.4436832 160.67494934 65.45493859 143.82396747 65.47395048 C126.51413049 65.4933301 109.20432086 65.50158467 91.89447296 65.49782723 C82.17921857 65.49591539 72.46401338 65.49840117 62.74876785 65.51254177 C54.47811832 65.5244581 46.20754828 65.52585761 37.93689765 65.5137516 C33.71894651 65.50786472 29.50114075 65.50675821 25.28319931 65.51875401 C21.41798554 65.52961871 17.55303844 65.52650258 13.68783711 65.51249232 C12.29356043 65.50984701 10.8992628 65.51220674 9.50500669 65.52022818 C-2.4916213 65.58442761 -12.51462974 64.06647321 -21.88258362 56.13422108 C-28.6289008 49.15222469 -30.99821326 41.78015137 -31.32008362 32.19672108 C-31.05219573 22.23129167 -28.00619343 15.35542566 -21.17555237 8.11468983 C-15.09799611 2.86542062 -7.97592944 0.01331603 0 0 Z " fill="#221E1F" transform="translate(83.88258361816406,244.86577892303467)"/>
<path d="M0 0 C1.22558445 -0.00644889 2.45116891 -0.01289778 3.71389228 -0.0195421 C5.06562581 -0.01660012 6.41735893 -0.01346471 7.76909161 -0.01015663 C9.21153825 -0.01389447 10.65398287 -0.01849653 12.09642428 -0.02388728 C16.05606677 -0.03611616 20.01562477 -0.03585695 23.97528183 -0.03349853 C28.24738531 -0.03309033 32.5194617 -0.04412973 36.79155254 -0.05361366 C45.15982032 -0.07022391 53.52805991 -0.07572322 61.89634279 -0.07683842 C68.69866336 -0.07778886 75.50097464 -0.08189896 82.30329227 -0.08823967 C101.59039208 -0.10585198 120.87746962 -0.11507853 140.16457752 -0.11357872 C141.20426904 -0.11349881 142.24396056 -0.1134189 143.31515789 -0.11333656 C144.87659994 -0.11321392 144.87659994 -0.11321392 146.46958628 -0.1130888 C163.34079715 -0.11227586 180.21191876 -0.13141572 197.08310381 -0.1596133 C214.40756371 -0.18833991 231.73198006 -0.20215372 249.05646437 -0.20042574 C258.78235499 -0.19976178 268.50815202 -0.20525707 278.23402119 -0.22678185 C286.51464463 -0.24499068 294.79513205 -0.2493434 303.07576684 -0.235763 C307.29969954 -0.2292319 311.52337127 -0.22912116 315.74727917 -0.2464695 C319.6169048 -0.26219913 323.48606252 -0.25933802 327.35567673 -0.24190123 C328.75268939 -0.23883108 330.14973696 -0.24246442 331.54670844 -0.25362138 C340.12190253 -0.31755102 348.16815888 -0.16556278 354.69253379 6.03658736 C360.42269262 12.33379044 361.33206134 17.27006523 361.19967937 25.76898766 C360.50955517 32.12239913 357.48124864 35.92251296 352.88327312 40.13226891 C347.96332438 43.54611089 343.57420091 44.50662328 337.64154625 44.51453781 C336.4159618 44.5209867 335.19037734 44.5274356 333.92765397 44.53407991 C332.57592044 44.53113793 331.22418732 44.52800252 329.87245464 44.52469444 C328.430008 44.52843228 326.98756338 44.53303434 325.54512197 44.53842509 C321.58547948 44.55065398 317.62592148 44.55039476 313.66626441 44.54803634 C309.39416094 44.54762814 305.12208455 44.55866754 300.84999371 44.56815147 C292.48172593 44.58476173 284.11348634 44.59026103 275.74520346 44.59137623 C268.94288289 44.59232667 262.14057161 44.59643677 255.33825397 44.60277748 C236.05115417 44.62038979 216.76407663 44.62961634 197.47696873 44.62811653 C196.43727721 44.62803662 195.39758568 44.62795671 194.32638836 44.62787437 C193.28542699 44.62779261 192.24446562 44.62771085 191.17195997 44.62762661 C174.3007491 44.62681367 157.42962749 44.64595353 140.55844244 44.67415111 C123.23398254 44.70287773 105.90956619 44.71669153 88.58508188 44.71496356 C78.85919126 44.71429959 69.13339423 44.71979488 59.40752506 44.74131966 C51.12690162 44.75952849 42.8464142 44.76388121 34.56577941 44.75030081 C30.34184671 44.74376972 26.11817498 44.74365897 21.89426708 44.76100731 C18.02464145 44.77673694 14.15548373 44.77387583 10.28586952 44.75643905 C8.88885686 44.75336889 7.49180929 44.75700223 6.09483781 44.7681592 C-2.48035628 44.83208883 -10.52661263 44.68010059 -17.05098754 38.47795045 C-22.78114637 32.18074737 -23.69051509 27.24447258 -23.55813313 18.74555016 C-22.86800892 12.39213868 -19.83970239 8.59202485 -15.24172688 4.38226891 C-10.32177813 0.96842692 -5.93265466 0.00791453 0 0 Z " fill="#231E20" transform="translate(87.17922687530518,169.74273109436035)"/>
<path d="M0 0 C1.46037595 -0.00532652 2.92074642 -0.01239283 4.38110644 -0.02104706 C8.39031102 -0.03968753 12.39914657 -0.03336469 16.40836656 -0.02289402 C20.73362159 -0.01590596 25.05880051 -0.03189696 29.3840332 -0.04489136 C37.85593906 -0.06654328 46.32771066 -0.0664014 54.7996351 -0.05826581 C61.68493394 -0.05196813 68.5701936 -0.05310072 75.45549202 -0.05953789 C76.4351359 -0.06043954 77.41477978 -0.0613412 78.42410984 -0.06227018 C80.41419852 -0.06412136 82.4042872 -0.06598392 84.39437587 -0.06785773 C103.06023336 -0.0844404 121.72601529 -0.07571307 140.39186824 -0.05887216 C157.47138692 -0.04417519 174.55072969 -0.05880274 191.63022571 -0.08764232 C209.1648711 -0.1170301 226.69943528 -0.12801038 244.23410422 -0.11846012 C246.21721207 -0.11743756 248.20031993 -0.11644295 250.18342781 -0.11547661 C251.647038 -0.11476202 251.647038 -0.11476202 253.14021606 -0.114033 C260.01693942 -0.11186803 266.89358596 -0.12167738 273.77029228 -0.13624763 C282.15128706 -0.15375731 290.53205753 -0.15367327 298.91304343 -0.13089598 C303.18942743 -0.11974126 307.46541606 -0.1166189 311.74178314 -0.13519669 C315.65705101 -0.15198693 319.57157824 -0.14567091 323.486798 -0.1209799 C324.90261213 -0.11609133 326.31848584 -0.11962685 327.73425018 -0.13246734 C335.72001601 -0.19966488 340.98464854 -0.16588425 346.8863678 5.5146637 C349.9736592 9.79703564 350.46773878 13.82066565 350.30433655 18.97950745 C349.61423491 23.1652641 347.77160816 26.42994993 344.8863678 29.5146637 C341.05850108 32.24683533 338.43812433 32.89090537 333.76213264 32.89777374 C332.52337226 32.90683038 331.28461188 32.91588702 330.0083133 32.92521811 C328.63653784 32.92011394 327.26476343 32.91472186 325.89299011 32.90907288 C324.43347958 32.91396174 322.97397291 32.92015153 321.51447284 32.92753077 C317.50306867 32.94395413 313.49186072 32.94160752 309.48043466 32.9361558 C305.15448857 32.93348854 300.82859515 32.94801167 296.50267029 32.96025085 C288.02730867 32.98131999 279.55201544 32.98584486 271.07663073 32.98406297 C264.1884523 32.98275608 257.30029523 32.98655575 250.41212082 32.99398804 C248.42906439 32.9960872 246.44600797 32.9981848 244.46295154 33.00028086 C243.47597112 33.00132438 242.48899071 33.00236791 241.47210179 33.00344306 C222.7995877 33.02235144 204.12711287 33.02129341 185.45459317 33.01447374 C168.36854892 33.00889791 151.2826546 33.02972432 134.19664539 33.0628342 C116.6575179 33.09655866 99.11846225 33.11174108 81.57930171 33.10711718 C71.73048192 33.10487121 61.8818007 33.11013415 52.03300858 33.13500977 C43.64833891 33.15600682 35.26388379 33.15963078 26.87920536 33.14071018 C22.60079674 33.13154241 18.32278832 33.13044087 14.04441071 33.15106583 C10.1272631 33.16974062 6.21084443 33.16531235 2.29372488 33.14252001 C0.87720361 33.13832533 -0.53937316 33.14256358 -1.9558358 33.15611595 C-9.94395532 33.2273353 -15.21059242 33.19826696 -21.1136322 27.5146637 C-24.68137535 22.56585868 -24.94577097 17.41443404 -24.1136322 11.5146637 C-22.67036622 7.21748194 -20.09394958 3.77056667 -16.22927368 1.32952893 C-11.1356227 -0.63235314 -5.38438827 -0.03413488 0 0 Z " fill="#221E1F" transform="translate(93.11363220214844,111.48533630371094)"/>
</svg>
